<?xml version="1.0" encoding="utf-8"?>
<!-- Generator: Adobe Illustrator 24.0.2, SVG Export Plug-In . SVG Version: 6.00 Build 0)  -->
<svg version="1.1" id="Paradise_Financial" xmlns="http://www.w3.org/2000/svg" xmlns:xlink="http://www.w3.org/1999/xlink" x="0px"
	 y="0px" viewBox="0 0 758.1 443.1" style="enable-background:new 0 0 758.1 443.1;" xml:space="preserve">
<style type="text/css">
	.st0{display:none;}
	.st1{font-family:'UniversLTStd-Black';}
	.st2{font-size:80px;}
	.st3{fill:#25A468;}
</style>
<text transform="matrix(1 0 0 1 -5.2782 451)" class="st0 st1 st2">Paradise Financial</text>
<g>
	<g>
		<polygon class="st3" points="106.8,320 234.8,0 314.8,0 186.8,320 		"/>
		<polygon class="st3" points="346.8,320 474.8,0 554.8,0 426.8,320 		"/>
		<polygon class="st3" points="621.5,149.7 651.3,75.5 564.9,75 535.1,149.2 		"/>
		<polygon class="st3" points="294.9,149.5 324.6,75.2 404.6,75.2 		"/>
	</g>
	<g>
		<path d="M0,442v-57.8h26.6c6.9,0,11.9,1,15,3c5.4,3.3,8.2,8.5,8.2,15.7c0,1.9-0.2,3.7-0.7,5.4c-0.5,1.7-1,3.1-1.7,4.2
			c-0.6,1.1-1.4,2.1-2.3,3c-0.9,0.9-1.6,1.6-2.2,2c-0.6,0.4-1.2,0.8-1.8,1.1c-3,1.7-7.8,2.5-14.6,2.5l-10.4,0.1V442H0z M16.1,395
			v15.2h7.1c1.4,0,2.5-0.1,3.4-0.2c0.9-0.1,1.9-0.4,3.1-0.8c1.2-0.4,2.2-1.2,2.8-2.4c0.6-1.1,1-2.6,1-4.4c0-1.7-0.3-3-0.9-4.1
			c-0.6-1.1-1.5-1.8-2.6-2.3c-1.1-0.5-2.2-0.7-3.2-0.9c-1-0.1-2.2-0.2-3.6-0.2H16.1z"/>
		<path d="M93.5,442H79.1c-0.3-1.4-0.5-3.4-0.5-5.8c-2.9,4.4-7.3,6.6-13.2,6.6c-4.7,0-8.2-1.1-10.6-3.4c-2.4-2.3-3.6-5.3-3.6-9
			c0-10.2,9.1-15,27.4-14.2c0.1-2.6-0.3-4.7-0.9-6.1c-0.7-1.5-2-2.2-4.1-2.2c-1.6,0-2.9,0.5-3.9,1.4c-1,1-1.5,2.5-1.4,4.6H53.9
			c0.2-3.6,1.2-6.4,3.1-8.4c3.3-3.4,8.8-5,16.6-5c7.2,0,12.4,1.5,15.5,4.6c2.3,2.3,3.5,5.8,3.5,10.6v18.7
			C92.7,436.5,93,439,93.5,442z M78.6,423c-1.7,0-3,0-3.8,0.1c-0.9,0.1-1.9,0.2-3.3,0.4c-1.3,0.2-2.3,0.5-3,0.9
			c-0.6,0.4-1.2,0.9-1.7,1.7c-0.5,0.8-0.8,1.7-0.8,2.8c0,1.5,0.5,2.8,1.5,3.9c1,1,2.3,1.6,4,1.6c2.7,0,4.7-1.3,5.9-3.8
			C78.4,428.6,78.8,426.1,78.6,423z"/>
		<path d="M103,442v-31.6l-0.4-8.6h14.6l0.2,8.3c0.8-2.1,1.8-3.8,3-5.1c1.2-1.3,2.6-2.2,4.2-2.6c1.5-0.5,2.8-0.7,3.6-0.8
			c0.9-0.1,2-0.1,3.3-0.1v12.9c-1.8-0.2-2.8-0.2-3.2-0.2c-7,0-10.5,3.6-10.5,10.8v17H103z"/>
		<path d="M177.9,442h-14.4c-0.3-1.4-0.5-3.4-0.5-5.8c-2.9,4.4-7.3,6.6-13.2,6.6c-4.7,0-8.2-1.1-10.6-3.4c-2.4-2.3-3.6-5.3-3.6-9
			c0-10.2,9.1-15,27.4-14.2c0.1-2.6-0.3-4.7-0.9-6.1c-0.7-1.5-2-2.2-4.1-2.2c-1.6,0-2.9,0.5-3.9,1.4c-1,1-1.5,2.5-1.4,4.6h-14.4
			c0.2-3.6,1.2-6.4,3.1-8.4c3.3-3.4,8.8-5,16.6-5c7.2,0,12.4,1.5,15.5,4.6c2.3,2.3,3.5,5.8,3.5,10.6v18.7
			C177.1,436.5,177.4,439,177.9,442z M163,423c-1.7,0-3,0-3.8,0.1c-0.9,0.1-1.9,0.2-3.3,0.4c-1.3,0.2-2.3,0.5-3,0.9
			c-0.6,0.4-1.2,0.9-1.7,1.7c-0.5,0.8-0.8,1.7-0.8,2.8c0,1.5,0.5,2.8,1.5,3.9c1,1,2.3,1.6,4,1.6c2.7,0,4.7-1.3,5.9-3.8
			C162.8,428.6,163.2,426.1,163,423z"/>
		<path d="M215.2,384.2h15V432c0,2.9,0.1,6.3,0.4,10h-14.2l-0.3-5.9c-0.6,0.9-1.1,1.6-1.6,2.1c-0.5,0.6-1.3,1.3-2.4,2.1
			c-1.1,0.9-2.4,1.5-4,2c-1.6,0.5-3.5,0.7-5.6,0.7c-3.3,0-6.2-0.6-8.6-1.8s-4.2-2.9-5.5-5c-1.3-2.1-2.2-4.4-2.8-6.7
			c-0.6-2.3-0.9-4.8-0.9-7.5c0-6.7,1.7-11.8,5-15.5c3.4-3.6,7.8-5.4,13.2-5.4c2.1,0,3.9,0.3,5.6,0.9c1.7,0.6,2.9,1.3,3.7,1.9
			c0.8,0.7,1.8,1.6,2.9,2.8V384.2z M207.8,434.1c2.6,0,4.5-1.1,5.7-3.4c1.3-2.3,1.9-5.2,1.9-8.9c0-3.6-0.6-6.5-1.8-8.7
			c-1.2-2.2-3.1-3.3-5.6-3.3c-1.5,0-2.9,0.4-4,1.3c-1.1,0.9-1.9,2-2.4,3.4c-0.5,1.4-0.8,2.7-1,3.9c-0.2,1.2-0.3,2.4-0.3,3.6
			c0,1.2,0.1,2.4,0.2,3.6c0.2,1.1,0.5,2.4,1,3.8s1.3,2.5,2.3,3.4C204.9,433.7,206.2,434.1,207.8,434.1z"/>
		<path d="M240.7,395.1v-10.7h15.4v10.7H240.7z M240.9,442v-40.2h15V442H240.9z"/>
		<path d="M264.3,429h14.9c0,1.5,0.2,2.7,0.6,3.6c0.7,1.7,2.2,2.5,4.4,2.5c1.5,0,2.7-0.4,3.4-1.2c0.7-0.8,1.1-1.8,1.1-2.8
			c0-1.3-0.5-2.2-1.4-2.8c-0.9-0.6-2.3-1.1-4.3-1.7l-8.2-2.3c-6.5-1.7-9.8-5.3-9.8-10.9c0-1.9,0.5-3.7,1.4-5.3
			c0.9-1.6,2.1-2.9,3.4-3.8c3.3-2.3,8-3.4,14.2-3.4c11.7,0,17.8,4.5,18.3,13.5h-14.2c0-1.8-0.2-3.1-0.6-3.9
			c-0.7-1.4-2.1-2.2-4.2-2.2c-1.3,0-2.3,0.3-3.2,0.9c-0.9,0.6-1.3,1.5-1.3,2.6c0,1.1,0.3,1.9,1,2.4c0.7,0.6,1.7,1,3,1.4l10.7,3
			c1.2,0.3,2.2,0.7,3.1,1.1c0.9,0.4,1.9,1,3,1.8c1.1,0.8,1.9,1.9,2.5,3.2c0.6,1.4,0.9,3,0.9,4.8c0,1.9-0.3,3.5-0.9,5
			c-0.6,1.5-1.4,2.7-2.2,3.6c-0.9,0.9-2,1.7-3.4,2.4c-1.4,0.7-2.6,1.2-3.7,1.5c-1.1,0.3-2.3,0.6-3.8,0.7c-1.4,0.2-2.4,0.3-3.1,0.3
			c-0.6,0-1.4,0-2.2,0c-2,0-3.7-0.1-5.3-0.2c-1.5-0.1-3.3-0.5-5.2-1c-1.9-0.6-3.5-1.3-4.8-2.3c-1.3-1-2.4-2.4-3.2-4.2
			C264.7,433.5,264.3,431.4,264.3,429z"/>
		<path d="M352.2,425h-28.8c0,6.5,2.6,9.8,7.7,9.8c4.2,0,6.5-1.9,6.9-5.8h14c-0.5,4.7-2.7,8.3-6.6,10.6c-3.9,2.3-8.7,3.4-14.3,3.4
			c-7,0-12.3-1.7-16-5.2c-3.7-3.5-5.5-8.5-5.5-15.1c0-7,1.8-12.4,5.3-16.3c3.5-3.9,8.9-5.8,16.1-5.8c9.5,0,15.9,3.4,19.1,10.2
			C351.4,413.6,352.2,418.3,352.2,425z M323.5,416.8H338c-0.4-5.6-2.8-8.4-7.2-8.4C326.4,408.4,324,411.2,323.5,416.8z"/>
		<path d="M387.7,442v-57.6h40.9v11.1h-25V409h23.2v11.1h-23.2V442H387.7z"/>
		<path d="M436.2,395.1v-10.7h15.4v10.7H436.2z M436.4,442v-40.2h15V442H436.4z"/>
		<path d="M462.6,442v-31.6l-0.4-8.6h15l0.2,6.2c2.8-4.7,7.3-7,13.4-7c2.8,0,5.2,0.4,7.2,1.3c2,0.9,3.5,1.8,4.4,2.9
			c0.9,1.1,1.7,2.5,2.2,4.4c0.5,1.8,0.8,3.2,0.9,4.2c0.1,1,0.1,2.3,0.1,3.9V442h-15v-23c0-1.1,0-1.9-0.1-2.6s-0.3-1.5-0.6-2.6
			c-0.3-1.1-1-1.9-1.9-2.4c-0.9-0.6-2.1-0.8-3.5-0.8c-4.5,0-6.7,2.8-6.7,8.5v23H462.6z"/>
		<path d="M555.7,442h-14.4c-0.3-1.4-0.5-3.4-0.5-5.8c-2.9,4.4-7.3,6.6-13.2,6.6c-4.7,0-8.2-1.1-10.6-3.4c-2.4-2.3-3.6-5.3-3.6-9
			c0-10.2,9.1-15,27.4-14.2c0.1-2.6-0.3-4.7-0.9-6.1c-0.7-1.5-2-2.2-4.1-2.2c-1.6,0-2.9,0.5-3.9,1.4c-1,1-1.5,2.5-1.4,4.6h-14.4
			c0.2-3.6,1.2-6.4,3.1-8.4c3.3-3.4,8.8-5,16.6-5c7.2,0,12.4,1.5,15.5,4.6c2.3,2.3,3.5,5.8,3.5,10.6v18.7
			C554.9,436.5,555.1,439,555.7,442z M540.8,423c-1.7,0-3,0-3.8,0.1c-0.9,0.1-1.9,0.2-3.3,0.4c-1.3,0.2-2.3,0.5-3,0.9
			c-0.6,0.4-1.2,0.9-1.7,1.7c-0.5,0.8-0.8,1.7-0.8,2.8c0,1.5,0.5,2.8,1.5,3.9c1,1,2.3,1.6,4,1.6c2.7,0,4.7-1.3,5.9-3.8
			C540.6,428.6,541,426.1,540.8,423z"/>
		<path d="M564.9,442v-31.6l-0.4-8.6h15l0.2,6.2c2.8-4.7,7.3-7,13.4-7c2.8,0,5.2,0.4,7.2,1.3c2,0.9,3.5,1.8,4.4,2.9
			c0.9,1.1,1.7,2.5,2.2,4.4c0.5,1.8,0.8,3.2,0.9,4.2c0.1,1,0.1,2.3,0.1,3.9V442h-15v-23c0-1.1,0-1.9-0.1-2.6s-0.3-1.5-0.6-2.6
			c-0.3-1.1-1-1.9-1.9-2.4c-0.9-0.6-2.1-0.8-3.5-0.8c-4.5,0-6.7,2.8-6.7,8.5v23H564.9z"/>
		<path d="M659,415.9h-14.9c0-4.6-1.8-6.9-5.4-6.9c-2.6,0-4.3,1.1-5.3,3.4c-1,2.2-1.5,5.3-1.5,9.3c0,4.9,0.6,8.2,1.7,10
			c1.1,1.8,2.8,2.8,4.9,2.8c3.6,0,5.4-2.7,5.4-8.2h15.2c0.1,5.1-1.8,9.1-5.5,12.1c-3.7,3-8.6,4.5-14.8,4.5c-6.7,0-12.2-1.8-16.3-5.4
			c-4.2-3.6-6.2-8.9-6.2-15.9c0-3.8,0.6-7.1,1.9-10c1.3-2.9,3-5.1,5.1-6.6c2.2-1.6,4.5-2.7,7.1-3.5c2.6-0.7,5.3-1.1,8.3-1.1
			c7.3,0,12.7,1.9,16.2,5.8C657.5,408.7,658.8,412,659,415.9z"/>
		<path d="M667.4,395.1v-10.7h15.4v10.7H667.4z M667.5,442v-40.2h15V442H667.5z"/>
		<path d="M733.4,442H719c-0.3-1.4-0.5-3.4-0.5-5.8c-2.9,4.4-7.3,6.6-13.2,6.6c-4.7,0-8.2-1.1-10.6-3.4c-2.4-2.3-3.6-5.3-3.6-9
			c0-10.2,9.1-15,27.4-14.2c0.1-2.6-0.3-4.7-0.9-6.1c-0.7-1.5-2-2.2-4.1-2.2c-1.6,0-2.9,0.5-3.9,1.4c-1,1-1.5,2.5-1.4,4.6h-14.4
			c0.2-3.6,1.2-6.4,3.1-8.4c3.3-3.4,8.8-5,16.6-5c7.2,0,12.4,1.5,15.5,4.6c2.3,2.3,3.5,5.8,3.5,10.6v18.7
			C732.6,436.5,732.9,439,733.4,442z M718.6,423c-1.7,0-3,0-3.8,0.1c-0.9,0.1-1.9,0.2-3.3,0.4c-1.3,0.2-2.3,0.5-3,0.9
			c-0.6,0.4-1.2,0.9-1.7,1.7c-0.5,0.8-0.8,1.7-0.8,2.8c0,1.5,0.5,2.8,1.5,3.9c1,1,2.3,1.6,4,1.6c2.7,0,4.7-1.3,5.9-3.8
			C718.3,428.6,718.7,426.1,718.6,423z"/>
		<path d="M743,442v-57.8h15V442H743z"/>
	</g>
</g>
</svg>
