<?xml version="1.0" encoding="utf-8"?>
<!-- Generator: Adobe Illustrator 24.1.0, SVG Export Plug-In . SVG Version: 6.00 Build 0)  -->
<svg version="1.1" xmlns="http://www.w3.org/2000/svg" xmlns:xlink="http://www.w3.org/1999/xlink" x="0px" y="0px"
	 viewBox="0 0 1706 240" style="enable-background:new 0 0 1706 240;" xml:space="preserve">
<style type="text/css">
	.st0{fill:#1D1D1B;}
	.st1{fill:#CC3648;}
	.st2{fill:#FFFFFF;}
	.st3{clip-path:url(#SVGID_1_);}
	.st4{display:none;}
	.st5{display:inline;}
</style>
<g id="Arm">
	<g>
		<path class="st0" d="M182.7,12.7c-1.9-1.9-4.3-3.3-6.8-4.1c-0.2-0.1-0.3,0.3-0.1,0.4c2.5,0.9,4.6,2.3,6.6,4
			C182.7,13.2,182.9,12.9,182.7,12.7z M165.3,42.6c-2.2,1.6-4.1,3.9-5.5,6.1c-1.3-0.4-2.5-0.8-3.8-1.1c-4.7-1.3-9.2-1.2-13.4-0.2
			c4.4-5.8,8.7-11.7,13.1-17.5c4.8-6.2,9.8-12.3,14.9-18.4c2.4-2.9,4.7-5.9,7.5-8.5c2.6-2.4,7.4-4.7,11.1-1.4c3.7,3.3,2,8.2,0,11.2
			c-2.3,3.3-5,6.4-7.6,9.5C176.2,29.1,170.7,35.8,165.3,42.6z M171.2,30.1c0.2,0.1,0.5-0.2,0.3-0.4c-1.5-1.3-3.2-2.4-4.8-3.5
			c-0.7-0.5-1.7-1.6-2.5-0.9c-0.2,0.2,0.1,0.4,0.3,0.3c0.5-0.4,3,1.8,3.5,2.2C169,28.5,170.1,29.4,171.2,30.1z M172.5,27.5
			c0.2,0.1,0.4-0.1,0.2-0.2c-1.9-2.1-4.3-3.7-6.9-4.8c-0.2-0.1-0.3,0.2-0.1,0.3C168.3,24.1,170.4,25.6,172.5,27.5z M180.7,15.9
			c0.2,0.1,0.4-0.1,0.2-0.2c-1.5-1.5-3.3-2.7-5.1-3.8c-0.2-0.1-0.3,0.1-0.1,0.3C177.5,13.3,179.1,14.5,180.7,15.9z"/>
		<path class="st0" d="M180.1,48.6c0.2,3.3-2.5,5.4-4.7,7.2c-0.8-1-1.9-1.8-3-2.5c-2.3-1.4-4.9-2.1-7.4-2.9c-1.5-0.5-2.9-1-4.4-1.4
			c1.3-1.7,2.8-3.6,4.5-5c0.2,0.1,0.3,0.1,0.5-0.1c0.2-0.2,0.4-0.5,0.6-0.7c2.1-1.5,4.6-2.3,7.6-1.2
			C176.5,42.7,179.9,45.5,180.1,48.6z M175.9,48c0.1,0.1,0.3,0,0.2-0.1c-1.4-2.3-3.6-4-6.2-4.7c-0.2,0-0.2,0.2,0,0.2
			C172.3,44.3,174.4,45.8,175.9,48z M176.9,46c0.1,0.1,0.3,0,0.2-0.2c-0.9-1-2-1.9-3.2-2.6c-0.2-0.1-0.3,0.2-0.1,0.3
			C174.9,44.1,175.9,45,176.9,46z"/>
		<path class="st0" d="M155.2,79.1c1.8-1.8,3.5-3.7,5.2-5.5c1.9-2,4-4,5.7-6.2c0,0,0,0,0-0.1c0,0,0.1,0,0.1,0
			c4.2,0.2,9-0.4,10.7-4.5c0.9-2.2,0.4-4.5-1-6.4c1.3-1,2.7-2.1,3.7-3.5c5.9-2.3,13.4,2.4,13.2,9.4c-0.1,3.6-2.7,5.9-5.2,8
			c-2.7,2.2-5.4,4.5-8.1,6.7c-5.2,4.3-10.4,8.7-15.6,13c-1.6,1.3-3.4,2.6-5.4,2.7c2.2-0.7,4.1-2,5.4-3.9c0.4-0.6,1.1-1.4,0.9-2.3
			c-0.3-1.2-2.1-2.4-2.9-3.1c-1.4-1.3-2.9-3.1-4.6-4.2c-0.4-0.3-0.7-0.5-1.2-0.5c-1.1,0.1-2.1,1.9-2.7,2.7c-0.8,1.1-1.5,2.2-2,3.5
			c0-1.1,0.2-2.2,0.5-3.3c0-0.1,0-0.2,0-0.2C153.2,80.9,154.3,80,155.2,79.1z M189.6,64c0.1,0.2,0.3,0.1,0.3-0.1
			c-1.2-3.7-3.8-6.9-7.2-8.9c-0.1-0.1-0.3,0.1-0.1,0.2C185.8,57.4,188.2,60.3,189.6,64z M190.2,59.6c0.2,0.2,0.5,0.1,0.3-0.2
			c-1.1-1.6-2.5-3-4.1-4.1c-0.2-0.1-0.4,0.2-0.2,0.3C187.8,56.8,189.1,58.1,190.2,59.6z"/>
		<path class="st0" d="M144.8,70.3c-1.5,1.3-2.8,3-3.5,4.9c0-0.7,0.2-1.3,0.7-2c2.1-3.5,4.9-6.2,7.7-9c0,0,0.1-0.1,0.1-0.1
			c5,1.8,10.2,2.9,15.3,3.3c-2.7,2.4-5.1,5.3-7.5,8c-2.3,2.4-4.6,5.8-8.1,6.6c0.8-0.6,1.5-1.3,2.1-2c0.7-0.8,2-2,2.3-3.1
			c0.5-1.9-2.7-4.4-4.1-5.4C147.8,69.8,146.6,68.8,144.8,70.3z"/>
		<path class="st1" d="M175.8,58c0.7,3.2-1.5,5.7-4.5,6.4c-2.4,0.5-7.2,0.1-8.7-2.6c-1.2-2.2-0.7-7.2,1-8.7c2.1-1.9,7.7,0.1,9.8,1.9
			c0.1,0.1,0.2,0.1,0.2,0c0.4,0.4,0.8,0.8,1.2,1.2c0.4,0.5,0.7,1,1,1.5C175.8,57.8,175.8,57.9,175.8,58z"/>
		<path class="st1" d="M152,78.2c-1.2,1.5-2.5,2.6-4,3.7c-2.3,0-4.1-1.4-5.5-3.5c-0.4-0.7-0.8-1.3-1-1.9c0.6-1.7,1.3-3.2,2.5-4.6
			c0.6-0.7,1.5-1.7,2.5-1.7c1.1,0,2.6,1.3,3.4,2c0.7,0.6,1.5,1.3,2.1,2c0.5,0.6,1.1,1.6,1.1,2.3C153.1,77.1,152.2,77.9,152,78.2z"/>
		<path class="st1" d="M162.8,89.2c-1.4,1.7-3.4,2.8-5.6,3.3c-0.2,0-0.2,0.1-0.2,0.3c-1-0.2-1.9-0.8-2.9-1.7
			c-1.5-1.4-2.2-3.1-2.4-4.9c0.9-1.9,1.9-3.6,3.3-5.1c0.2-0.2,0.6-0.8,0.9-0.9c1-0.3,1.9,0.3,2.6,1c0.9,0.8,1.7,1.6,2.6,2.4
			c0.7,0.7,1.6,1.4,2.2,2.2C164.3,87.2,163.8,88,162.8,89.2z"/>
		<path class="st2" d="M186.4,55.4c1.6,1.1,3,2.4,4.1,4.1c0.1,0.2-0.2,0.4-0.3,0.2c-1.1-1.5-2.4-2.8-3.9-3.9
			C186.1,55.5,186.2,55.2,186.4,55.4z"/>
		<path class="st2" d="M189.6,64c-1.3-3.7-3.7-6.6-7.1-8.7c-0.1-0.1,0-0.3,0.1-0.2c3.5,1.9,6.1,5.2,7.2,8.9
			C189.9,64.1,189.6,64.1,189.6,64z"/>
		<path class="st2" d="M176.9,46c-1-1-2-1.8-3.1-2.5c-0.2-0.1,0-0.4,0.1-0.3c1.2,0.7,2.2,1.6,3.2,2.6C177.2,45.9,177,46.1,176.9,46z
			"/>
		<path class="st2" d="M175.9,48c-1.5-2.2-3.5-3.7-6-4.6c-0.2-0.1-0.1-0.3,0-0.2c2.6,0.7,4.7,2.4,6.2,4.7
			C176.2,48.1,176,48.2,175.9,48z"/>
		<path class="st2" d="M149.3,54.3c0.1,0.2-0.2,0.3-0.3,0.1c-0.9-1.8-1-3.8-0.3-5.6c0.1-0.2,0.5,0,0.4,0.2
			C148.4,50.7,148.5,52.5,149.3,54.3z"/>
		<path class="st2" d="M146.6,56.3c0,0.3-0.4,0.2-0.4,0c-0.3-2-0.4-4-0.3-6c0-0.6-0.1-2.7,0.9-2.6c0.1,0,0.1,0.1,0.1,0.1l0,0.1
			c0,0.1-0.2,0.2-0.2,0c0,0-0.3,1.1-0.3,1.3c0,0.4-0.1,0.9-0.1,1.3c0,0.6,0,1.2,0,1.8C146.3,53.7,146.4,55,146.6,56.3z"/>
		<path class="st2" d="M168,27.7c-0.4-0.3-2.9-2.6-3.5-2.2c-0.2,0.1-0.4-0.1-0.3-0.3c0.7-0.7,1.8,0.4,2.5,0.9
			c1.6,1.1,3.3,2.2,4.8,3.5c0.2,0.2,0,0.5-0.3,0.4C170.1,29.4,169,28.5,168,27.7z"/>
		<path class="st2" d="M172.5,27.5c-2.1-1.9-4.2-3.4-6.7-4.7c-0.2-0.1-0.1-0.3,0.1-0.3c2.6,1,5,2.7,6.9,4.8
			C172.9,27.5,172.7,27.7,172.5,27.5z"/>
		<path class="st2" d="M175.7,12.1c-0.2-0.1,0-0.4,0.1-0.3c1.8,1,3.6,2.3,5.1,3.8c0.2,0.2-0.1,0.4-0.2,0.2
			C179.1,14.5,177.5,13.3,175.7,12.1z"/>
		<path class="st2" d="M182.5,13c-2-1.8-4.2-3.1-6.6-4c-0.2-0.1-0.2-0.4,0.1-0.4c2.5,0.8,4.9,2.2,6.8,4.1
			C182.9,12.9,182.7,13.2,182.5,13z"/>
		<g>
			<g>
				<defs>
					<path id="SVGID_3_" d="M147.1,48.1c0-0.1-0.1-0.1-0.1-0.1c-1-0.1-0.8,2.1-0.9,2.6c-0.1,2,0,4,0.3,6c0,0.3,0.5,0.3,0.4,0
						c-0.2-1.3-0.3-2.6-0.3-3.9c0-0.6,0-1.2,0-1.8c0-0.4,0-0.9,0.1-1.3c0-0.2,0.3-1.3,0.3-1.3c0.1,0.1,0.2,0.1,0.2,0L147.1,48.1z
						 M134.8,139.8c0.3,0.2,0.3-0.3,0.5-0.2c0,0,0,0,0,0c7.1-8.8,15.1-16.7,24-23.8c10.4-8.3,21.5-15.7,30.8-25.3
						c9.3-9.6,17.4-20.4,26.7-30c2.3-2.4,4.7-4.6,7.1-6.8c2.1-1.9,4.3-4,5.5-6.7c1.2-2.6,1-5.7-0.8-8.4c-2.1-3.1-5.5-3.5-8.2-1.7
						c-2.5,1.8-4.5,4.4-6.6,6.6c-2.3,2.4-4.5,4.8-6.8,7.2c-4.5,4.8-8.9,9.7-13.6,14.3c-0.9,2.7-3.1,4.6-5.2,6.3
						c-5.6,4.6-11.1,9.3-16.7,13.9c-2.7,2.3-5.4,4.7-8.2,6.8c-1.9,1.5-4.1,2.4-6.7,1.5c-4.9-1.7-6.5-7.1-5.4-11.3
						c-0.9,0.4-2,0.7-3,0.6c0,0,0,0,0,0c-0.1,0.1-0.2,0-0.3,0c-0.7,0-1.5-0.2-2.2-0.6c-1.7-0.7-3.5-2.7-4.4-4.7
						c-0.1,0-0.1-0.1-0.1-0.2c0,0,0,0,0-0.1c-0.5-1.1-0.6-2.3-0.3-3.3c0.7-2,2.3-3.9,3.7-5.5c1.5-1.8,3.2-3.5,5.2-4.8c0,0,0,0,0.1,0
						c-0.1-0.2,0.1-0.5,0.3-0.4c5.6,1.8,11.5,3.1,17.2,3.3c2.8,0.1,5.8-0.3,7.8-2.2c1.3-1.2,1.9-2.8,1.7-4.5
						c-0.3,2.6-2.2,4.5-4.7,5.2c-2.8,0.7-8.1,0.2-9.8-3c-0.9-1.6-0.7-3.5-0.5-5.1c0.2-1.7,0.6-3.8,2.1-4.8c1.3-0.8,3-0.4,4.5-0.1
						c0.4,0.1,0.8,0.2,1.2,0.3c-2.9-1.2-6.1-1.9-8.7-2.7c-0.2-0.1-0.4-0.1-0.6-0.2c0,0,0,0.1-0.1,0.1c-0.2,0.2-0.5,0-0.5-0.3
						c-4.7-1.5-9.3-2.7-14.1-1.9c-1.2,0.2-2.3,0.5-3.4,0.8c-0.2,0.3-0.4,0.5-0.6,0.8c-0.2,0.3-0.7-0.1-0.5-0.4c0,0,0,0,0,0
						c-7.6,2.5-14.1,7.9-17.4,14.9c-1.9,4.1-3.1,8.5-4.7,12.8c-1.6,4.5-3.8,8.7-6.6,12.6c-2.7,3.8-5.8,7.2-9.1,10.4
						c-1.7,1.7-3.5,3.3-5.4,4.9c-0.1,0.1-0.2,0.2-0.4,0.3c0,0.1-0.1,0.2-0.2,0.2c-0.6,0.6-1.3,1.1-2,1.7c-0.2,0.2-1.7,1.4-2.6,2
						l-41.5,37.4c-8.3,7.7-17,15-25.4,22.7c-4.2,3.8-8.4,7.7-12.6,11.6c-2.1,1.9-4.2,3.9-6.2,5.9c-2.1,1.9-4,4.1-6.2,5.9
						c-0.3,0.2-0.6,0-0.7-0.3l0,0c0,0,0,0,0,0.1c0.8,11.6,6.9,21.6,15.2,30.4c7.6,8.1,17.7,18.7,29.1,17.9c0-0.1,0-0.2,0.1-0.3
						c1.9-2.4,4.2-4.6,6.3-6.8c2.1-2.2,4.2-4.5,6.3-6.7c4.1-4.3,8.1-8.6,12.2-13c8.1-8.6,15.8-17.5,23.6-26.5L134.8,139.8z
						 M204.4,69.1c0.2,0.1,0.4,0,0.3-0.2c-1.5-2-3.8-3.5-6.1-4.4c-0.2-0.1-0.3,0.3-0.1,0.4C200.8,65.9,202.5,67.4,204.4,69.1z
						 M205.5,66.8c0.1,0.1,0.4,0,0.3-0.2c-1.4-1.8-3.3-3.2-5.2-4.4c-0.2-0.1-0.3,0.2-0.1,0.3C202.4,63.7,203.9,65.2,205.5,66.8z
						 M220.3,50.5c0.1,0.2,0.4,0.1,0.3-0.1c-1-1.9-2.5-3.4-4.3-4.6c-0.2-0.1-0.4,0.2-0.2,0.3C217.8,47.3,219.1,48.7,220.3,50.5z
						 M218.1,51.5c0.2,0.2,0.4,0,0.3-0.2c-0.9-1.3-2.2-2.3-3.6-3c-0.2-0.1-0.4,0.2-0.2,0.3C216,49.4,217,50.4,218.1,51.5z
						 M149.1,54.7c0.1,0.2,0.4,0.1,0.3-0.1c-0.7-1.8-0.9-3.6-0.3-5.3c0.1-0.2-0.3-0.4-0.4-0.2C148.1,50.8,148.2,52.8,149.1,54.7z"/>
				</defs>
				<clipPath id="SVGID_1_">
					<use xlink:href="#SVGID_3_"  style="overflow:visible;"/>
				</clipPath>
				<g class="st3">
					<g>
						<path class="st0" d="M146.3,52.4c0-0.6,0-1.2,0-1.8c0-0.4,0-0.9,0.1-1.3c0-0.2,0.3-1.3,0.3-1.3c0.1,0.1,0.2,0.1,0.2,0l0-0.1
							c0-0.1-0.1-0.1-0.1-0.1c-1-0.1-0.8,2.1-0.9,2.6c-0.1,2,0,4,0.3,6c0,0.3,0.5,0.3,0.4,0C146.4,55,146.3,53.7,146.3,52.4z"/>
						<path class="st0" d="M149.3,54.3c-0.7-1.8-0.9-3.6-0.3-5.3c0.1-0.2-0.3-0.4-0.4-0.2c-0.7,1.7-0.6,3.7,0.3,5.6
							C149,54.6,149.3,54.5,149.3,54.3z"/>
						<path class="st0" d="M140.8,48.6C140.8,48.6,140.9,48.6,140.8,48.6c-7.5,2.4-14.1,7.9-17.4,14.9c-1.9,4.1-3.1,8.5-4.7,12.8
							c-1.6,4.5-3.8,8.7-6.6,12.6c-2.7,3.8-5.8,7.2-9.1,10.4c-1.7,1.7-3.5,3.3-5.4,4.9c-0.1,0.1-0.2,0.2-0.4,0.3
							c0,0.1-0.1,0.2-0.2,0.2c-0.6,0.6-1.3,1.1-2,1.7c-0.2,0.2-1.7,1.4-2.6,2l-41.5,37.4c-8.3,7.7-17,15-25.4,22.7
							c-4.2,3.8-8.4,7.7-12.6,11.6c-2.1,1.9-4.2,3.9-6.2,5.9c-2.1,1.9-4,4.1-6.2,5.9c-0.3,0.2-0.6,0-0.7-0.3l0,0c0,0,0,0,0,0.1
							c0.8,11.6,6.9,21.6,15.2,30.4c7.6,8.1,17.7,18.7,29.1,17.9c0-0.1,0-0.2,0.1-0.3c1.9-2.4,4.2-4.6,6.3-6.8
							c2.1-2.2,4.2-4.5,6.3-6.7c4.1-4.3,8.1-8.6,12.2-13c8.1-8.6,15.8-17.5,23.9-26.3l41.9-46.9c0,0,0-0.5,0.2-0.3c0,0,0,0,0,0
							c7.1-8.8,15.1-16.7,24-23.8c10.4-8.3,21.5-15.7,30.8-25.3c9.3-9.6,17.4-20.4,26.7-30c2.3-2.4,4.7-4.6,7.1-6.8
							c2.1-1.9,4.3-4,5.5-6.7c1.2-2.6,1-5.7-0.8-8.4c-2.1-3.1-5.5-3.5-8.2-1.7c-2.5,1.8-4.5,4.4-6.6,6.6c-2.3,2.4-4.5,4.8-6.8,7.2
							c-4.5,4.8-8.9,9.7-13.6,14.3c-0.9,2.7-3.1,4.6-5.2,6.3c-5.6,4.6-11.1,9.3-16.7,13.9c-2.7,2.3-5.4,4.7-8.2,6.8
							c-1.9,1.5-4.1,2.4-6.7,1.5c-4.9-1.7-6.5-7.1-5.4-11.3c-0.9,0.4-2,0.7-3,0.6c0,0,0,0,0,0c-0.1,0.1-0.2,0-0.3,0
							c-0.7,0-1.5-0.2-2.2-0.6c-1.7-0.7-3.5-2.7-4.4-4.7c-0.1,0-0.1-0.1-0.1-0.2c0,0,0,0,0-0.1c-0.5-1.1-0.6-2.3-0.3-3.3
							c0.7-2,2.3-3.9,3.7-5.5c1.5-1.8,3.2-3.5,5.2-4.8c0,0,0,0,0.1,0c-0.1-0.2,0.1-0.5,0.3-0.4c5.6,1.8,11.5,3.1,17.2,3.3
							c2.8,0.1,5.8-0.3,7.8-2.2c1.3-1.2,1.9-2.8,1.7-4.5c-0.3,2.6-2.2,4.5-4.7,5.2c-2.8,0.7-8.1,0.2-9.8-3c-0.9-1.6-0.7-3.5-0.5-5.1
							c0.2-1.7,0.6-3.8,2.1-4.8c1.3-0.8,3-0.4,4.5-0.1c0.4,0.1,0.8,0.2,1.2,0.3c-2.9-1.2-6.1-1.9-8.7-2.7c-0.2-0.1-0.4-0.1-0.6-0.2
							c0,0,0,0.1-0.1,0.1c-0.2,0.2-0.5,0-0.5-0.3c-4.7-1.5-9.3-2.7-14.1-1.9c-1.2,0.2-2.3,0.5-3.4,0.8L140.8,48.6z M146.2,56.3
							c-0.3-2-0.4-4-0.3-6c0-0.6-0.1-2.7,0.9-2.6c0.1,0,0.1,0.1,0.1,0.1l0,0.1c0,0.1-0.2,0.2-0.2,0c0,0-0.3,1.1-0.3,1.3
							c0,0.4-0.1,0.9-0.1,1.3c0,0.6,0,1.2,0,1.8c0,1.3,0.1,2.6,0.3,3.9C146.6,56.6,146.2,56.6,146.2,56.3z M148.9,54.4
							c-0.9-1.8-1-3.8-0.3-5.6c0.1-0.2,0.5,0,0.4,0.2c-0.6,1.7-0.4,3.5,0.3,5.3C149.3,54.5,149,54.6,148.9,54.4z M216,45.6
							c1.8,1.1,3.4,2.6,4.3,4.6c0.1,0.2-0.2,0.3-0.3,0.1c-1.1-1.8-2.5-3.2-4.2-4.4C215.6,45.8,215.8,45.4,216,45.6z M217.9,51.3
							c-1.1-1.1-2.1-2.1-3.5-2.9c-0.2-0.1-0.1-0.4,0.2-0.3c1.4,0.7,2.7,1.7,3.6,3C218.3,51.3,218.1,51.5,217.9,51.3z M200.3,62
							c1.9,1.1,3.8,2.6,5.2,4.4c0.1,0.2-0.1,0.3-0.3,0.2c-1.6-1.6-3.2-3.1-5.1-4.3C200,62.1,200.2,61.9,200.3,62z M204.1,68.9
							c-1.9-1.7-3.6-3.2-5.9-4.2c-0.2-0.1-0.2-0.5,0.1-0.4c2.3,0.9,4.6,2.4,6.1,4.4C204.6,68.9,204.3,69,204.1,68.9z"/>
					</g>
					<g class="st4">
						<g class="st5">
							<g>
								<path class="st1" d="M146.7,147.3c-0.2-1.3-2.3-6.5-3.7-3.3c-0.6,1.4,0,3.3,0.6,4.6c0.6,1.4,1.4,3.2,2.9,3.7
									c0.7,0.2,0.9-0.8,0.3-1c-1.9-0.6-2.8-4.3-2.9-6c0-0.2,0.2-1.2,0.3-1.2c0.3,0.2,0.5,0.7,0.7,1c0.4,0.8,0.7,1.6,0.8,2.5
									C145.8,148.2,146.8,147.9,146.7,147.3L146.7,147.3z"/>
							</g>
							<g>
								<path class="st1" d="M144.8,149c0.5-0.1,1-0.4,1.5-0.7c0.4-0.3,0.9-0.7,1.3-0.9c0.6-0.2,0.4-1.3-0.3-1
									c-1,0.4-1.8,1.3-2.8,1.5C143.9,148.1,144.1,149.2,144.8,149L144.8,149z"/>
							</g>
							<g>
								<path class="st1" d="M146.8,146.9c0.3,0.8,1,4.4-0.6,4.3c-0.7,0-0.7,1,0,1.1c2.7,0.1,2.1-4.1,1.6-5.7
									C147.6,145.9,146.6,146.2,146.8,146.9L146.8,146.9z"/>
							</g>
							<g>
								<path class="st1" d="M143.5,145.9c0.9,0.5,1.5,1.1,2,2c0.4,0.6,1.3,0.1,0.9-0.5c-0.6-1-1.4-1.8-2.4-2.4
									C143.5,144.6,142.9,145.5,143.5,145.9L143.5,145.9z"/>
							</g>
							<g>
								<path class="st1" d="M144.5,142.9c-0.1-1.1,0.3-1.6,1.4-1.3c0.3,0.3,0.4,0.7,0.6,1c0.4,0.8,0.5,1.1,1.1,1.7
									c0.7,0.7,1.3,1.5,1.4,2.5c0,0.6,0.1,2.9-1.1,2.4c-0.6-0.2-0.9,0.8-0.3,1c1.4,0.5,2.1-0.7,2.4-1.9c0.4-2-0.3-3.4-1.6-4.8
									c-0.9-1-1.1-2.8-2.6-3.3c-1.6-0.5-2.4,1.7-2.2,2.9C143.6,143.8,144.6,143.6,144.5,142.9L144.5,142.9z"/>
							</g>
							<g>
								<path class="st1" d="M144.4,142.2c-1-1.1-1.5-2.6-2.7-3.4c-0.8-0.5-2.3-1-3,0c-0.6,0.9-0.4,3.5-1.3,3.8
									c-1.4,0.5-1.5,1.6-1.1,2.8c0.2,0.6,0.6,1.2,0.9,1.7c0.7,1,0.9,2.1,1.2,3.2c0.3,1.3,1,3.1,2.2,3.9c1.2,0.9,2.6,0.9,4,0.4
									c1.3-0.4,1.6-2.2,1.8-3.4c0.1-0.7-1-0.7-1.1,0c-0.2,1.7-0.9,2.6-2.6,2.6c-1.6,0-2.1-1.5-2.7-2.7c-0.6-1.2-0.8-2.6-1.3-3.8
									c-0.4-1.1-1.4-1.8-1.5-3.1c-0.1-0.9,1.2-0.7,1.6-1.3c0.4-0.7,0.4-1.7,0.6-2.4c0.1-0.3,0.1-0.6,0.2-1
									c0.8-0.4,1.4-0.4,1.9,0.2c0.3,0.3,0.5,0.6,0.8,0.9c0.5,0.7,1,1.5,1.6,2.1C144.1,143.5,144.8,142.7,144.4,142.2L144.4,142.2z
									"/>
							</g>
							<g>
								<path class="st1" d="M143,155c1,1.2,2,3.4,3.9,3.4c1.5,0,1.4-1.6,2.4-2.3c1-0.7,2.1-0.6,2.3-2c0.3-1.9-0.8-3.7-1.8-5.2
									c-0.4-0.6-1.3,0-0.9,0.5c0.8,1.3,1.6,2.6,1.7,4.2c0.1,1.1-1.4,1.3-2.2,1.9c-0.5,0.4-0.8,1.1-1.1,1.7
									c-0.6,1.2-3.1-2.4-3.5-2.9C143.3,153.7,142.5,154.5,143,155L143,155z"/>
							</g>
							<g>
								<path class="st1" d="M145.7,139.7c-1.4-0.5-2.6-1.5-4.2-0.9c-0.6,0.2-0.4,1.3,0.3,1c1.3-0.5,2.4,0.4,3.7,0.9
									C146.1,140.9,146.3,139.9,145.7,139.7L145.7,139.7z"/>
							</g>
							<g>
								<path class="st1" d="M144.1,138.5c-0.3-2.6-3.5-6.9-6.6-5.6c-1,0.4-1.8,1.6-2.6,2.3c-1,0.9-2.1,1.4-2.3,2.9
									c-0.1,0.8,0.1,1.6,0.8,2c1.5,1,2,2,2.7,3.6c0.3,0.6,1.2,0.1,0.9-0.5c-0.5-1.2-0.9-2.6-2.1-3.3c-0.2-0.2-0.5-0.3-0.7-0.4
									c-1.8-1.1,0-2.3,0.6-2.8c0.9-0.7,1.7-1.3,2.4-2.2c2.2-2.7,5.5,2.5,5.8,4.4C143.1,139.5,144.2,139.2,144.1,138.5L144.1,138.5
									z"/>
							</g>
							<g>
								<path class="st1" d="M135.8,141.5c-1.8-0.9-3.3,0.5-3.9,2.2c-0.3,0.8,0.1,1.7,0.5,2.3c0.8,1.5,1.7,2.3,1.9,4.2
									c0.2,2.7,2.4,5.4,4.5,6.9c2,1.4,4.2,0.6,5.7-1.1c0.5-0.5-0.3-1.3-0.8-0.8c-1.5,1.6-3.2,1.9-4.9,0.5
									c-1.6-1.3-3.3-3.5-3.5-5.5c-0.1-1.4-0.3-2.5-1.2-3.6c-0.5-0.6-1-1.2-1.2-2c-0.3-1.1,1.1-2.9,2.3-2.3
									C135.9,142.7,136.4,141.8,135.8,141.5L135.8,141.5z"/>
							</g>
							<g>
								<path class="st1" d="M144.3,136.4c0-0.1-0.1-0.2-0.1-0.3c0,0.2-0.1,0.4-0.1,0.6c1.1-1.2,2.7,2.6,3,3c0.8,1.1,1.8,2,2.7,2.9
									c1.9,2,3.2,6.5,0.8,8.6c-0.5,0.5,0.2,1.2,0.8,0.8c2.5-2.2,1.8-6.9-0.1-9.3c-0.7-0.9-1.5-1.7-2.3-2.5
									c-1.1-1.1-1.7-2.3-2.4-3.6c-0.6-1.1-2.3-1.7-3.3-0.7c-0.2,0.2-0.2,0.4-0.1,0.6c0,0.1,0.1,0.2,0.1,0.3
									C143.6,137.6,144.6,137.1,144.3,136.4L144.3,136.4z"/>
							</g>
							<g>
								<path class="st1" d="M140.2,159.6c1.7-0.7,3.5-1.9,5.4-1.6c0.7,0.1,1-0.9,0.3-1c-2.3-0.4-4.2,0.9-6.2,1.7
									C139.1,158.9,139.6,159.8,140.2,159.6L140.2,159.6z"/>
							</g>
						</g>
						<g class="st5">
							<g>
								<g>
									<path class="st1" d="M111,142.2c0.2-1.3-0.7-3.6,1.2-3.8c1.4-0.1,3.1-0.1,4.4,0.4c0-0.3-0.1-0.6-0.1-0.8
										c-2,2.6-2.7,6.6-5.5,8.5c-1.7,1.1-4.2,0.6-4.7-1.5c-0.8-2.9,3.1-3.6,4.8-4.6c0.6-0.4,0.1-1.3-0.5-0.9
										c-2.2,1.3-4.8,1.6-5.4,4.5c-0.3,1.8,0.8,3.4,2.4,4c2.1,0.8,4.3-0.5,5.5-2c1.8-2.1,2.5-4.9,4.1-7.1c0.2-0.2,0.2-0.7-0.1-0.8
										c-1.7-0.7-3.9-0.8-5.7-0.5c-2.1,0.3-1.2,3.3-1.4,4.7C109.9,142.9,111,142.9,111,142.2L111,142.2z"/>
								</g>
								<g>
									<path class="st1" d="M109.9,142.9c1,0.9,2.2,1.3,3.4,1.9c0.6,0.3,1.2-0.6,0.5-0.9c-1.1-0.5-2.3-0.9-3.2-1.7
										C110.1,141.6,109.4,142.4,109.9,142.9L109.9,142.9z"/>
								</g>
								<g>
									<path class="st1" d="M110.5,143.5c0,0,1.3-0.3,0.8-0.8S110,143,110.5,143.5C110.5,143.5,110,143,110.5,143.5z"/>
								</g>
								<g>
									<path class="st1" d="M110.9,143.1c0,0-2.4,2.5-2.7,4.3c-0.1,0.7,0.9,0.9,1.1,0.3c0.3-1.6,1.1-2.6,2.4-3.8
										C112.2,143.3,111.5,142.6,110.9,143.1C110.9,143.1,111.5,142.6,110.9,143.1z"/>
								</g>
								<g>
									<path class="st1" d="M106.8,142.2c0.6,1.2,1.4,3.2,3,3.3c0.7,0.1,0.7-1,0-1.1c-0.5,0-1-0.8-1.2-1.2c-0.3-0.5-0.6-1-0.8-1.5
										C107.4,141.1,106.5,141.6,106.8,142.2L106.8,142.2z"/>
								</g>
								<g>
									<path class="st1" d="M115.9,138.1c0.8-0.9,1.2-2.1,2-3c1.3-1.5,3.5-1.2,5.1-0.4c1.7,0.8,2.4,1.8,2.1,3.7
										c-0.2,1.4-0.4,2.8-0.7,4.2c-0.7,3.8-4,5.3-7.1,6.8c-2.3,1.1-8.1,4.2-7.1-1.1c0.1-0.7-0.9-1-1-0.3c-0.3,1.3-0.5,3.2,0.9,4
										c1.4,0.8,3,0.4,4.5-0.1c2-0.7,3.9-1.9,5.8-2.8c2.2-1.1,3.8-2.7,4.7-5c0.7-1.8,0.9-4.2,1.1-6.1c0.2-1.7-0.3-2.8-1.8-3.7
										c-1.6-0.9-3-1.5-4.9-1.2c-2.4,0.4-2.9,2.7-4.3,4.3C114.7,137.8,115.5,138.6,115.9,138.1L115.9,138.1z"/>
								</g>
								<g>
									<path class="st1" d="M119.1,134c-0.4-1.4-0.8-3.6-2.6-3.9c-1.4-0.2-2.4,1.2-3.5,1.9c-1.9,1.1-4,0.9-5.1,3
										c-0.9,1.9-1.1,4-0.8,6c0.1,0.7,1.1,0.4,1-0.3c-0.3-1.7,0-3.2,0.5-4.8c0.7-2.1,2.4-1.9,4-2.7c0.9-0.5,1.6-1,2.4-1.6
										c1.8-1.5,2.5,1.2,2.9,2.6C118.3,135,119.3,134.7,119.1,134L119.1,134z"/>
								</g>
								<g>
									<path class="st1" d="M109.9,151.2c-1.1,1-2.8,1.9-4,0.4c-0.4-0.6-0.5-1.9-1.2-2.3c-1.2-0.6-2.6-0.8-3.7-1.7
										c-0.8-0.7-1.2-1.9-1.4-2.8c-0.9-4.2,4.1-7.2,7.7-6.7c0.7,0.1,1-0.9,0.3-1c-4.3-0.7-9.8,2.7-9.1,7.6
										c0.2,1.2,0.7,2.4,1.5,3.3c1.4,1.6,3.9,1.3,4.8,3.5c1.1,2.8,4.2,1.9,5.9,0.3C111.1,151.5,110.4,150.7,109.9,151.2
										L109.9,151.2z"/>
								</g>
								<g>
									<path class="st1" d="M107.2,153.1c0,2,0.5,5.6,3.1,5.9c2.4,0.3,3.6-2.3,5.6-3c1.5-0.5,3.4,0.3,5,0c1.6-0.3,2.7-1.1,3.6-2.5
										c1-1.3,1.9-3,2.2-4.6c0.3-1.6-1.1-2.7-1-4.2c0.1-0.7-1-0.7-1.1,0c-0.1,1,0.3,1.8,0.8,2.7c0.7,1.6-0.5,3.3-1.2,4.6
										c-0.9,1.7-2.4,2.9-4.4,3c-1.2,0.1-2.4-0.3-3.7-0.2c-1.6,0.1-2.8,1.6-4,2.5c-2.9,2-3.8-2.1-3.9-4.3
										C108.3,152.4,107.2,152.4,107.2,153.1L107.2,153.1z"/>
								</g>
								<g>
									<path class="st1" d="M125.4,144.7c3.5-2.6,10.8-8.7,5.9-13.3c-1.4-1.3-3.3-2-5.2-2.3c-1.3-0.2-2.5-0.3-3.7-1
										c-1.2-0.8-2.4-1.7-3.6-2.4c-1.8-1.1-3.9-0.8-5.4,0.6c-1.6,1.4-1.8,4-2.2,6c-0.1,0.7,0.9,1,1,0.3c0.3-1.9,0.5-4,1.9-5.5
										c2.1-2.4,4.9,0.2,6.7,1.4c3.1,2.1,7.1,1.4,9.9,4c4,3.7-3.2,9.4-5.9,11.4C124.4,144.2,124.9,145.1,125.4,144.7L125.4,144.7z
										"/>
								</g>
								<g>
									<path class="st1" d="M112,130.4c-3.2-1.4-6-2-8.5,0.8c-0.8,0.9-0.7,1.8-1.8,2.7c-0.9,0.6-1.5,1-1.9,2
										c-0.7,1.5-0.6,3.2,0.5,4.4c0.4,0.5,1.2-0.2,0.8-0.8c-1.4-1.7-0.3-3.7,1.3-4.7c1.1-0.7,1.4-1.4,1.9-2.6
										c0.6-1.4,2.4-2.1,3.8-2.1c1.2,0,2.5,0.7,3.6,1.2C112.1,131.6,112.7,130.7,112,130.4L112,130.4z"/>
								</g>
								<g>
									<path class="st1" d="M131.1,140c3.8-0.6,1,3.3,0.3,4.5c-0.5,0.9-0.3,1.9,0,2.8c0.8,3.4-2.1,6.4-4.6,8.2c-2,1.4-4,2.8-6,4.2
										c-1,0.7-2.3,0.2-3.2-0.4c-1.1-0.6-3.5-0.8-4-2c-0.2-0.6-1.3-0.4-1,0.3c0.5,1.2,1.8,1.7,2.9,2.1c1.4,0.5,3,1.6,4.6,1.4
										c1.1-0.1,2-1.1,2.8-1.7c1.7-1.4,3.7-2.3,5.4-3.7c1.5-1.2,2.8-2.5,3.6-4.3c0.9-2,0.5-3.6,0.3-5.6c-0.1-1.3,1.3-2.1,1.6-3.1
										c0.3-0.8,0.4-1.5,0.1-2.3c-0.4-1.4-2-1.6-3.2-1.4C130.2,139.1,130.4,140.1,131.1,140L131.1,140z"/>
								</g>
								<g>
									<path class="st1" d="M98.5,143.4c-1,1-2.8,2.1-2.6,3.7c0.1,0.9,0.6,1.6,1.3,2.2c0.9,0.8,1.6,0.8,2.1,2.2
										c0.2,0.6,0.4,1.3,0.6,2c1.4,4.6,6.3,5.9,10.5,5.2c0.7-0.1,0.4-1.1-0.3-1c-4,0.6-8-0.6-9.3-4.8c-0.5-1.6-0.7-2.7-2-3.7
										c-1.2-0.8-2.4-1.9-1.3-3.3c0.5-0.6,1.2-1.1,1.8-1.7C99.8,143.7,99,142.9,98.5,143.4L98.5,143.4z"/>
								</g>
							</g>
							<g>
								<path class="st1" d="M129.8,154.1c4.1,1.2,7.2,2.6,10.1,5.7c2.9,3.1,5,6.9,5.7,11.1c0.1,0.7,1.2,0.4,1-0.3
									c-0.8-4.4-3-8.2-6-11.6c-2.9-3.3-6.4-4.8-10.6-6C129.4,152.9,129.2,153.9,129.8,154.1L129.8,154.1z"/>
							</g>
							<g>
								<path class="st1" d="M123.1,158.5c1.7,5,5,10,10.2,12c4,1.5,9.4,2.6,13.4,0.5c0.6-0.3,0.1-1.3-0.5-0.9
									c-3.6,1.9-8.5,0.8-12.1-0.4c-5-1.7-8.2-6.6-9.9-11.4C123.9,157.6,122.9,157.9,123.1,158.5L123.1,158.5z"/>
							</g>
							<g>
								<path class="st1" d="M127.2,156.5c1,2.9,4.4,4.5,6.8,6.2c1.7,1.2,3.3,2.3,5.1,3.3c2.2,1.2,4.3,2.5,6,4.4
									c0.5,0.5,1.2-0.2,0.8-0.8c-1.2-1.4-2.6-2.4-4.1-3.3c-1.8-1.2-4.2-2-5.7-3.5c-2.3-2.2-6.6-3.4-7.7-6.6
									C128,155.6,127,155.9,127.2,156.5L127.2,156.5z"/>
							</g>
							<g>
								<path class="st1" d="M140.8,162.1c0.2,1.8,0,3.5,0.3,5.3c0.1,0.7,1.1,0.4,1-0.3c-0.2-1.8,0-3.5-0.3-5.3
									C141.8,161.1,140.7,161.4,140.8,162.1L140.8,162.1z"/>
							</g>
							<g>
								<path class="st1" d="M138,158.2c0.2,2.4-0.2,4.7,0,7.1c0.1,0.7,1.1,0.7,1.1,0c-0.2-2.4,0.2-4.7,0-7.1
									C139,157.5,138,157.5,138,158.2L138,158.2z"/>
							</g>
							<g>
								<path class="st1" d="M134.5,156.1c0,2.1-0.1,4.2-0.7,6.2c-0.2,0.7,0.8,0.9,1,0.3c0.6-2.1,0.8-4.3,0.8-6.5
									C135.6,155.4,134.5,155.4,134.5,156.1L134.5,156.1z"/>
							</g>
							<g>
								<path class="st1" d="M131.2,154.2c-0.3,1.9-0.7,3.7-1,5.6c-0.1,0.7,0.9,1,1,0.3c0.3-1.9,0.7-3.7,1-5.6
									C132.4,153.8,131.3,153.5,131.2,154.2L131.2,154.2z"/>
							</g>
							<g>
								<path class="st1" d="M130.4,159c-1.2,1.1-3.1,1.2-4.3,2.3c-0.5,0.5,0.2,1.2,0.8,0.8c0.6-0.5,1.4-0.7,2.1-1
									c0.8-0.3,1.5-0.7,2.2-1.3C131.6,159.3,130.9,158.6,130.4,159L130.4,159z"/>
							</g>
							<g>
								<path class="st1" d="M134,162c-2,0.8-4,1.6-5.8,2.8c-0.6,0.4,0,1.3,0.5,0.9c1.8-1.2,3.8-1.9,5.8-2.8
									C135.2,162.7,134.6,161.7,134,162L134,162z"/>
							</g>
							<g>
								<path class="st1" d="M137.4,164.6c-1.8,1.7-4.1,2.6-6.2,3.7c-0.6,0.3-0.1,1.2,0.5,0.9c2.2-1.1,4.6-2.1,6.4-3.9
									C138.7,164.9,137.9,164.1,137.4,164.6L137.4,164.6z"/>
							</g>
							<g>
								<path class="st1" d="M140.7,166.9c-1.3,1.7-3.3,2.4-4.8,3.8c-0.5,0.5,0.3,1.2,0.8,0.8c1.5-1.4,3.5-2.1,4.8-3.8
									C141.9,167.1,141.1,166.3,140.7,166.9L140.7,166.9z"/>
							</g>
							<g>
								<path class="st1" d="M108.5,158.1c-0.9,2-2,4-2.5,6.1c-0.6,2.1-0.5,4.5-0.2,6.6c0.5,4.4,2.4,8.5,4.5,12.3
									c0.3,0.6,1.3,0.1,0.9-0.5c-1.9-3.4-3.6-6.9-4.3-10.8c-0.4-2.2-0.4-4.6-0.1-6.8c0.4-2.3,1.6-4.4,2.6-6.4
									C109.7,158.1,108.8,157.5,108.5,158.1L108.5,158.1z"/>
							</g>
							<g>
								<path class="st1" d="M123.6,161.6c0.7,2.1-0.3,4.2-1.2,6.1c-0.8,1.7-1.7,3.6-2.8,5.2c-1.2,1.8-2.5,3.6-3.9,5.4
									c-1.4,1.7-3.2,3.7-5.4,4.5c-0.7,0.2-0.4,1.3,0.3,1c4.5-1.5,7.5-6.6,10-10.3c1.2-1.8,2.2-4,3.1-6c0.8-1.9,1.6-4,0.9-6.1
									C124.5,160.7,123.4,160.9,123.6,161.6L123.6,161.6z"/>
							</g>
							<g>
								<path class="st1" d="M116.6,160.3c-1.4,7.5-5.2,14.5-5.8,22.1c-0.1,0.7,1,0.7,1.1,0c0.6-7.6,4.4-14.4,5.8-21.9
									C117.7,159.9,116.7,159.6,116.6,160.3L116.6,160.3z"/>
							</g>
							<g>
								<path class="st1" d="M117.2,160.8c2.3,1.9,3.8,4.7,5,7.5c0.3,0.6,1.2,0.1,0.9-0.5c-1.2-2.8-2.7-5.8-5.1-7.7
									C117.4,159.6,116.7,160.4,117.2,160.8L117.2,160.8z"/>
							</g>
							<g>
								<path class="st1" d="M116.1,164.1c0.4,2.9,3.8,4.6,4,7.4c0,0.7,1.1,0.7,1.1,0c-0.2-3.1-3.6-4.7-4.1-7.7
									C117,163.2,116,163.4,116.1,164.1L116.1,164.1z"/>
							</g>
							<g>
								<path class="st1" d="M113.8,169.9c0.4,2.5,2.2,4.3,3,6.6c0.2,0.6,1.3,0.4,1-0.3c-0.8-2.3-2.7-4.1-3-6.6
									C114.7,169,113.7,169.2,113.8,169.9L113.8,169.9z"/>
							</g>
							<g>
								<path class="st1" d="M111.9,177.4c0,0,1.5,1.5,2.5,2.5c0.5,0.5,1.3-0.3,0.8-0.8c-1-1-1.8-1.8-2.5-2.5
									C112.2,176.1,111.4,176.9,111.9,177.4C111.9,177.4,111.4,176.9,111.9,177.4z"/>
							</g>
							<g>
								<path class="st1" d="M111.6,176.2c-0.8,0.8-2,1.8-3.2,1.9c-0.7,0-0.7,1.1,0,1.1c1.5-0.1,2.9-1.2,3.9-2.2
									C112.9,176.5,112.1,175.8,111.6,176.2L111.6,176.2z"/>
							</g>
							<g>
								<path class="st1" d="M114.4,170c-2.8,0.4-5.4,2.1-8,3.3c-0.6,0.3-0.1,1.2,0.5,0.9c2.4-1.2,5-2.8,7.7-3.2
									C115.4,171,115.1,169.9,114.4,170L114.4,170z"/>
							</g>
							<g>
								<path class="st1" d="M116.2,163.7c-3.3,1.2-6.9,1.5-10.4,2.3c-0.7,0.1-0.4,1.2,0.3,1c3.5-0.8,7-1.1,10.4-2.3
									C117.1,164.5,116.8,163.5,116.2,163.7L116.2,163.7z"/>
							</g>
							<g>
								<path class="st1" d="M107.7,161.7c3.4-0.1,6.6-1.7,10-1c0.7,0.1,1-0.9,0.3-1c-3.5-0.7-6.8,0.9-10.2,1
									C107,160.7,107,161.7,107.7,161.7L107.7,161.7z"/>
							</g>
							<g>
								<path class="st1" d="M108,129.5c-0.5-2.4-2.7-4.6-4.5-6.1c-1-0.8-2-1.5-3-2.2c-0.7-0.5-2.4-1.4-2.6-2.4
									c-0.1-0.7-1.2-0.4-1,0.3c0.3,1.7,3.3,3.1,4.5,4c2.2,1.6,5,3.9,5.6,6.6C107.1,130.4,108.1,130.1,108,129.5L108,129.5z"/>
							</g>
							<g>
								<path class="st1" d="M96.6,119c-1.2,2.2-1.4,5.7-1,8.1c0.5,3.2,2.3,5.8,5,7.6c0.6,0.4,1.1-0.5,0.5-0.9
									c-2.6-1.7-4.2-4.3-4.5-7.4c-0.2-2.1-0.1-5,0.9-6.8C97.9,118.9,97,118.4,96.6,119L96.6,119z"/>
							</g>
							<g>
								<path class="st1" d="M107,127.1c0-2.4,0.6-4.8,2-6.8c0.4-0.6-0.5-1.1-0.9-0.5c-1.5,2.1-2,4.8-2.1,7.3
									C105.9,127.8,107,127.8,107,127.1L107,127.1z"/>
							</g>
							<g>
								<path class="st1" d="M108.1,119.9c2.6,2.3,3.1,5.9,2.9,9.2c0,0.7,1,0.7,1.1,0c0.2-3.6-0.3-7.5-3.2-10
									C108.4,118.7,107.6,119.4,108.1,119.9L108.1,119.9z"/>
							</g>
							<g>
								<path class="st1" d="M100,139.7c-6.6-1.8-14.3-2.9-20.6,0.6c-0.6,0.3-0.1,1.3,0.5,0.9c6-3.3,13.5-2.2,19.8-0.5
									C100.4,140.9,100.7,139.9,100,139.7L100,139.7z"/>
							</g>
							<g>
								<path class="st1" d="M78.6,141.2c-0.3,2.1,1.2,3.9,2.6,5.3c1.7,1.8,3.4,3.4,5.5,4.7c4.2,2.6,9.3,2.7,13.9,1.1
									c0.7-0.2,0.4-1.3-0.3-1c-4.3,1.5-8.6,1.3-12.7-0.8c-1.8-1-3.2-2.3-4.7-3.8c-1.5-1.5-3.5-3.3-3.2-5.6
									C79.8,140.5,78.7,140.5,78.6,141.2L78.6,141.2z"/>
							</g>
							<g>
								<path class="st1" d="M111.4,129.5c-0.2,0.2-0.3,0.4-0.3,0.7c0,0.1,0,0.1,0,0.2c0,0.1,0-0.1,0,0c0,0,0,0,0-0.1c0,0,0,0,0,0
									c-0.2,0.2-0.2,0.5,0,0.8c0.2,0.2,0.6,0.2,0.8,0c0.2-0.2,0.3-0.4,0.3-0.7c0-0.1,0-0.1,0-0.2c0-0.1,0,0.1,0,0c0,0,0,0,0,0.1
									c0,0,0,0,0,0c0.2-0.2,0.2-0.5,0-0.8C112,129.3,111.6,129.3,111.4,129.5L111.4,129.5z"/>
							</g>
							<g>
								<path class="st1" d="M97.1,151.9c-2.9,1.3-5.6,2.7-7.9,4.9c-0.5,0.5,0.3,1.2,0.8,0.8c2.2-2.1,4.9-3.4,7.7-4.7
									C98.3,152.5,97.7,151.6,97.1,151.9L97.1,151.9z"/>
							</g>
							<g>
								<path class="st1" d="M89.6,157.4c1.4,1.8,4.1,1.7,6.1,1.4c2.1-0.3,5.2-0.8,6.6-2.6c0.4-0.5-0.3-1.3-0.8-0.8
									c-1.1,1.3-3.3,1.7-4.9,2.1c-1.6,0.4-4.9,0.9-6.1-0.7C90.1,156.3,89.2,156.9,89.6,157.4L89.6,157.4z"/>
							</g>
							<g>
								<path class="st1" d="M108.2,119.9c0.7,3.5-0.4,7.1,0.5,10.6c0.2,0.7,1.2,0.4,1-0.3c-0.9-3.5,0.2-7.1-0.5-10.6
									C109.1,118.9,108.1,119.2,108.2,119.9L108.2,119.9z"/>
							</g>
							<g>
								<path class="st1" d="M97.1,120.4c0.6,4.6,3.5,8.2,6.7,11.4c0.5,0.5,1.2-0.3,0.8-0.8c-3.1-3.1-5.8-6.4-6.4-10.9
									C98,119.4,97,119.7,97.1,120.4L97.1,120.4z"/>
							</g>
							<g>
								<path class="st1" d="M79.3,141.6c4.5,4.8,11.8,3.5,17.3,6.2c0.6,0.3,1.2-0.6,0.5-0.9c-5.4-2.6-12.7-1.4-17.1-6
									C79.6,140.3,78.8,141.1,79.3,141.6L79.3,141.6z"/>
							</g>
							<g>
								<path class="st1" d="M89.9,157.7c4.1,0.7,7.2-3.4,11.3-3c0.7,0.1,0.7-1,0-1.1c-3.9-0.4-7.1,3.7-11,3.1
									C89.5,156.5,89.2,157.5,89.9,157.7L89.9,157.7z"/>
							</g>
							<g>
								<path class="st1" d="M92.2,155.5c0.7,0.7,1.6,0.9,2.5,0.6c0.7-0.2,0.4-1.2-0.3-1c-0.6,0.2-1.1,0-1.5-0.4
									C92.4,154.3,91.7,155,92.2,155.5L92.2,155.5z"/>
							</g>
							<g>
								<path class="st1" d="M95,154.1c0.8,0.3,1.5,0.5,2.3,0.8c0.7,0.2,0.9-0.8,0.3-1c-0.8-0.3-1.5-0.5-2.3-0.8
									C94.6,152.9,94.3,153.9,95,154.1L95,154.1z"/>
							</g>
							<g>
								<path class="st1" d="M97.1,154.5c-0.2,1.2-0.3,2.4-0.5,3.5c-0.1,0.7,0.9,1,1,0.3c0.2-1.2,0.3-2.4,0.5-3.5
									C98.3,154.1,97.2,153.8,97.1,154.5L97.1,154.5z"/>
							</g>
							<g>
								<path class="st1" d="M94.7,156.3c-0.7,0.7-0.9,1.6-0.6,2.5c0.2,0.7,1.2,0.4,1-0.3c-0.2-0.6,0-1.1,0.4-1.5
									C95.9,156.5,95.2,155.8,94.7,156.3L94.7,156.3z"/>
							</g>
							<g>
								<path class="st1" d="M106,124.3c0.6,1,1.5,1.6,2.4,2.4c0.5,0.5,1.3-0.3,0.8-0.8c-0.7-0.7-1.7-1.2-2.2-2.2
									C106.6,123.2,105.7,123.7,106,124.3L106,124.3z"/>
							</g>
							<g>
								<path class="st1" d="M109.1,126.7c0.8-0.7,1.7-1.3,2.5-2c0.5-0.5-0.3-1.2-0.8-0.8c-0.8,0.7-1.7,1.3-2.5,2
									C107.9,126.4,108.6,127.2,109.1,126.7L109.1,126.7z"/>
							</g>
							<g>
								<path class="st1" d="M109.4,129.9c0,0,1.5-1.5,2.3-2.3c0.5-0.5-0.3-1.3-0.8-0.8c-0.8,0.8-1.5,1.5-2.3,2.3
									C108.1,129.6,108.9,130.4,109.4,129.9C109.4,129.9,108.9,130.4,109.4,129.9z"/>
							</g>
							<g>
								<path class="st1" d="M100.6,122.8c0,1.3-1,2.4-1.2,3.7c-0.2,0.7,0.9,0.9,1,0.3c0.3-1.4,1.2-2.5,1.3-3.9
									C101.7,122.1,100.6,122.1,100.6,122.8L100.6,122.8z"/>
							</g>
							<g>
								<path class="st1" d="M95.7,125.7c1.1,1.1,2.5,1.6,4,1.9c0.7,0.1,1-0.9,0.3-1c-1.3-0.3-2.6-0.7-3.5-1.6
									C96,124.5,95.2,125.2,95.7,125.7L95.7,125.7z"/>
							</g>
							<g>
								<path class="st1" d="M103.2,124.7c-0.3,1.8-1.3,3.3-2,4.9c-0.3,0.6,0.7,1.2,0.9,0.5c0.8-1.7,1.8-3.3,2.1-5.2
									C104.3,124.3,103.3,124,103.2,124.7L103.2,124.7z"/>
							</g>
							<g>
								<path class="st1" d="M97.6,131.1c0.7-0.3,1.6-0.3,2.4-0.4c0.8-0.1,1.5-0.2,2.2-0.6c0.6-0.3,0.1-1.3-0.5-0.9
									c-1.4,0.8-3.1,0.4-4.5,1C96.5,130.4,97,131.4,97.6,131.1L97.6,131.1z"/>
							</g>
							<g>
								<path class="st1" d="M105.4,126.9c-0.5,1.4-1.1,2.7-1.5,4c-0.2,0.7,0.8,0.9,1,0.3c0.5-1.4,1.1-2.7,1.5-4
									C106.7,126.6,105.7,126.3,105.4,126.9L105.4,126.9z"/>
							</g>
							<g>
								<path class="st1" d="M99.9,133.7c1.3,0,2.6-0.5,3.8-1.1c0.6-0.3,0.1-1.2-0.5-0.9c-1,0.5-2.1,0.9-3.3,0.9
									C99.2,132.6,99.2,133.7,99.9,133.7L99.9,133.7z"/>
							</g>
							<g>
								<path class="st1" d="M82.9,139.6c0.6,1.8,1.6,3.6,2.9,5c0.5,0.5,1.2-0.3,0.8-0.8c-1.2-1.3-2.1-2.9-2.6-4.6
									C83.8,138.7,82.7,138.9,82.9,139.6L82.9,139.6z"/>
							</g>
							<g>
								<path class="st1" d="M87.2,138.2c0.3,2.6,1.1,5.3,2.9,7.2c0.5,0.5,1.2-0.3,0.8-0.8c-1.6-1.7-2.3-4.2-2.6-6.4
									C88.2,137.5,87.1,137.5,87.2,138.2L87.2,138.2z"/>
							</g>
							<g>
								<path class="st1" d="M91.4,139.6c1.7,1.8,3,4.2,3.7,6.6c0.2,0.7,1.2,0.4,1-0.3c-0.7-2.6-2.1-5.1-3.9-7.1
									C91.7,138.3,91,139.1,91.4,139.6L91.4,139.6z"/>
							</g>
							<g>
								<path class="st1" d="M96.3,139.8c0.6,1.7,1.1,3.3,1.8,4.9c0.3,0.6,1.2,0.1,0.9-0.5c-0.6-1.5-1.2-3.1-1.7-4.7
									C97.2,138.9,96.1,139.2,96.3,139.8L96.3,139.8z"/>
							</g>
							<g>
								<path class="st1" d="M95.2,146.2c-1.6,1.6-3.6,3.1-4.6,5.2c-0.3,0.6,0.6,1.2,0.9,0.5c1-2,2.9-3.4,4.5-4.9
									C96.5,146.4,95.7,145.7,95.2,146.2L95.2,146.2z"/>
							</g>
							<g>
								<path class="st1" d="M89.8,145c-1.1,1.9-2.9,3-4.5,4.4c-0.5,0.5,0.3,1.2,0.8,0.8c1.6-1.5,3.5-2.7,4.6-4.7
									C91.1,144.9,90.2,144.4,89.8,145L89.8,145z"/>
							</g>
							<g>
								<path class="st1" d="M85.4,144.3c0,0-2,2-3,3c-0.5,0.5,0.3,1.3,0.8,0.8c1-1,2-2,3-3C86.6,144.5,85.9,143.8,85.4,144.3
									C85.4,144.3,85.9,143.8,85.4,144.3z"/>
							</g>
							<g>
								<path class="st1" d="M97.2,148.8c-0.6,1.1-1.7,2.1-2.4,2.9c-0.5,0.5,0.3,1.3,0.8,0.8c1-1,2-1.9,2.6-3.1
									C98.5,148.7,97.5,148.2,97.2,148.8L97.2,148.8z"/>
							</g>
						</g>
						<g class="st5">
							<path class="st1" d="M128.4,130.1c2.5-4.3,5.8-7.7,9.8-10.8c0.5-0.4-0.2-1.2-0.8-0.8c-4,3.1-7.4,6.6-9.9,11
								C127.1,130.2,128.1,130.7,128.4,130.1L128.4,130.1z"/>
						</g>
						<g class="st5">
							<path class="st1" d="M137.3,119.1c0.8,2.5,1.7,4.8,1.6,7.5c-0.1,2.1-0.6,4.2-0.9,6.3c-0.1,0.7,1,0.7,1.1,0
								c0.3-2.1,0.7-4.2,0.9-6.3c0.2-2.8-0.8-5.2-1.6-7.8C138.1,118.2,137.1,118.5,137.3,119.1L137.3,119.1z"/>
						</g>
						<g class="st5">
							<path class="st1" d="M131,125.9c0.5-2.3-0.4-4.6-1.3-6.7c-0.3-0.6-1.2-0.1-0.9,0.5c0.8,1.8,1.6,3.9,1.2,5.9
								C129.8,126.3,130.9,126.6,131,125.9L131,125.9z"/>
						</g>
						<g class="st5">
							<path class="st1" d="M128,119c-1.5,3.2-4.1,7.2-2,10.6c0.4,0.6,1.3,0.1,0.9-0.5c-1.8-3.1,0.7-6.8,2-9.6
								C129.2,118.9,128.3,118.3,128,119L128,119z"/>
						</g>
						<g class="st5">
							<path class="st1" d="M119.3,126c-1.5-3.6,0.3-7,1.3-10.5c0.2-0.7-0.8-0.9-1-0.3c-1.1,3.8-2.9,7.4-1.2,11.3
								C118.7,127.2,119.6,126.7,119.3,126L119.3,126z"/>
						</g>
						<g class="st5">
							<path class="st1" d="M119.5,116.1c2.9,2.5,4.6,5.5,5.7,9.1c0.2,0.7,1.2,0.4,1-0.3c-1.2-3.8-2.9-7-6-9.6
								C119.7,114.9,119,115.6,119.5,116.1L119.5,116.1z"/>
						</g>
						<g class="st5">
							<path class="st1" d="M136.8,119.5c-0.1,3.3-1.4,6.4-2.3,9.5c-0.9,3.2-1.4,6.7-3,9.7c-0.3,0.6,0.6,1.1,0.9,0.5
								c1.5-2.9,2.2-6.3,3-9.5c0.8-3.4,2.3-6.7,2.4-10.3C137.9,118.8,136.8,118.8,136.8,119.5L136.8,119.5z"/>
						</g>
						<g class="st5">
							<path class="st1" d="M128.2,120.3c1.5,2.8-1.2,6.4-1.1,9.3c0,0.7,1.1,0.7,1.1,0c-0.2-3.3,2.6-6.7,0.9-9.9
								C128.9,119.1,127.9,119.7,128.2,120.3L128.2,120.3z"/>
						</g>
						<g class="st5">
							<path class="st1" d="M119.6,116.8c-0.7,4.1,2.1,7.5,2.3,11.5c0,0.7,1.1,0.7,1.1,0c-0.1-3.9-2.9-7.3-2.3-11.2
								C120.7,116.4,119.7,116.1,119.6,116.8L119.6,116.8z"/>
						</g>
						<g class="st5">
							<path class="st1" d="M132.6,123.7c1,1.1,1.5,2.5,2.5,3.5c0.5,0.5,1.2-0.3,0.8-0.8c-1-1.1-1.5-2.5-2.5-3.5
								C132.9,122.4,132.2,123.2,132.6,123.7L132.6,123.7z"/>
						</g>
						<g class="st5">
							<path class="st1" d="M135.7,127.3c1.4-0.3,2.2-1.7,3.5-2c0.7-0.2,0.4-1.2-0.3-1c-1.4,0.3-2.2,1.7-3.5,2
								C134.7,126.5,135,127.5,135.7,127.3L135.7,127.3z"/>
						</g>
						<g class="st5">
							<path class="st1" d="M130.7,126.7c0.7,1.8,2.3,3,3.7,4.3c0.5,0.5,1.3-0.3,0.8-0.8c-1.2-1.1-2.8-2.2-3.4-3.8
								C131.5,125.8,130.5,126.1,130.7,126.7L130.7,126.7z"/>
						</g>
						<g class="st5">
							<path class="st1" d="M134.8,130.8c0.6,0.3,1.2,0.2,1.8,0c0.6-0.2,1.1-0.6,1.8-0.7c0.7,0,0.7-1.1,0-1.1c-0.6,0-1,0.2-1.5,0.5
								c-0.4,0.2-1,0.6-1.5,0.4C134.7,129.6,134.1,130.5,134.8,130.8L134.8,130.8z"/>
						</g>
						<g class="st5">
							<path class="st1" d="M128.4,128.5c1,2.6,3.5,4.2,5.4,6.1c0.5,0.5,1.3-0.3,0.8-0.8c-1.8-1.7-4.2-3.2-5.2-5.6
								C129.2,127.6,128.2,127.8,128.4,128.5L128.4,128.5z"/>
						</g>
						<g class="st5">
							<path class="st1" d="M134,134.9c0.9,0,2-0.3,2.9,0c0.7,0.2,0.9-0.8,0.3-1c-1-0.3-2.1,0-3.2,0
								C133.3,133.9,133.3,134.9,134,134.9L134,134.9z"/>
						</g>
						<g class="st5">
							<path class="st1" d="M129,125.7c0.8-0.2,1.2-0.9,1.8-1.4c0.5-0.5-0.3-1.3-0.8-0.8c-0.4,0.4-0.7,1-1.3,1.1
								C128,124.8,128.3,125.9,129,125.7L129,125.7z"/>
						</g>
						<g class="st5">
							<path class="st1" d="M126.2,123.8c0.4,0.9,1.3,1.3,2,2c0.5,0.5,1.3-0.3,0.8-0.8c-0.6-0.6-1.4-1-1.8-1.8
								C126.8,122.6,125.9,123.2,126.2,123.8L126.2,123.8z"/>
						</g>
						<g class="st5">
							<path class="st1" d="M125.8,126.3c0.3,0.8,0.8,1.2,1.4,1.8c0.5,0.5,1.3-0.3,0.8-0.8c-0.4-0.4-0.9-0.7-1.1-1.3
								C126.6,125.4,125.5,125.7,125.8,126.3L125.8,126.3z"/>
						</g>
						<g class="st5">
							<path class="st1" d="M122.4,119.6c-0.4,1.1-1.3,2-1.8,3c-0.3,0.6,0.6,1.1,0.9,0.5c0.6-1.1,1.5-2.1,1.9-3.3
								C123.7,119.2,122.6,119,122.4,119.6L122.4,119.6z"/>
						</g>
						<g class="st5">
							<path class="st1" d="M123.8,122c0.2,0.5-0.4,1.3-0.7,1.7c-0.3,0.5-0.7,1.1-1,1.7c-0.3,0.6,0.6,1.2,0.9,0.5
								c0.6-1.2,2.3-2.7,1.8-4.2C124.6,121.1,123.6,121.4,123.8,122L123.8,122z"/>
						</g>
						<g class="st5">
							<path class="st1" d="M124.7,125.6c0.1,0.3-0.7,1.1-0.8,1.3c-0.4,0.4-0.8,0.8-1.2,1.2c-0.5,0.5,0.3,1.2,0.8,0.8
								c0.8-0.8,3-2.4,2.2-3.8C125.3,124.4,124.4,125,124.7,125.6L124.7,125.6z"/>
						</g>
						<g class="st5">
							<path class="st1" d="M118.2,124.9c1.2,0.9,2.7,1.3,4.2,1.6c0.7,0.1,1-0.9,0.3-1c-1.4-0.3-2.8-0.7-3.9-1.5
								C118.2,123.6,117.6,124.5,118.2,124.9L118.2,124.9z"/>
						</g>
						<g class="st5">
							<path class="st1" d="M118.3,122.3c0.7,0.6,1.7,0.8,2.5,1.2c0.6,0.3,1.1-0.6,0.5-0.9c-0.7-0.4-1.7-0.5-2.3-1.1
								C118.6,121,117.8,121.8,118.3,122.3L118.3,122.3z"/>
						</g>
					</g>
					<g class="st4">
						<g class="st5">
							<g>
								<path class="st1" d="M49,154.7c2.2,0.7,4.6,0.9,6.9,1.5c2.2,0.5,4.5,0.9,6.8,1.2c0.7,0.1,0.7-1,0-1.1
									c-2.2-0.2-4.4-0.6-6.5-1.1c-2.3-0.5-4.6-0.8-6.9-1.5C48.7,153.5,48.4,154.5,49,154.7L49,154.7z"/>
							</g>
							<g>
								<path class="st1" d="M48.5,154.2c-1.7,2.3-3.4,4.7-5.1,7c-1.7,2.3-3.3,4.6-5.2,6.7c-0.5,0.5,0.3,1.3,0.8,0.8
									c1.9-2,3.4-4.2,5-6.4c1.8-2.5,3.7-5,5.5-7.5C49.8,154.2,48.9,153.6,48.5,154.2L48.5,154.2z"/>
							</g>
							<g>
								<path class="st1" d="M62.2,156.8c0.6,5.3,4.1,9.8,4.3,15.2c0,0.7,1.1,0.7,1.1,0c-0.1-5.4-3.7-9.9-4.3-15.2
									C63.2,156.2,62.1,156.2,62.2,156.8L62.2,156.8z"/>
							</g>
							<g>
								<path class="st1" d="M37.4,169.3c1,1.1,1.3,2.7,1.7,4.1c0.3,1.2,0.8,2.4,1.2,3.7c0.9,3,1.6,6.1,2.5,9.1
									c1.9,6.3,3.3,12.8,4,19.3c0.1,0.7,1.1,0.7,1.1,0c-0.7-6.7-2.2-13.2-4-19.6c-0.9-3.2-1.7-6.5-2.7-9.7
									c-0.8-2.5-1.2-5.6-2.9-7.6C37.7,168,37,168.8,37.4,169.3L37.4,169.3z"/>
							</g>
							<g>
								<path class="st1" d="M66.7,172.1c-1.2,5.3-1.7,10.7-2.7,16c-0.9,4.9-1.8,9.7-1.9,14.7c0,0.7,1.1,0.7,1.1,0
									c0-5.1,1-10.1,1.9-15c0.9-5.1,1.4-10.3,2.6-15.4C67.9,171.7,66.8,171.4,66.7,172.1L66.7,172.1z"/>
							</g>
							<g>
								<path class="st1" d="M47.2,206.2c5.1-1.2,10.3-2.3,15.5-2.8c0.7-0.1,0.7-1.1,0-1.1c-5.3,0.5-10.6,1.6-15.8,2.9
									C46.2,205.4,46.5,206.4,47.2,206.2L47.2,206.2z"/>
							</g>
							<g>
								<path class="st1" d="M46.9,205.6c-1,1-1.8,2.3-2.8,3.3c-0.5,0.5,0.3,1.3,0.8,0.8c1-1,1.8-2.3,2.8-3.3
									C48.1,205.8,47.4,205.1,46.9,205.6L46.9,205.6z"/>
							</g>
							<g>
								<path class="st1" d="M61.7,202.7c-0.6,1.6-2.3,2.7-3.4,3.8c-0.5,0.5,0.3,1.2,0.8,0.8c1.3-1.3,3-2.5,3.7-4.3
									C63,202.4,62,202.1,61.7,202.7L61.7,202.7z"/>
							</g>
							<g>
								<path class="st1" d="M44.2,210c2.2,0.2,4.3-0.7,6.4-1.1c2.8-0.5,5.7-0.9,8.4-1.8c0.7-0.2,0.4-1.2-0.3-1
									c-2.6,0.8-5.2,1.3-7.9,1.7c-2.2,0.4-4.5,1.3-6.7,1.1C43.5,208.9,43.5,210,44.2,210L44.2,210z"/>
							</g>
							<g>
								<path class="st1" d="M37.5,168.1c-0.6,1.8-2.9,2.4-4.1,3.6c-0.5,0.5,0.3,1.2,0.8,0.8c1.5-1.4,3.7-1.9,4.4-4
									C38.8,167.7,37.7,167.4,37.5,168.1L37.5,168.1z"/>
							</g>
							<g>
								<path class="st1" d="M33.3,172.3c1.5,3,2.2,6.2,3,9.4c0.7,3.1,1.6,6,2.5,9c1.8,6.2,2.3,12.7,5,18.6c0.3,0.6,1.2,0.1,0.9-0.5
									c-2.7-6-3.2-12.7-5.1-18.9c-0.9-3-1.7-6-2.4-9c-0.7-3.1-1.5-6.2-2.9-9C33.9,171.1,33,171.7,33.3,172.3L33.3,172.3z"/>
							</g>
							<g>
								<path class="st1" d="M48.6,153.6c-1.5,1.3-3.5,1.7-5.1,2.8c-0.6,0.4,0,1.3,0.5,0.9c1.7-1.1,3.8-1.5,5.3-2.9
									C49.8,153.9,49.1,153.1,48.6,153.6L48.6,153.6z"/>
							</g>
							<g>
								<path class="st1" d="M43.5,156.3c-1.2,2.6-3.5,4.6-5.3,6.8c-2,2.4-3.7,5-5.4,7.7c-0.4,0.6,0.6,1.1,0.9,0.5
									c1.8-2.9,3.8-5.6,5.9-8.3c1.6-2.1,3.7-3.7,4.8-6.1C44.7,156.2,43.8,155.7,43.5,156.3L43.5,156.3z"/>
							</g>
							<g>
								<path class="st1" d="M46.7,156.5c-1.2,1.2-2.9,1.7-4.5,2.2c-0.7,0.2-0.4,1.3,0.3,1c1.8-0.6,3.6-1.2,5-2.5
									C47.9,156.7,47.2,156,46.7,156.5L46.7,156.5z"/>
							</g>
							<g>
								<path class="st1" d="M44.2,159.4c-0.9,1.8-3.7,1.9-5.1,3.2c-0.5,0.5,0.2,1.2,0.8,0.8c1.6-1.4,4.3-1.4,5.3-3.4
									C45.5,159.3,44.5,158.8,44.2,159.4L44.2,159.4z"/>
							</g>
							<g>
								<path class="st1" d="M40.7,163.8c-1.3,1.7-3.6,1.9-5.3,3c-0.6,0.4,0,1.3,0.5,0.9c1.8-1.2,4.2-1.4,5.6-3.2
									C41.9,164,41.2,163.3,40.7,163.8L40.7,163.8z"/>
							</g>
							<g>
								<path class="st1" d="M38.1,170.2c-1.2,1.2-2.8,1.9-4,3.1c-0.5,0.5,0.3,1.2,0.8,0.8c1.2-1.2,2.8-1.9,4-3.1
									C39.4,170.5,38.6,169.7,38.1,170.2L38.1,170.2z"/>
							</g>
							<g>
								<path class="st1" d="M38.5,172.4c-0.3,1.6-2.6,2.1-3.7,3.1c-0.5,0.5,0.2,1.2,0.8,0.8c1.3-1.2,3.5-1.6,3.9-3.6
									C39.6,172,38.6,171.7,38.5,172.4L38.5,172.4z"/>
							</g>
							<g>
								<path class="st1" d="M39.8,174.7c-1.2,1.2-2.8,1.9-4,3.1c-0.5,0.5,0.3,1.2,0.8,0.8c1.2-1.2,2.8-1.9,4-3.1
									C41,175,40.3,174.3,39.8,174.7L39.8,174.7z"/>
							</g>
							<g>
								<path class="st1" d="M40.7,177.6c-1.2,1.1-2.6,1.8-3.8,2.8c-0.5,0.5,0.3,1.2,0.8,0.8c1.2-1.1,2.6-1.7,3.8-2.8
									C42,177.9,41.2,177.1,40.7,177.6L40.7,177.6z"/>
							</g>
							<g>
								<path class="st1" d="M41,180.7c-1,1-2.2,1.8-3.4,2.5c-0.6,0.4-0.1,1.3,0.5,0.9c1.3-0.8,2.6-1.6,3.7-2.7
									C42.2,180.9,41.5,180.2,41,180.7L41,180.7z"/>
							</g>
							<g>
								<path class="st1" d="M41.3,182.9c-0.1,1.3-2.3,2.1-3.2,2.9c-0.5,0.5,0.3,1.2,0.8,0.8c1.2-1.1,3.3-1.8,3.5-3.7
									C42.4,182.2,41.3,182.2,41.3,182.9L41.3,182.9z"/>
							</g>
							<g>
								<path class="st1" d="M42.3,186c-0.8,1.2-2.2,1.8-3.2,2.7c-0.5,0.5,0.3,1.2,0.8,0.8c1.1-1,2.5-1.7,3.4-3
									C43.6,185.9,42.7,185.4,42.3,186L42.3,186z"/>
							</g>
							<g>
								<path class="st1" d="M42.7,188.5c-0.3,1.5-2.6,2.1-3.7,3.1c-0.5,0.5,0.3,1.2,0.8,0.8c1.3-1.2,3.5-1.6,3.9-3.6
									C43.9,188.1,42.9,187.8,42.7,188.5L42.7,188.5z"/>
							</g>
							<g>
								<path class="st1" d="M43.7,191.3c-0.5,1.3-2,1.9-3.1,2.5c-0.6,0.4-0.1,1.3,0.5,0.9c1.4-0.8,2.9-1.6,3.6-3.2
									C45,191,43.9,190.7,43.7,191.3L43.7,191.3z"/>
							</g>
							<g>
								<path class="st1" d="M44.7,194.1c-0.6,1.5-2.6,2.1-3.7,3.2c-0.5,0.5,0.3,1.2,0.8,0.8c1.2-1.2,3.2-1.8,3.9-3.4
									C45.9,194,44.9,193.4,44.7,194.1L44.7,194.1z"/>
							</g>
							<g>
								<path class="st1" d="M45.2,197.3c-1.2,1.2-2.8,1.9-4,3.1c-0.5,0.5,0.3,1.2,0.8,0.8c1.2-1.2,2.8-1.9,4-3.1
									C46.5,197.5,45.7,196.8,45.2,197.3L45.2,197.3z"/>
							</g>
							<g>
								<path class="st1" d="M45.6,200.4c-0.6,1.8-2.6,2.6-3.9,3.8c-0.5,0.5,0.3,1.2,0.8,0.8c1.5-1.4,3.5-2.2,4.2-4.3
									C46.8,200,45.8,199.7,45.6,200.4L45.6,200.4z"/>
							</g>
							<g>
								<path class="st1" d="M45.6,203.2c-0.5,1.3-1.7,2.1-2.7,3.1c-0.5,0.5,0.3,1.2,0.8,0.8c1.1-1.1,2.4-2,3-3.6
									C46.9,202.8,45.8,202.6,45.6,203.2L45.6,203.2z"/>
							</g>
							<g>
								<path class="st1" d="M50.6,204.7c-0.8,1.3-2,2.5-2.8,3.8c-0.4,0.6,0.5,1.1,0.9,0.5c0.9-1.3,2-2.5,2.8-3.8
									C51.9,204.7,51,204.1,50.6,204.7L50.6,204.7z"/>
							</g>
							<g>
								<path class="st1" d="M55.4,203.7c-1.3,1.2-2.6,2.3-3.4,3.9c-0.3,0.6,0.6,1.2,0.9,0.5c0.7-1.5,2-2.5,3.2-3.7
									C56.7,203.9,55.9,203.2,55.4,203.7L55.4,203.7z"/>
							</g>
							<g>
								<path class="st1" d="M58.7,202.8c-0.6,1-1.2,2.1-2,3c-0.5,0.5,0.3,1.3,0.8,0.8c0.9-0.9,1.6-2.1,2.2-3.2
									C60,202.8,59,202.2,58.7,202.8L58.7,202.8z"/>
							</g>
							<g>
								<path class="st1" d="M54.6,161.6c0.5,0,1,0.1,1.5,0.2c0.7,0.2,0.9-0.8,0.3-1c-0.6-0.2-1.2-0.3-1.8-0.3
									C53.9,160.6,53.9,161.6,54.6,161.6L54.6,161.6z"/>
							</g>
							<g>
								<path class="st1" d="M53.9,161.3c0,0.8,0,1.7-0.2,2.5c-0.2,0.7,0.8,0.9,1,0.3c0.3-0.9,0.3-1.8,0.3-2.7
									C54.9,160.7,53.9,160.7,53.9,161.3L53.9,161.3z"/>
							</g>
							<g>
								<path class="st1" d="M56,161.6c0,0.9,0,1.8-0.4,2.6c-0.3,0.6,0.6,1.2,0.9,0.5c0.5-1,0.5-2,0.5-3.1
									C57.1,160.9,56,160.9,56,161.6L56,161.6z"/>
							</g>
							<g>
								<path class="st1" d="M56.2,164.8c0.9,0.8,1.9,0.8,3.3,0.6c-0.2-0.2-0.4-0.4-0.5-0.5c0,0.5,0,1,0,1.5c0,0.7,1.1,0.7,1.1,0
									c0-0.5,0-0.9,0-1.4c0-0.3-0.2-0.5-0.5-0.5c-0.8,0-1.8,0.2-2.5-0.3C56.4,163.6,55.7,164.3,56.2,164.8L56.2,164.8z"/>
							</g>
							<g>
								<path class="st1" d="M53.9,163.7c-1.5,0-3,0.2-4.5,0.2c-0.7,0-0.7,1.1,0,1.1c1.5,0,3-0.2,4.5-0.2
									C54.6,164.7,54.6,163.7,53.9,163.7L53.9,163.7z"/>
							</g>
							<g>
								<path class="st1" d="M48.9,164.4c0,0.6,0.2,1.3,0.6,1.8c0.5,0.5,1.2-0.2,0.8-0.8c0,0,0,0,0,0c0,0,0-0.1-0.1-0.1
									c-0.1-0.1-0.1-0.2-0.1-0.3c-0.1-0.2-0.1-0.4-0.1-0.6C49.9,163.7,48.9,163.7,48.9,164.4L48.9,164.4z"/>
							</g>
							<g>
								<path class="st1" d="M49.6,166.3c1.2,0.6,2.6,0.3,3.9,0.5c0.7,0.1,1-0.9,0.3-1c-1.2-0.2-2.6,0.1-3.7-0.4
									C49.5,165.1,49,166,49.6,166.3L49.6,166.3z"/>
							</g>
							<g>
								<path class="st1" d="M53.1,166.3c0,2.3-0.4,4.6-0.7,6.9c-0.1,0.7,1,0.7,1.1,0c0.3-2.3,0.7-4.6,0.7-6.9
									C54.2,165.6,53.2,165.6,53.1,166.3L53.1,166.3z"/>
							</g>
							<g>
								<path class="st1" d="M56.2,167.3c0.7-0.2,1.5,0,2.2,0c0.7,0,0.7-1.1,0-1.1c-0.8,0-1.7-0.2-2.5,0
									C55.3,166.5,55.5,167.5,56.2,167.3L56.2,167.3z"/>
							</g>
							<g>
								<path class="st1" d="M55.8,166.8c-1,2.2-1,4.6-1,6.9c0,0.7,1.1,0.7,1.1,0c0-2.1-0.1-4.4,0.9-6.4
									C57.1,166.7,56.1,166.1,55.8,166.8L55.8,166.8z"/>
							</g>
							<g>
								<path class="st1" d="M53.4,174.2c0.5,0,0.9,0,1.4,0c0.7,0,0.7-1.1,0-1.1c-0.5,0-0.9,0-1.4,0
									C52.8,173.1,52.8,174.2,53.4,174.2L53.4,174.2z"/>
							</g>
						</g>
						<g class="st5">
							<path class="st1" d="M70.4,152.7c-1.8,1.8-3.9,3.4-5.5,5.5c-0.2,0.2-0.2,0.5,0,0.8c0.4,0.4,0.9,0.8,1,1.4
								c0.1,0.7,1.2,0.4,1-0.3c-0.2-0.8-0.8-1.3-1.3-1.9c0,0.3,0,0.5,0,0.8c1.6-2,3.6-3.7,5.5-5.5C71.6,152.9,70.9,152.2,70.4,152.7
								L70.4,152.7z"/>
						</g>
						<g class="st5">
							<path class="st1" d="M70.9,159.1c0.4,0.4,0.9,0.7,1.3,1.1c0.4,0.3,1.1,0.7,1.1,1.2c0.1,0.7,1.1,0.7,1.1,0
								c-0.1-1.4-1.8-2.1-2.8-3C71.1,157.9,70.4,158.6,70.9,159.1L70.9,159.1z"/>
						</g>
						<g class="st5">
							<path class="st1" d="M72.5,160.2c0,0-3.3,3.3-4.8,4.8c-0.5,0.5,0.3,1.3,0.8,0.8c1.5-1.5,3-3,4.8-4.8
								C73.5,160.7,72.7,160,72.5,160.2C72.5,160.2,72.7,160,72.5,160.2z"/>
						</g>
						<g class="st5">
							<path class="st1" d="M66.5,164.7c0,0,1.2,1.3,1.6,2.1c0.3,0.6,1.2,0.1,0.9-0.6c-0.4-0.9-1-1.5-1.8-2.3
								C66.7,163.4,66,164.2,66.5,164.7C66.5,164.7,66,164.2,66.5,164.7z"/>
						</g>
						<g class="st5">
							<path class="st1" d="M72.4,163.6c-0.8,2.3-2.3,4.3-3.3,6.5c-0.3,0.6,0.7,1.2,0.9,0.5c1-2.3,2.5-4.4,3.4-6.8
								C73.7,163.2,72.6,162.9,72.4,163.6L72.4,163.6z"/>
						</g>
						<g class="st5">
							<path class="st1" d="M69.8,170.8c2.7-1.3,5.1-3.2,7.5-5.1c0.5-0.4-0.2-1.2-0.8-0.8c-2.3,1.8-4.6,3.6-7.2,4.9
								C68.7,170.2,69.2,171.1,69.8,170.8L69.8,170.8z"/>
						</g>
						<g class="st5">
							<path class="st1" d="M73.7,170.9c0.3,0.1,1.4,0.6,1.3,1c-0.2,0.7,0.9,0.9,1,0.3c0.3-1.2-1.1-2-2-2.3
								C73.3,169.6,73.1,170.7,73.7,170.9L73.7,170.9z"/>
						</g>
						<g class="st5">
							<path class="st1" d="M73.2,170.2c-1.3,1.3-2.9,2.3-4,3.9c-1.1,1.5,0.3,2.7,1.4,3.8c0.5,0.5,1.2-0.3,0.8-0.8
								c-0.5-0.5-1-1-1.4-1.7c-0.3-0.5,0.8-1.5,1.1-1.8c0.9-1,2-1.7,3-2.6C74.5,170.5,73.7,169.7,73.2,170.2L73.2,170.2z"/>
						</g>
						<g class="st5">
							<path class="st1" d="M70.8,172.5c0,0.6,0.4,1.1,0.9,1.6c0.5,0.5,1.3-0.3,0.8-0.8c-0.3-0.3-0.6-0.5-0.6-0.8
								C71.8,171.9,70.7,171.9,70.8,172.5L70.8,172.5z"/>
						</g>
						<g class="st5">
							<path class="st1" d="M67.6,183.9c2.6-1,4.3-3.6,6.2-5.6c-0.3,0-0.6-0.1-0.8-0.1c0.5,1,1.2,1.7,2,2.5c0.5,0.5,1.2-0.3,0.8-0.8
								c-0.7-0.7-1.3-1.4-1.8-2.3c-0.2-0.3-0.6-0.4-0.8-0.1c-1.7,1.8-3.3,4.4-5.7,5.3C66.7,183.1,66.9,184.2,67.6,183.9L67.6,183.9z
								"/>
						</g>
						<g class="st5">
							<path class="st1" d="M70.7,180.6c0,0.8,0.3,1.5,0.9,2c0.5,0.5,1.2-0.3,0.8-0.8c-0.3-0.3-0.5-0.8-0.6-1.3
								C71.8,179.9,70.7,179.9,70.7,180.6L70.7,180.6z"/>
						</g>
						<g class="st5">
							<path class="st1" d="M67,188.4c2.4-1,4.2-2.7,6.6-3.8c-0.2-0.2-0.5-0.5-0.7-0.7c-1.6,2.5-3.2,4.5-5.1,6.5
								c-0.5,0.5,0.3,1.2,0.8,0.8c2-2.1,3.8-4.3,5.3-6.8c0.3-0.5-0.3-0.9-0.7-0.7c-2.4,1-4.3,2.8-6.6,3.8
								C65.8,187.7,66.4,188.7,67,188.4L67,188.4z"/>
						</g>
						<g class="st5">
							<path class="st1" d="M67.7,187.8c0,0,0.8,0.8,1.3,1.3c0.5,0.5,1.3-0.3,0.8-0.8c-0.5-0.5-0.8-0.8-1.3-1.3
								C67.9,186.5,67.2,187.3,67.7,187.8C67.7,187.8,67.2,187.3,67.7,187.8z"/>
						</g>
						<g class="st5">
							<path class="st1" d="M73.7,191.9c-0.2-2.1-2.7-1.8-3.6-0.3c-0.5,0.8-0.5,1.7-0.6,2.6c0,0.8,0,1.6-0.3,2.3
								c-0.8,1.9-2.3-0.6-2.3-1.6c-0.1-0.7-1.1-0.7-1.1,0c0.2,2,2.3,4.8,4.1,2.5c0.6-0.8,0.7-1.9,0.7-2.9c0-0.6,0-1.4,0.2-2
								c0.1-0.2,1.7-2.1,1.8-0.7C72.7,192.6,73.7,192.6,73.7,191.9L73.7,191.9z"/>
						</g>
						<g class="st5">
							<path class="st1" d="M71.2,196.5c0.5,0.9,1.2,1.7,1.7,2.6c0.3,0.6,1.3,0.1,0.9-0.5c-0.5-0.9-1.2-1.7-1.7-2.6
								C71.9,195.3,70.9,195.9,71.2,196.5L71.2,196.5z"/>
						</g>
						<g class="st5">
							<path class="st1" d="M73,197.6c-3,0.8-5,3.9-7.1,6.1c-0.5,0.5,0.3,1.3,0.8,0.8c1.9-2,3.8-5.1,6.6-5.8
								C73.9,198.5,73.7,197.4,73,197.6L73,197.6z"/>
						</g>
						<g class="st5">
							<path class="st1" d="M72.1,198.3c0.3,0.8,0.9,1.4,1.2,2.1c0.2,0.6,1.3,0.4,1-0.3c-0.3-0.8-0.9-1.4-1.2-2.1
								C72.9,197.3,71.9,197.6,72.1,198.3L72.1,198.3z"/>
						</g>
						<g class="st5">
							<path class="st1" d="M28.7,173.5c-0.6,1.5-2.1,2.5-3.2,3.6c-0.5,0.5,0.3,1.2,0.8,0.8c1.3-1.2,2.8-2.3,3.5-4
								C30,173.2,29,172.9,28.7,173.5L28.7,173.5z"/>
						</g>
						<g class="st5">
							<path class="st1" d="M28.5,174c1.1-0.1-1.3,6.4-2.3,3.6c-0.2-0.6-1.3-0.4-1,0.3c2,5.6,7.2-5.1,3.4-4.9
								C27.8,172.9,27.8,174,28.5,174L28.5,174z"/>
						</g>
						<g class="st5">
							<path class="st1" d="M31,177.4c-0.1,0.3-0.6,0-0.3,0.2c0.1,0.1,0.2,0.2,0.3,0.4c0.2,0.3,0.5,0.6,0.7,0.8
								c0.5,0.5,1.2-0.3,0.8-0.8c-0.4-0.4-0.8-1-1.3-1.4c-0.5-0.4-1-0.1-1.3,0.4C29.7,177.7,30.7,178,31,177.4L31,177.4z"/>
						</g>
						<g class="st5">
							<path class="st1" d="M30.6,177.8c-0.6,1.5-2.1,2.5-3.2,3.6c-0.5,0.5,0.3,1.2,0.8,0.8c1.3-1.2,2.8-2.3,3.5-4
								C31.9,177.4,30.9,177.2,30.6,177.8L30.6,177.8z"/>
						</g>
						<g class="st5">
							<path class="st1" d="M26.5,181.4c0,0,1.3,1.3,1.8,1.8c0.5,0.5,1.3-0.3,0.8-0.8c-0.5-0.5-1.3-1.3-1.8-1.8
								C26.7,180.2,26,180.9,26.5,181.4C26.5,181.4,26,180.9,26.5,181.4z"/>
						</g>
						<g class="st5">
							<path class="st1" d="M32.4,180.9c0.4,0.4,1.3,0.8,1.5,1.4c0.2,0.6,1.3,0.4,1-0.3c-0.3-0.9-1.1-1.3-1.8-1.9
								C32.7,179.7,31.9,180.5,32.4,180.9L32.4,180.9z"/>
						</g>
						<g class="st5">
							<path class="st1" d="M32.2,180.9c-1.1,1.1-2.3,2.1-3.2,3.3c-0.3,0.5-0.6,1.1-0.5,1.7c0.1,1,1.1,1,1.4,1.9
								c0.2,0.7,1.2,0.4,1-0.3c-0.1-0.5-0.3-0.8-0.7-1.1c-0.8-0.6-0.6-1.1-0.1-1.9c0.8-1.1,1.9-2,2.8-2.9
								C33.4,181.2,32.7,180.4,32.2,180.9L32.2,180.9z"/>
						</g>
						<g class="st5">
							<path class="st1" d="M30.3,183.4c0,0.6,0.6,1.3,0.8,1.5c0.5,0.5,1.3-0.3,0.8-0.8c0,0-0.5-0.5-0.5-0.8
								C31.3,182.6,30.3,182.7,30.3,183.4L30.3,183.4z"/>
						</g>
						<g class="st5">
							<path class="st1" d="M33,189.3c0,1.4-0.4,2.8-0.5,4.3c0,0.7,1.1,0.7,1.1,0c0-1.4,0.4-2.8,0.5-4.3
								C34.1,188.6,33,188.6,33,189.3L33,189.3z"/>
						</g>
						<g class="st5">
							<path class="st1" d="M34.4,192.1c-0.2,1-1.9,1.5-2.7,1.8c-0.9,0.3-1.9,0.6-2.8,0.9c-0.7,0.2-0.4,1.2,0.3,1
								c1.9-0.6,5.8-1.1,6.3-3.5C35.6,191.7,34.6,191.4,34.4,192.1L34.4,192.1z"/>
						</g>
						<g class="st5">
							<path class="st1" d="M35.2,195c-1.5-0.9-3.1,0.5-3.9,1.7c-0.6,0.9-0.8,3.1,0.6,3.5c1.1,0.3,2.2-0.8,2.8-1.6
								c0.7-1,1.1-2.5,0.2-3.5c-0.5-0.5-1.2,0.2-0.8,0.8c0.9,1-0.7,3-1.6,3.3c-0.8,0.3-0.5-1.4-0.3-1.7c0.4-0.8,1.6-2,2.5-1.5
								C35.3,196.3,35.8,195.4,35.2,195L35.2,195z"/>
						</g>
						<g class="st5">
							<path class="st1" d="M34.5,197.6c-0.9,1.5-2,3.4-1.5,5.1c0.1,0.3,0.4,0.4,0.7,0.4c1.8-0.4,2.6-1.9,3.4-3.3
								c0.4-0.6-0.6-1.1-0.9-0.5c-0.7,1.2-1.3,2.5-2.8,2.8c0.2,0.1,0.4,0.3,0.7,0.4c-0.4-1.5,0.6-3.1,1.4-4.3
								C35.8,197.6,34.8,197,34.5,197.6L34.5,197.6z"/>
						</g>
						<g class="st5">
							<path class="st1" d="M32.9,205.8c1.5-0.6,2.5-1.8,3.6-3c-0.3-0.2-0.6-0.3-0.9-0.5c-0.6,1.6-1.6,3.1-1.4,4.9
								c0,0.4,0.4,0.7,0.8,0.5c1.8-0.9,2.4-2.8,3.7-4.1c0.5-0.5-0.3-1.3-0.8-0.8c-1.2,1.3-1.8,3.1-3.4,3.9c0.3,0.2,0.5,0.3,0.8,0.5
								c-0.2-1.7,0.9-3.1,1.4-4.6c0.2-0.5-0.5-0.9-0.9-0.5c-0.9,1-1.8,2.2-3.1,2.7C32,205,32.3,206,32.9,205.8L32.9,205.8z"/>
						</g>
						<g class="st5">
							<path class="st1" d="M39.1,207.7c0.3-0.3,0.5-0.8,0.3-1.2c-0.3-0.4-0.9-0.4-1.3-0.4c-0.6,0.1-1.2,0.4-1.7,0.8
								c-0.5,0.4-0.8,0.9-0.9,1.6c-0.1,0.9-0.2,2.1,0.3,2.9c0.7,1,1.8,0.3,2.4-0.4c0.4-0.5-0.3-1.3-0.8-0.8
								c-0.2,0.2-0.4,0.5-0.7,0.6c-0.1,0,0,0-0.1-0.1c-0.2-0.4-0.2-1-0.2-1.5c0-0.3,0-0.5,0.1-0.7c0.1-0.4,0.4-0.7,0.7-0.9
								c0.3-0.2,0.6-0.3,0.9-0.4c0.1,0,0.2,0,0.3,0c0.2,0,0-0.4-0.2-0.3C37.9,207.5,38.6,208.3,39.1,207.7L39.1,207.7z"/>
						</g>
						<g class="st5">
							<path class="st1" d="M36.9,209.6c0.2,0.2,0.3,0.3,0.3,0.6c0,0.7,1.1,0.7,1.1,0c0-0.5-0.3-0.9-0.6-1.3
								C37.2,208.4,36.4,209.2,36.9,209.6L36.9,209.6z"/>
						</g>
						<g class="st5">
							<path class="st1" d="M66.7,155.8c0.3,0.8,0.8,1.3,1.3,1.9c0.5,0.5,1.2-0.3,0.8-0.8c-0.4-0.4-0.8-0.8-1-1.4
								C67.5,154.9,66.5,155.1,66.7,155.8L66.7,155.8z"/>
						</g>
						<g class="st5">
							<path class="st1" d="M68.7,162.5c0,0,1,1,1.3,1.3c0.5,0.5,1.3-0.3,0.8-0.8c-0.3-0.3-0.8-0.8-1.3-1.3
								C68.9,161.2,68.2,162,68.7,162.5C68.7,162.5,68.2,162,68.7,162.5z"/>
						</g>
						<g class="st5">
							<path class="st1" d="M70.7,167c0,0,0.3,0.3,0.5,0.5c0.3,0.3,1-0.5,0.8-0.8c-0.3-0.3-0.5-0.5-0.5-0.5
								C71,165.8,70.2,166.5,70.7,167C70.7,167,70.2,166.5,70.7,167z"/>
						</g>
						<g class="st5">
							<path class="st1" d="M72.2,169.1c0,0,0.3,0.3,0.5,0.5c0.5,0.5,1.3-0.3,0.8-0.8c-0.3-0.3-0.3-0.3-0.5-0.5
								C72.5,167.8,71.7,168.6,72.2,169.1C72.2,169.1,71.7,168.6,72.2,169.1z"/>
						</g>
						<g class="st5">
							<path class="st1" d="M70,179.9c0,0.5,0.3,1,0.6,1.3c0.5,0.5,1.2-0.3,0.8-0.8c-0.2-0.2-0.3-0.3-0.3-0.6
								C71,179.2,70,179.2,70,179.9L70,179.9z"/>
						</g>
						<g class="st5">
							<path class="st1" d="M67.1,186.6c0.9,1,1.7,2.1,2.6,3.1c0.5,0.5,1.2-0.3,0.8-0.8c-0.9-1-1.7-2.1-2.6-3.1
								C67.3,185.4,66.6,186.1,67.1,186.6L67.1,186.6z"/>
						</g>
						<g class="st5">
							<path class="st1" d="M68.7,194.3c0,0,1,1,1.5,1.5s1.3-0.3,0.8-0.8c-0.5-0.5-1-1-1.5-1.5C68.9,193.1,68.2,193.8,68.7,194.3
								C68.7,194.3,68.2,193.8,68.7,194.3z"/>
						</g>
						<g class="st5">
							<path class="st1" d="M68.3,200.5c0,0.7,0.3,1,0.8,1.5c0.5,0.5,1.3-0.3,0.8-0.8c0,0-0.3-0.3-0.4-0.4c-0.1-0.1-0.1-0.2-0.1-0.4
								C69.4,199.8,68.3,199.8,68.3,200.5L68.3,200.5z"/>
						</g>
						<g class="st5">
							<path class="st1" d="M26.7,175.6c0,0,0,0-0.3-0.3c-0.5-0.5-1.3,0.3-0.8,0.8c0.5,0.5,0.8,0.8,1,1c0.5,0.5,1.3-0.3,0.8-0.8
								c-0.3-0.3-0.5-0.5-1-1c-0.5-0.5-1.3,0.3-0.8,0.8c0.3,0.3,0.3,0.3,0.3,0.3C26.5,176.9,27.2,176.1,26.7,175.6
								C26.7,175.6,27.2,176.1,26.7,175.6z"/>
						</g>
						<g class="st5">
							<path class="st1" d="M28.3,179.5c0.1,0.4,0.3,0.7,0.5,1c0.3,0.3,0.7,0.5,1,0.6c0.7,0.2,0.9-0.8,0.3-1
								c-0.5-0.2-0.6-0.4-0.8-0.8C29.1,178.6,28,178.9,28.3,179.5L28.3,179.5z"/>
						</g>
						<g class="st5">
							<path class="st1" d="M29.8,182.7c0,0,0.5,0.5,1,1c0.5,0.5,1.3-0.3,0.8-0.8c-0.5-0.5-0.8-0.8-1-1
								C30,181.4,29.3,182.2,29.8,182.7C29.8,182.7,29.3,182.2,29.8,182.7z"/>
						</g>
						<g class="st5">
							<path class="st1" d="M31.8,193.4c0,0.6,0.4,1.1,0.9,1.6c0.5,0.5,1.3-0.3,0.8-0.8c-0.3-0.3-0.5-0.5-0.6-0.8
								C32.9,192.7,31.8,192.7,31.8,193.4L31.8,193.4z"/>
						</g>
						<g class="st5">
							<path class="st1" d="M31,196.1c0.4,0.4,0.6,1,0.9,1.4c0.5,0.5,1.2-0.2,0.8-0.8c-0.1-0.1-0.2-0.4-0.3-0.6
								c-0.2-0.3-0.4-0.6-0.6-0.9C31.3,194.9,30.5,195.6,31,196.1L31,196.1z"/>
						</g>
						<g class="st5">
							<path class="st1" d="M32.9,199c0.5,0.6,0.9,1.3,1.4,1.9c0.5,0.5,1.2-0.3,0.8-0.8c-0.5-0.6-0.9-1.3-1.4-1.9
								C33.2,197.7,32.4,198.5,32.9,199L32.9,199z"/>
						</g>
						<g class="st5">
							<path class="st1" d="M35.4,205c0,0.7,0.4,1.1,0.9,1.6c0.5,0.5,1.3-0.3,0.8-0.8c-0.3-0.3-0.4-0.3-0.4-0.5
								c-0.1-0.1-0.1-0.2-0.1-0.4C36.4,204.3,35.3,204.3,35.4,205L35.4,205z"/>
						</g>
						<g class="st5">
							<path class="st1" d="M36.2,207.5C36.2,207.5,36.2,207.5,36.2,207.5C36.2,207.5,36.2,207.3,36.2,207.5
								C36.2,207.5,36.2,207.5,36.2,207.5c0,0.3,0.1,0.5,0.2,0.7c0.2,0.2,0.6,0.2,0.8,0c0.2-0.2,0.2-0.5,0-0.8c0,0.1,0,0.1,0,0
								c0,0,0,0.2,0,0.1c0-0.1,0-0.1,0-0.2c0-0.2-0.1-0.4-0.3-0.6c-0.2-0.2-0.6-0.2-0.8,0C36,207,36,207.3,36.2,207.5L36.2,207.5z"
								/>
						</g>
					</g>
				</g>
			</g>
		</g>
	</g>
</g>
<g id="Guitar">
	<defs>
		<path id="SVGID_2_" d="M190.6,227.7c-15.2,5.7-32,2.3-42.8-8.5c-8.8-8.8-10.2-20.4-11.4-29.8c-0.7-5.5-1.2-10.2-3.1-12.1
			c-2.4-2.4-4.9-3-8-3.9c-4-1.1-8.4-2.3-13.3-7.2c-8.5-8.6-7.6-19,2.9-31.9L39.9,57.7c-2-2-4.5-2-6.7-2.1c-1.7,0-3.2,0-4.4-1.1
			c-0.2,0.2-0.3,0.4-0.4,0.5c-0.5,0.5-1,0.8-1.5,1c-2.3,0.8-4.1-0.9-5-1.9c-2.2-2.2-1.9-4.8-0.6-6.2c0.4-0.4,0.8-0.6,1.3-0.8
			c0,0,0.1,0,0.1,0c-0.2-0.3-0.4-0.5-0.7-0.8c-0.3,0.6-0.6,1.1-0.9,1.4c-0.5,0.5-1,0.8-1.5,1c-2.3,0.9-4.1-0.9-5-1.9
			c-0.9-0.9-1.5-2-1.6-3c-0.2-1.2,0.2-2.3,1-3.1c0.4-0.4,0.8-0.6,1.3-0.8c0.1,0,0.2-0.1,0.3-0.1c-0.3-0.2-0.5-0.5-0.8-0.7
			c-0.2,0.6-0.6,1.1-1,1.4c-0.5,0.5-1,0.8-1.5,1c-2.3,0.9-4.1-0.9-5-1.9c-2.2-2.2-1.9-4.8-0.6-6.2C6.8,33.2,7,33,7.3,32.8
			c-1.7-1.5-2.9-2.5-2.9-2.5l-1.8-1.5l3.7-3.7c0.8-0.9,1.2-2.4,1.4-3.6c0.3-1.2,0.5-2.2,1.2-2.9c0.5-0.5,1-0.8,1.5-1
			c0,0,0.1,0,0.1,0c0.2-0.5,0.4-1,1-1.6c0.3-0.3,0.7-0.6,1.3-0.8c0.5-0.2,1-0.3,1.6-0.4c0.6-0.1,1.4-0.3,2-0.6
			c0.7-0.3,1.2-0.5,1.5-0.9l3.7-3.7l1.5,1.8c0,0,1,1.2,2.5,2.9c0.2-0.3,0.4-0.6,0.6-0.8c0.4-0.4,0.8-0.6,1.3-0.8
			c1.6-0.6,3.4-0.1,4.9,1.4c0.7,0.7,1.5,1.5,1.8,2.5c0.6,1.4,0.2,2.9-0.9,4c-0.4,0.4-0.9,0.7-1.4,0.9c0.3,0.3,0.5,0.6,0.7,0.8
			c0.2-0.6,0.5-1.1,0.9-1.5c0.4-0.4,0.8-0.6,1.3-0.8c1.6-0.6,3.4-0.1,4.9,1.4c0.7,0.7,1.5,1.5,1.8,2.5c0.6,1.4,0.2,2.9-0.9,4
			c-0.4,0.4-0.9,0.7-1.4,0.9c0.3,0.2,0.5,0.4,0.8,0.7c0.2-0.5,0.5-1,0.8-1.3c0.4-0.4,0.8-0.6,1.3-0.8c1.6-0.6,3.4-0.1,4.9,1.4
			c0.9,0.9,3.7,3.7,0.9,6.5c-0.2,0.2-0.3,0.3-0.5,0.4c1,1.1,1.1,2.7,1.1,4.4c0,2.2,0.1,4.7,2.1,6.8l85.6,82.9
			c3.4,0.8,8,1.7,11.1,0.5c0.9-0.3,1.6-0.8,2.2-1.4c4.1-4.1,3.1-6.7,2.3-8.9c-0.5-1.3-1.3-3.3,0.3-4.8c0.4-0.4,0.8-0.7,1.3-0.8
			c3.3-1.2,7.6,2.6,8.8,3.8c3.1,3.1,4.3,7,5.4,10.7c1,3.3,1.9,6.4,4.2,8.7c2.8,2.7,7.4,2.9,13.2,3.2c9.2,0.4,20.7,0.8,31.5,11.6
			c8.2,8.1,11.9,18.2,10.7,29.3c-1.2,11.3-7.5,23.1-18.4,34.1C203.5,221.1,197.3,225.2,190.6,227.7"/>
	</defs>
	
		<linearGradient id="SVGID_4_" gradientUnits="userSpaceOnUse" x1="284.4233" y1="-407.0754" x2="380.6786" y2="-407.0754" gradientTransform="matrix(0.7071 -0.7071 0.7071 0.7071 164.0753 637.7391)">
		<stop  offset="0" style="stop-color:#00BFB7"/>
		<stop  offset="0.1253" style="stop-color:#00B6B1"/>
		<stop  offset="0.3329" style="stop-color:#009CA0"/>
		<stop  offset="0.4567" style="stop-color:#008A94"/>
		<stop  offset="0.7158" style="stop-color:#0075BE"/>
		<stop  offset="0.9944" style="stop-color:#005B97"/>
	</linearGradient>
	<use xlink:href="#SVGID_2_"  style="overflow:visible;fill:url(#SVGID_4_);"/>
	<clipPath id="SVGID_5_">
		<use xlink:href="#SVGID_2_"  style="overflow:visible;"/>
	</clipPath>
</g>
<g id="Logotype">
	<g>
		<path d="M322.7,86.5c0,2.1-2.4,2.8-7.3,1.9c-7-0.3-17.1,3.1-30.4,10.2s-5.3,14.6,23.9,22.5c8.9,4.3,13.4,7.9,13.4,10.6l1.2,4.8
			c0,6.3-11.2,12.3-33.8,18.2l-2.8,0.5c-2.4,0-3.9-0.8-4.5-2.4v-2.4c0.5-1.6,8.4-4.3,23.6-8.1c4.9-2.5,6.8-5.2,5.7-8.2
			c-1.1-3-6.9-6.1-17.4-9.1c-14.3-5.9-22.3-9.9-24.1-12s-2.6-4.1-2.6-5.8v-0.9c1.2-6.2,9-12.7,23.5-19.3c10.9-4.5,19.2-6.7,25.1-6.7
			C320.6,81.7,322.7,83.8,322.7,86.5z"/>
		<path d="M354.5,101c1.8,0.3,2.7,1,2.7,2.1v1.4c0,1.6,2.2,2.3-9.6,4.9l-2,0.7v0.7l-0.4,28.6l8.4-2.8c2.8-2.4,11.3,2,5,6.9l-26.5,8
			c-2.5,1.4-6.4,2.3-7.5-1.7v-1.4c0-2.3,2.6-3.9,7.7-4.8h0.5l3.5-1.9l-0.4-3.5l1.2-25.7c-5.4-4.4-10,9.1-13.7-3.5
			c2.4-3.6,5.5-5.3,25.5-7.8H354.5z"/>
		<path d="M398.9,109.7l2.1,2.4v21.5c0,13.8-2.9,20.7-8.6,20.7h-0.7c-3-1.5-8.8-7.7-17.3-18.3c0,10.1-2.7,15.1-7.9,15.1h-0.7
			c-1.9-0.9-2.9-2.7-2.9-5.5v-0.8c1.3-2.2,2.8-9.1,4.3-20.7c1.5-2.7,3.4-4,5.7-4h1.4l16.6,20.7V136c0-17.5,2.1-26.2,6.5-26.2H398.9z
			"/>
		<path d="M427.5,106.4h3c2.3,0,4.3,1.4,6.1,4.3v3.7c-1.1,2-2.7,3-4.9,3l-4.3-1.2c-7.3,2.5-12.5,6.6-15.9,12.2l-0.6,3v0.6
			c4.2,7.5,11.1,8.1,20.8,1.8h-0.6l-8.6,1.2c-1.8-0.8-2.9-1.6-3-2.5v-2.4c1.9-3.2,8.4-4.9,19.5-4.9c1.7,0.5,2.9,1.6,3.7,3v2.4
			l-8.6,17.1c0,3.4-1.2,5-3.7,5h-1.8c-2-1.2-3-2.9-3-4.9l1.2-4.4l-8,1.8c-9.4,0-15.3-4.7-17.7-14.1v-0.6c0-8.2,6.9-15.9,20.8-23.2
			L427.5,106.4z"/>
		<path d="M480.3,102.5c2.5,1.1,3.7,2.8,3.7,5.1c0.6,3.2-6.9,7-22.5,11.4l-2,7.3c8.5-2.3,14.6-3.4,18.6-3.4l1.5,2.5v3.4
			c-1,1.3-8.7,4.5-23,9.3l0.1,3.6l5.9-1l9.6-1.7c3,0,4.5,2,4.5,5.9c0,2.4-5,5-14.9,7.7c-8.2,0-13.6-3.4-16.4-10.2v-1.7
			c0-9.4,1.7-16.4,5.2-21.2c-2.3-1.1-3.5-2.2-3.7-3.4v-4.3c1.1-3.4,6.3-5.1,15.6-5.1L480.3,102.5z"/>
		<path d="M520.8,119.1v0.7c-3.3,6.1-9.7,10.5-19.1,13.3l0.9,0.8c10.8,5.9,16.4,10.9,16.8,14.8v0.7l-2,2H516c-2,0-8.9-3.6-20.8-10.7
			c0,7.1-2.5,11.2-7.4,12.1c-2-0.9-3.2-1.8-3.4-2.7v-0.7c0-10.3,0.7-19.7,2-28.2l-0.7-5.4c7.5-5.8,15.1-8.8,22.9-8.8
			C516.7,108.9,520.8,112.9,520.8,119.1z M496.5,117.7v6.7h1.3c8.1-2.8,12.1-5,12.1-6.7l-2-1.4h-4.7L496.5,117.7z"/>
		<path d="M572.3,84.4c-5,11.1-12,27.3-20.7,48.8c-4.1,10.4-6.5,15.9-7.1,16.4h-1.7c-0.7-0.4-1-1.3-1-2.8c0.7-7.3,8-27,22-59.1
			c2.6-4.7,4.5-7,5.8-7C571.4,81,572.3,82.2,572.3,84.4z"/>
		<path d="M633.3,87.7v6.8c0,3.8-1.7,5.7-5.2,5.7c-3,0-4.6-1.1-4.6-3.1l0.7-6.2c-1.4-5.5-5.4-6.3-12-2.5c-6.6,3.8-9.8,16.3-9.5,37.4
			c1.5,15,9.5,19,24.1,12h0.7l2.6,2.1v1c-1.5,4.8-6.2,7.6-14.1,8.5s-13.2,0.2-15.9-2.3s-5.3-9-7.8-19.8c0-22,3.4-36.3,10.3-42.9
			s13-9.3,18.4-8.1C629.2,78.5,633.3,82.2,633.3,87.7z M641.3,112.9c3.5,1.1,5.2,3,5.2,5.7c-1.2,10-7.3,24.7-18.2,44.2l-2.7,0.3
			c-1.8-0.9-2.7-2-2.7-3.2c20.3-34.1,20.3-47.3,0-39.9h-1.4c-4.6,0-6.8-0.8-6.8-2.5v-0.3c3.9-2.1,8.9-3.5,15-4.1L641.3,112.9z"/>
		<path d="M653.8,109.1c2.7,0.1,4.7,3.9,5.9,11.3c-0.2,27.3,13.2,27.7,15.7-8.5c0.5-2.5,1.4-4,3.5-5l3-0.8c1.2,0,2.5,0.6,3,2.3
			c1.3,30.2-5.7,40.1-17,43.2l-3.7,1.1c-6.4,1.4-10.8-2.7-13-12.6c-2.3-9.9-2.7-19.3-1.5-28.3C650.5,109.5,652.3,108.5,653.8,109.1z
			"/>
		<path d="M719.5,101c1.8,0.3,2.7,1,2.7,2.1v1.4c0,1.6,2.2,2.3-9.6,4.9l-2,0.7v0.7l-0.4,28.6l8.4-2.8c2.8-2.4,11.3,2,5,6.9l-26.5,8
			c-2.5,1.4-6.4,2.3-7.5-1.7v-1.4c0-2.3,2.6-3.9,7.7-4.8h0.5l3.5-1.9l-0.4-3.5l1.2-25.7c-5.4-4.4-10,9.1-13.7-3.5
			c2.4-3.6,5.5-5.3,25.5-7.8H719.5z"/>
		<path d="M747.3,106.4c7.3,0,11,1.3,11,3.8c0,3-3.7,4.5-11,4.5l-0.3,3.2v4.5c-1.1,19.6-3.9,29.4-8.5,29.4c-2.1,0-3.4-2.3-3.9-7
			l3.9-23.6l0.2-4.9c-3.1,0.3-5.6,2.1-7.5,5.5h-1.7c-1.9-0.7-2.8-3.4-2.8-8.3v-0.7c2.1-3.3,6.2-5.4,12.3-6.4L747.3,106.4z"/>
		<path d="M773.5,102.8c3,0,7.3,8.3,13,24.8l3.1-0.5c6.2,0,9.3,0.9,9.3,2.6v1.6c0,1.5-3.1,2.7-9.3,3.6l1.6,7.8v1.6
			c-0.3,1-1.5,1.9-3.6,2.6c-2.1,0-4.4-3.4-6.7-10.4c-8.6,1.2-14.3,3.1-17.1,5.7c0,2.1-1.2,3.1-3.6,3.1l-1.6,0.5
			c-3.1,1.9-3.2-2-0.5-11.8c6.7-20.7,11.7-31.1,15-31.1H773.5z M767.3,131.3h0.5l9.3-3.1v-0.5c-2.5-7.2-4.1-10.9-4.6-10.9
			L767.3,131.3z"/>
		<path d="M834.8,119.1v0.7c-3.3,6.1-9.7,10.5-19.1,13.3l0.9,0.8c10.8,5.9,16.4,10.9,16.8,14.8v0.7l-2,2h-1.4
			c-2,0-8.9-3.6-20.8-10.7c0,7.1-2.5,11.2-7.4,12.1c-2-0.9-3.2-1.8-3.4-2.7v-0.7c0-10.3,0.7-19.7,2-28.2l-0.7-5.4
			c7.5-5.8,15.1-8.8,22.9-8.8C830.8,108.9,834.8,112.9,834.8,119.1z M810.6,117.7v6.7h1.3c8.1-2.8,12.1-5,12.1-6.7l-2-1.4h-4.7
			L810.6,117.7z"/>
		<path d="M864.6,101c1.8,0.3,2.7,1,2.7,2.1v1.4c0,1.6,2.2,2.3-9.6,4.9l-2,0.7v0.7l-0.4,28.6l8.4-2.8c2.8-2.4,11.3,2,5,6.9l-26.5,8
			c-2.5,1.4-6.4,2.3-7.5-1.7v-1.4c0-2.3,2.6-3.9,7.7-4.8h0.5l3.5-1.9l-0.4-3.5l1.2-25.7c-5.4-4.4-10,9.1-13.7-3.5
			c2.4-3.6,5.5-5.3,25.5-7.8H864.6z"/>
		<path d="M904.3,108c0.9,0.1,5.2-1.1,5,2c0.7,1.2-0.9,1.3-0.9,2c-22.7,7.4-27.5,13.5-14.3,18.1s16.3,10.5,9.4,17.5
			s-13,10.5-18.5,10.5h-1.1c-2.1-1.2-3.1-2.8-3.1-4.7c2.1-1.6,6.5-4.3,13.1-8s4.7-7.1-5.6-10.3s-15.4-6.6-15.4-10.4
			c0-4.3,9.1-9.7,27.2-16.2L904.3,108z"/>
		<path d="M929.1,106.4c7.3,0,11,1.3,11,3.8c0,3-3.7,4.5-11,4.5l-0.3,3.2v4.5c-1.1,19.6-3.9,29.4-8.5,29.4c-2.1,0-3.4-2.3-3.9-7
			l3.9-23.6l0.2-4.9c-3.1,0.3-5.6,2.1-7.5,5.5h-1.7c-1.9-0.7-2.8-3.4-2.8-8.3v-0.7c2.1-3.3,6.2-5.4,12.3-6.4L929.1,106.4z"/>
		<path d="M978.3,77.4c16.2,0.3,27.8,3.5,34.8,9.6c7,6.1,9.5,11.7,7.4,16.7s-5.9,10.4-11.4,16.2c-5.2,7.2-19.7,20.6-43.4,40h-1
			c-2.9-0.4-4.3-2-4.3-4.6c0-1.8,3.9-5.7,11.6-11.6l2.4-2.5c-3.1,0-4.8-1.2-5.3-3.5c3.6-20.7,5.3-38,5.3-51.7l-13.6-2
			c-7.1-4.4-6.9-6.6,0.5-6.6H978.3z M981.7,101.2c0,8.1-1.6,20.8-4.8,38c26.3-22.5,37.9-36.1,34.7-40.9s-6.4-7.8-9.9-8.8
			c-0.4-0.5-7.5-1.7-21.4-3.5L981.7,101.2z"/>
		<path d="M1022.7,109.1c2.7,0.1,4.7,3.9,5.9,11.3c-0.2,27.3,13.2,27.7,15.7-8.5c0.5-2.5,1.4-4,3.5-5l3-0.8c1.2,0,2.5,0.6,3,2.3
			c1.3,30.2-5.7,40.1-17,43.2l-3.7,1.1c-6.4,1.4-10.8-2.7-13-12.6c-2.3-9.9-2.7-19.3-1.5-28.3
			C1019.4,109.5,1021.2,108.5,1022.7,109.1z"/>
		<path d="M1096.5,124.7v5.5c-1.4,7.9-3.9,13-7.5,15c-4.8,4.1-10.2,6.6-16.4,7.5c-5.3,0-9.8-3.6-13.7-10.9l-0.7-4.1
			c0.7-6,3.7-13,8.9-21.2c0-2.9,1.8-4.4,5.5-4.8C1088.5,111.7,1096.5,116,1096.5,124.7z M1073.9,143.1c9.6-2.6,14.3-7.4,14.3-14.4
			c-0.4-4.6-2.7-6.8-6.8-6.8h-1.4l-7.5,3.4c-3.2,5.7-4.8,9.8-4.8,12.3C1068.5,141.3,1070.6,143.1,1073.9,143.1z"/>
		<path d="M1129.8,108c0.9,0.1,5.2-1.1,5,2c0.7,1.2-0.9,1.3-0.9,2c-22.7,7.4-27.5,13.5-14.3,18.1s16.3,10.5,9.4,17.5
			s-13,10.5-18.5,10.5h-1.1c-2.1-1.2-3.1-2.8-3.1-4.7c2.1-1.6,6.5-4.3,13.1-8s4.7-7.1-5.6-10.3s-15.4-6.6-15.4-10.4
			c0-4.3,9.1-9.7,27.2-16.2L1129.8,108z"/>
		<path d="M1187.9,101c1.8,0.3,2.7,1,2.7,2.1v1.4c0,1.6,2.2,2.3-9.6,4.9l-2,0.7v0.7l-0.4,28.6l8.4-2.8c2.8-2.4,11.3,2,5,6.9l-26.5,8
			c-2.5,1.4-6.4,2.3-7.5-1.7v-1.4c0-2.3,2.6-3.9,7.7-4.8h0.5l3.5-1.9l-0.4-3.5l1.2-25.7c-5.4-4.4-10,9.1-13.7-3.5
			c2.4-3.6,5.5-5.3,25.5-7.8H1187.9z"/>
		<path d="M1232.3,109.7l2.1,2.4v21.5c0,13.8-2.9,20.7-8.6,20.7h-0.7c-3-1.5-8.8-7.7-17.3-18.3c0,10.1-2.7,15.1-7.9,15.1h-0.7
			c-1.9-0.9-2.9-2.7-2.9-5.5v-0.8c1.3-2.2,2.8-9.1,4.3-20.7c1.5-2.7,3.4-4,5.7-4h1.4l16.6,20.7V136c0-17.5,2.1-26.2,6.5-26.2H1232.3
			z"/>
		<path d="M1274.1,102.8c3,0,7.3,8.3,13,24.8l3.1-0.5c6.2,0,9.3,0.9,9.3,2.6v1.6c0,1.5-3.1,2.7-9.3,3.6l1.6,7.8v1.6
			c-0.3,1-1.5,1.9-3.6,2.6c-2.1,0-4.4-3.4-6.7-10.4c-8.6,1.2-14.3,3.1-17.1,5.7c0,2.1-1.2,3.1-3.6,3.1l-1.6,0.5
			c-3.1,1.9-3.2-2-0.5-11.8c6.7-20.7,11.7-31.1,15-31.1H1274.1z M1267.9,131.3h0.5l9.3-3.1v-0.5c-2.5-7.2-4.1-10.9-4.6-10.9
			L1267.9,131.3z"/>
		<path d="M1363.1,76c9.7,1.8,16.4,4.8,20.2,9.3l2.7,3.5l0.8,4.6c0,9.1-2.3,15.4-7,18.8s-13.6,6.9-26.9,10.5c-3.9,0-5.9,2.1-5.9,6.2
			c19,11.5,30.9,19.8,35.7,24.9l1.8,2.5v2.5c-1.2,2.1-2.6,3.1-4.2,3.1l-38-23c-5.2,13.3-10.2,19.9-14.9,19.9l-3-3.1V155
			c0-1.4,3-9.1,8.9-23c-3.6-3.7-5.4-6.6-5.4-8.7v-1.9c0-3.6,4-5.9,11.9-6.9c1.8,0,4.1-5.6,7.1-16.8c1.5-5.8,3.7-8.7,6.5-8.7
			c2.8,1.4,4.2,3,4.2,5l-4.2,18.1h0.6c14-3.6,22.1-9.5,24.5-17.7l-1.2-1.7c-5-4.5-10-6.8-14.9-6.8c-18.6,0.7-28,3-28,6.8
			c0,1-1,1.6-3,1.9c-6.4-1.2-9.5-2.7-9.5-4.3v-3.1c0-3.2,10.1-6.8,30.4-10.6L1363.1,76z"/>
		<path d="M1424.8,124.7v5.5c-1.4,7.9-3.9,13-7.5,15c-4.8,4.1-10.2,6.6-16.4,7.5c-5.3,0-9.8-3.6-13.7-10.9l-0.7-4.1
			c0.7-6,3.7-13,8.9-21.2c0-2.9,1.8-4.4,5.5-4.8C1416.8,111.7,1424.8,116,1424.8,124.7z M1402.3,143.1c9.6-2.6,14.3-7.4,14.3-14.4
			c-0.4-4.6-2.7-6.8-6.8-6.8h-1.4l-7.5,3.4c-3.2,5.7-4.8,9.8-4.8,12.3C1396.9,141.3,1399,143.1,1402.3,143.1z"/>
		<path d="M1452.9,104.9h4.3l2.5,2.5v2.5c-0.2,1.2-3.1,2.9-8.6,5c-7,5.1-11.3,10.4-13,16l-1.2,3.7v0.6c2.8,2.9,7.3,4.3,13.6,4.3h9.8
			l1.2,1.2v2.5c-1,2.5-7.1,4.1-18.5,4.9c-10.3-2.5-15.6-4.9-16-7.4s-0.6-4.5-0.6-6.2c3.1-10.6,9-19.3,17.9-25.9L1452.9,104.9z"/>
		<path d="M1478.3,105.3l1.8,1.8v0.6l-4.2,17.8l22.1-11.3h1.2l1.8,1.8c0,4.1-7.1,9.2-21.5,15.5l-0.6,0.6v0.6
			c8.2,4.4,16.7,7.8,25.6,10.2l1.2,1.8v1.2c0,1.3-2.6,2.1-7.8,2.4c-9.3-1.7-17.4-5-24.5-10.1h-1.2c-1.7,10.4-3.3,15.5-4.8,15.5h-1.8
			c-1.2,0-2.1-2.6-3-7.8c5.2-25,9.8-38.5,13.8-40.4H1478.3z"/>
		<path d="M1580.6,81.9c-1.1,5.2-5.6,11.3-13.5,18.5l-12.2,11.6c0,0.4,3.8,2,11.3,4.7c5,1.6,10,5.2,14.9,10.8v4.3
			c0,6.4-7.1,12.7-21.2,18.9c-9.2,5.9-16.7,9.4-22.5,10.4c-1.7,0-2.7-0.7-3.2-2.2c0-3,6.2-7.5,18.5-13.3c9.6-4.9,15.9-8.9,18.9-12
			l0.9-1.3v-1.7c0-2.4-7.4-6.1-22.1-11.2v0.4c0,17.2-1.5,26.6-4.5,28.2l-1.4,0.9c-2.4-0.2-3.6-1.4-3.6-3.4c1.1-34.4,2-51.6,2.7-51.6
			c1.3-1.1,2.5-1.7,3.6-1.7c1.9,0,2.9,1.1,3.2,3.4v8.8h0.4c12.4-10.6,19.1-17.3,20.3-20.2h-0.9c-5.4,0-17.9,4.3-37.5,12.9
			c-3.6,1.9-5.5,1.7-5.6-0.6c-0.1-2.3,3.9-5.7,11.9-10.2c13.9-6,24.6-9.3,32-9.9C1577.5,77.1,1580.6,79,1580.6,81.9z"/>
		<path d="M1597.8,102.8c3,0,7.3,8.3,13,24.8l3.1-0.5c6.2,0,9.3,0.9,9.3,2.6v1.6c0,1.5-3.1,2.7-9.3,3.6l1.6,7.8v1.6
			c-0.3,1-1.5,1.9-3.6,2.6c-2.1,0-4.4-3.4-6.7-10.4c-8.6,1.2-14.3,3.1-17.1,5.7c0,2.1-1.2,3.1-3.6,3.1l-1.6,0.5
			c-3.1,1.9-3.2-2-0.5-11.8c6.7-20.7,11.7-31.1,15-31.1H1597.8z M1591.6,131.3h0.5l9.3-3.1v-0.5c-2.5-7.2-4.1-10.9-4.6-10.9
			L1591.6,131.3z"/>
		<path d="M1660.4,109.7l2.1,2.4v21.5c0,13.8-2.9,20.7-8.6,20.7h-0.7c-3-1.5-8.8-7.7-17.3-18.3c0,10.1-2.7,15.1-7.9,15.1h-0.7
			c-1.9-0.9-2.9-2.7-2.9-5.5v-0.8c1.3-2.2,2.8-9.1,4.3-20.7c1.5-2.7,3.4-4,5.7-4h1.4l16.6,20.7V136c0-17.5,2.1-26.2,6.5-26.2H1660.4
			z"/>
		<path d="M1700.3,113.1c2.9,2.7,4.3,7.7,4.3,15c-2.1,8.1-6.6,14.5-13.3,19.1c-5.5,3.2-9.4,4.8-11.8,4.8c-3.6-0.2-5.4-1.8-5.4-4.8
			c-2.1-5.6-3.2-13.6-3.2-23.9v-7.5c-3.6,0-5.9-1.6-6.9-4.7c-1-3.2,5.2-5,18.6-5.5C1690.8,106.8,1696.6,109.3,1700.3,113.1z
			 M1676.8,115.2l2.7,24.6v3.4c11.4-5.3,17.1-11.6,17.1-19.1v-1.4c-2.7-5-8.7-7.5-18.1-7.5H1676.8z"/>
	</g>
</g>
</svg>
