<?xml version="1.0" encoding="utf-8"?>
<!-- Generator: Adobe Illustrator 24.1.0, SVG Export Plug-In . SVG Version: 6.00 Build 0)  -->
<svg version="1.1" xmlns="http://www.w3.org/2000/svg" xmlns:xlink="http://www.w3.org/1999/xlink" x="0px" y="0px"
	 viewBox="0 0 767.3 800" style="enable-background:new 0 0 767.3 800;" xml:space="preserve">
<style type="text/css">
	.st0{fill:#1D1D1B;}
	.st1{fill:#CC3648;}
	.st2{fill:#FFFFFF;}
	.st3{clip-path:url(#SVGID_1_);}
	.st4{display:none;}
	.st5{display:inline;}
</style>
<g id="Arm">
	<g>
		<path class="st0" d="M609.1,42.5c-6.5-6.4-14.3-11-22.7-13.8c-0.8-0.3-1,0.9-0.2,1.2c8.2,3.2,15.3,7.6,22.1,13.4
			C608.9,43.8,609.7,43.1,609.1,42.5z M551,141.9c-7.4,5.4-13.6,13.2-18.2,20.4c-4.2-1.3-8.4-2.6-12.5-3.8
			c-15.5-4.3-30.6-4.1-44.8-0.6c14.8-19.3,28.9-39.1,43.8-58.3c16.1-20.7,32.6-41.1,49.5-61.2c8-9.5,15.7-19.8,24.9-28.3
			c8.8-8.2,24.8-15.6,37-4.8c12.3,10.9,6.7,27.5-0.1,37.4c-7.6,11.1-16.8,21.2-25.2,31.6C587.2,97,569.1,119.4,551,141.9z
			 M570.7,100.2c0.8,0.5,1.6-0.6,0.9-1.2c-5-4.3-10.6-7.9-15.9-11.7c-2.4-1.7-5.8-5.3-8.3-3c-0.6,0.5,0.4,1.4,0.9,0.9
			c1.8-1.4,10.2,6.2,11.6,7.2C563.5,95.1,567,97.9,570.7,100.2z M575,91.7c0.5,0.5,1.2-0.2,0.7-0.7c-6.3-7-14.3-12.5-22.8-16
			c-0.5-0.2-0.9,0.6-0.3,0.9C560.9,80.2,568,85.4,575,91.7z M602.5,52.9c0.6,0.5,1.4-0.2,0.8-0.8c-5.1-4.9-11.1-9.1-17.1-12.5
			c-0.6-0.3-1,0.5-0.5,0.9C591.5,44.3,597,48.5,602.5,52.9z"/>
		<path class="st0" d="M600.2,161.9c0.7,11-8.2,18.1-15.7,23.9c-2.8-3.3-6.2-6.1-10-8.3c-7.7-4.6-16.4-6.9-24.7-9.6
			c-4.9-1.6-9.8-3.2-14.7-4.8c4.4-5.6,9.3-11.9,15.1-16.8c0.5,0.3,1.1,0.3,1.5-0.3c0.7-0.8,1.3-1.6,2-2.4c7.1-5,15.5-7.5,25.5-4.2
			C588.3,142.5,599.6,151.7,600.2,161.9z M586.2,160.1c0.3,0.5,1,0.1,0.7-0.4c-4.8-7.7-12-13.2-20.5-15.7c-0.5-0.2-0.7,0.6-0.2,0.8
			C574.4,147.6,581.2,152.8,586.2,160.1z M589.6,153.2c0.5,0.5,1.1-0.2,0.6-0.6c-3.1-3.5-6.6-6.3-10.6-8.7c-0.6-0.4-1.1,0.5-0.5,0.9
			C583,147.1,586.5,150,589.6,153.2z"/>
		<path class="st0" d="M517.3,263.5c5.9-6,11.6-12.2,17.3-18.3c6.4-6.8,13.4-13.2,19-20.6c0.1-0.1,0.1-0.1,0.1-0.2
			c0.1,0,0.2,0,0.3,0c13.9,0.8,30-1.5,35.8-14.9c3.1-7.2,1.2-14.8-3.3-21.2c4.4-3.4,8.9-7.1,12.2-11.6c19.7-7.5,44.5,8.1,43.9,31.4
			c-0.3,12.1-9,19.7-17.2,26.6c-8.9,7.5-17.9,15-26.9,22.4c-17.3,14.5-34.6,28.9-52,43.4c-5.4,4.5-11.4,8.5-17.9,9.1
			c7.3-2.4,13.5-6.7,18-12.9c1.4-2,3.6-4.7,2.9-7.6c-0.9-3.9-6.9-7.9-9.6-10.5c-4.7-4.5-9.8-10.4-15.2-13.9c-1.4-0.9-2.3-1.8-4-1.5
			c-3.5,0.5-7.2,6.5-9,9c-2.7,3.6-4.9,7.4-6.6,11.6c0-3.7,0.6-7.5,1.8-10.9c0.1-0.3,0.1-0.5,0-0.7
			C510.7,269.7,514.3,266.6,517.3,263.5z M631.9,213.2c0.2,0.6,1.1,0.4,0.9-0.2c-4-12.3-12.7-23-24.2-29.5c-0.5-0.3-0.9,0.4-0.4,0.7
			C619.5,191.3,627.4,201,631.9,213.2z M633.8,198.7c0.5,0.7,1.6,0.2,1.1-0.6c-3.6-5.4-8.2-9.9-13.6-13.5c-0.7-0.4-1.2,0.5-0.5,1
			C625.9,189.2,630.2,193.5,633.8,198.7z"/>
		<path class="st0" d="M482.8,234.2c-5.1,4.2-9.3,9.8-11.6,16.3c0.1-2.2,0.8-4.5,2.2-6.8c6.8-11.6,16.2-20.8,25.7-30
			c0.1-0.1,0.2-0.3,0.2-0.4c16.6,5.9,34,9.6,51.1,10.9c-9,8.1-16.9,17.8-25.1,26.6c-7.5,8-15.4,19.2-27,21.9c2.6-2,5-4.3,7.2-6.7
			c2.4-2.6,6.5-6.6,7.5-10.2c1.8-6.4-9.1-14.5-13.7-18.1C492.7,232.6,488.8,229.3,482.8,234.2z"/>
		<path class="st1" d="M586,193.5c2.2,10.8-5.1,19.1-14.8,21.2c-8,1.7-24,0.4-28.9-8.6c-4-7.4-2.2-23.9,3.4-28.9
			c7-6.2,25.7,0.5,32.7,6.2c0.3,0.2,0.6,0.2,0.8,0.1c1.4,1.2,2.7,2.5,3.9,4c1.3,1.6,2.4,3.2,3.2,4.9
			C586.1,192.6,585.9,193,586,193.5z"/>
		<path class="st1" d="M506.6,260.8c-3.8,4.8-8.4,8.7-13.2,12.4c-7.8,0-13.6-4.8-18.3-11.7c-1.5-2.2-2.5-4.2-3.2-6.3
			c1.9-5.6,4.2-10.8,8.2-15.3c2.1-2.4,4.9-5.7,8.3-5.8c3.8,0,8.6,4.3,11.5,6.7c2.4,2,5,4.3,7,6.8c1.6,2,3.7,5.3,3.5,7.8
			C510.2,257.1,507.5,259.7,506.6,260.8z"/>
		<path class="st1" d="M542.6,297.3c-4.8,5.6-11.3,9.2-18.7,11c-0.5,0.1-0.7,0.5-0.8,0.9c-3.2-0.8-6.5-2.5-9.8-5.6
			c-4.9-4.5-7.4-10.3-8.1-16.2c2.9-6.2,6.4-12,11-17c0.7-0.8,1.9-2.7,2.9-3c3.2-1,6.4,1.1,8.7,3.2c2.9,2.6,5.7,5.2,8.5,7.9
			c2.4,2.3,5.3,4.6,7.4,7.2C547.7,290.6,545.9,293.4,542.6,297.3z"/>
		<path class="st2" d="M621.4,184.5c5.4,3.6,10,8.2,13.6,13.5c0.5,0.7-0.6,1.3-1.1,0.6c-3.6-5.1-7.9-9.4-13-13.1
			C620.2,185.1,620.7,184.1,621.4,184.5z"/>
		<path class="st2" d="M631.9,213.2c-4.5-12.3-12.4-21.9-23.6-29c-0.5-0.3-0.1-1,0.4-0.7c11.5,6.5,20.2,17.2,24.2,29.5
			C632.9,213.6,632.1,213.8,631.9,213.2z"/>
		<path class="st2" d="M589.6,153.2c-3.2-3.2-6.6-6.1-10.4-8.5c-0.6-0.4-0.1-1.3,0.5-0.9c4,2.4,7.5,5.2,10.6,8.7
			C590.7,153,590.1,153.6,589.6,153.2z"/>
		<path class="st2" d="M586.2,160.1c-5-7.3-11.8-12.5-20-15.3c-0.5-0.2-0.4-1,0.2-0.8c8.5,2.4,15.7,8,20.5,15.7
			C587.2,160.2,586.5,160.6,586.2,160.1z"/>
		<path class="st2" d="M497.5,181.1c0.3,0.7-0.8,1.1-1.1,0.4c-3.1-6.1-3.4-12.8-1.2-18.6c0.3-0.7,1.5-0.1,1.3,0.6
			C494.6,169.1,495.1,175.2,497.5,181.1z"/>
		<path class="st2" d="M488.6,187.8c0.1,0.9-1.3,0.8-1.4-0.1c-1.1-6.7-1.4-13.4-1-20c0.1-1.9-0.5-9.2,2.8-8.8c0.3,0,0.4,0.2,0.5,0.5
			l0.1,0.4c0.1,0.4-0.6,0.5-0.7,0.2c-0.1-0.1-0.9,3.7-1,4.3c-0.1,1.4-0.2,2.9-0.3,4.3c-0.1,2-0.1,4.1-0.1,6.1
			C487.7,179.1,488.1,183.5,488.6,187.8z"/>
		<path class="st2" d="M559.9,92.4c-1.4-1-9.8-8.6-11.6-7.2c-0.6,0.5-1.5-0.4-0.9-0.9c2.4-2.3,5.9,1.3,8.3,3
			c5.3,3.8,10.9,7.4,15.9,11.7c0.7,0.6-0.1,1.7-0.9,1.2C567,97.9,563.5,95.1,559.9,92.4z"/>
		<path class="st2" d="M575,91.7c-7-6.4-14.2-11.5-22.5-15.8c-0.5-0.3-0.2-1.1,0.3-0.9c8.5,3.5,16.5,9,22.8,16
			C576.2,91.5,575.6,92.2,575,91.7z"/>
		<path class="st2" d="M585.7,40.4c-0.6-0.4-0.1-1.2,0.5-0.9c6.1,3.4,12.1,7.6,17.1,12.5c0.6,0.6-0.2,1.3-0.8,0.8
			C597,48.5,591.5,44.3,585.7,40.4z"/>
		<path class="st2" d="M608.3,43.3c-6.8-5.9-13.9-10.3-22.1-13.4c-0.8-0.3-0.5-1.4,0.2-1.2c8.4,2.8,16.2,7.4,22.7,13.8
			C609.7,43.1,608.9,43.8,608.3,43.3z"/>
		<g>
			<g>
				<defs>
					<path id="SVGID_3_" d="M490.3,160.2c-0.1-0.3-0.2-0.4-0.5-0.5c-3.3-0.4-2.7,6.9-2.8,8.8c-0.5,6.6-0.1,13.3,1,20
						c0.1,0.9,1.6,1,1.4,0.1c-0.6-4.3-0.9-8.7-1-13c0-2,0-4.1,0.1-6.1c0.1-1.4,0.2-2.9,0.3-4.3c0.1-0.6,0.9-4.5,1-4.3
						c0.2,0.4,0.8,0.2,0.7-0.2L490.3,160.2z M449.4,466.1c0.9,0.5,0.9-1.1,1.6-0.5c0,0,0.1,0.1,0.1,0.1c23.7-29.2,50.5-55.8,80-79.2
						c34.8-27.6,71.8-52.3,102.8-84.3c31.1-32,57.9-67.9,88.9-100c7.6-7.9,15.6-15.4,23.6-22.8c7.1-6.5,14.4-13.2,18.3-22.3
						c3.9-8.7,3.4-19.1-2.6-28.1c-7-10.5-18.4-11.7-27.2-5.5c-8.4,5.9-15,14.6-22,22c-7.6,8-15.2,16.1-22.7,24.1
						c-15,16-29.8,32.3-45.5,47.7c-3,9.1-10.5,15.2-17.5,21.1c-18.5,15.5-37,30.9-55.6,46.3c-9.1,7.6-18,15.5-27.4,22.8
						c-6.4,4.9-13.8,7.9-22.5,4.9c-16.3-5.7-21.7-23.6-18-37.7c-3.1,1.4-6.5,2.2-10,2.1c0,0-0.1,0-0.1,0.1c-0.3,0.2-0.7,0.1-1-0.1
						c-2.4-0.2-4.9-0.7-7.4-1.8c-5.7-2.5-11.8-8.9-14.8-15.6c-0.2-0.1-0.4-0.4-0.4-0.8c0-0.1,0-0.1,0-0.2c-1.5-3.8-2-7.7-0.9-11
						c2.4-6.8,7.8-12.9,12.2-18.2c5-6,10.6-11.6,17.2-16c0.1,0,0.1-0.1,0.2-0.1c-0.2-0.7,0.2-1.6,1.2-1.3c18.8,6,38.3,10.5,57.5,11
						c9.5,0.2,19.3-1,26-7.4c4.3-4.1,6.2-9.5,5.6-15c-0.9,8.5-7.3,15.2-15.8,17.3c-9.3,2.4-26.9,0.7-32.6-9.9
						c-2.9-5.3-2.4-11.5-1.7-16.9c0.7-5.8,1.9-12.8,7.1-15.9c4.3-2.7,9.9-1.4,14.9-0.4c1.4,0.3,2.8,0.6,4.2,0.9
						c-9.6-4-20.3-6.3-29.2-9.1c-0.7-0.2-1.3-0.4-2-0.6c-0.1,0.1-0.2,0.2-0.2,0.3c-0.6,0.7-1.7-0.1-1.7-0.9
						c-15.7-4.9-31-8.9-46.9-6.2c-3.9,0.6-7.7,1.5-11.4,2.6c-0.7,0.9-1.4,1.8-2,2.7c-0.7,0.9-2.3-0.4-1.7-1.4c0-0.1,0.1-0.1,0.1-0.2
						c-25.2,8.3-47.1,26.4-58.1,49.7c-6.4,13.7-10.4,28.5-15.6,42.7c-5.5,15.1-12.7,29.1-21.9,41.9c-9,12.6-19.4,24-30.5,34.7
						c-5.8,5.6-11.8,11-17.9,16.3c-0.4,0.3-0.8,0.7-1.2,1c-0.1,0.3-0.3,0.5-0.7,0.6c-2.2,1.9-4.3,3.7-6.5,5.6
						c-0.6,0.5-5.8,4.5-8.7,6.6L171,486.5c-27.7,25.6-56.6,50.1-84.5,75.5c-14,12.8-28,25.7-41.9,38.7c-7,6.5-13.9,13-20.8,19.6
						C16.9,626.7,10.4,634,3,639.8c-0.9,0.7-2.1-0.1-2.2-1l-0.1,0c0,0.1,0,0.1,0,0.2c2.8,38.8,23,71.9,50.8,101.2
						c25.4,26.9,58.9,62.2,96.9,59.7c0-0.3,0-0.6,0.3-0.9c6.3-8.1,13.9-15.2,20.9-22.6c7-7.5,14.1-15,21.1-22.5
						c13.5-14.4,27-28.8,40.5-43.2c27-28.7,52.5-58.2,78.7-88.2L449.4,466.1z M681.2,230.3c0.5,0.5,1.4-0.1,1-0.7
						c-5.1-6.7-12.8-11.5-20.3-14.6c-0.8-0.3-1,0.9-0.2,1.2C669.3,219.6,675,224.6,681.2,230.3z M685.1,222.6
						c0.5,0.5,1.3-0.1,0.9-0.7c-4.7-6-11-10.8-17.5-14.6c-0.6-0.4-1.1,0.5-0.5,0.9C674.5,212.3,679.7,217.3,685.1,222.6z
						 M734.2,168.3c0.4,0.6,1.3,0.2,1-0.5c-3.3-6.4-8.5-11.4-14.5-15.2c-0.8-0.5-1.3,0.6-0.6,1.1C726,157.6,730.4,162.5,734.2,168.3
						z M727.1,171.8c0.5,0.6,1.4-0.1,1-0.7c-3.1-4.3-7.5-7.6-12.1-9.9c-0.7-0.3-1.2,0.6-0.5,1C719.9,164.7,723.5,168,727.1,171.8z
						 M497.1,182.2c0.3,0.7,1.4,0.3,1.1-0.4c-2.5-5.9-2.9-12-1-17.6c0.2-0.7-1-1.3-1.3-0.6C493.8,169.4,494,176.1,497.1,182.2z"/>
				</defs>
				<clipPath id="SVGID_1_">
					<use xlink:href="#SVGID_3_"  style="overflow:visible;"/>
				</clipPath>
				<g class="st3">
					<g>
						<path class="st0" d="M487.6,174.8c0-2,0-4.1,0.1-6.1c0.1-1.4,0.2-2.9,0.3-4.3c0.1-0.6,0.9-4.5,1-4.3c0.2,0.4,0.8,0.2,0.7-0.2
							l-0.1-0.4c-0.1-0.3-0.2-0.4-0.5-0.5c-3.3-0.4-2.7,6.9-2.8,8.8c-0.5,6.6-0.1,13.3,1,20c0.1,0.9,1.6,1,1.4,0.1
							C488.1,183.5,487.7,179.1,487.6,174.8z"/>
						<path class="st0" d="M497.5,181.1c-2.5-5.9-2.9-12-1-17.6c0.2-0.7-1-1.3-1.3-0.6c-2.2,5.8-1.9,12.5,1.2,18.6
							C496.8,182.1,497.8,181.8,497.5,181.1z"/>
						<path class="st0" d="M469.5,162.1c0-0.1,0.1-0.1,0.1-0.2c-25.2,8.3-47.1,26.4-58.1,49.7c-6.4,13.7-10.4,28.5-15.6,42.7
							c-5.5,15.1-12.7,29.1-21.9,41.9c-9,12.6-19.4,24-30.5,34.7c-5.8,5.6-11.8,11-17.9,16.3c-0.4,0.3-0.8,0.7-1.2,1
							c-0.1,0.3-0.3,0.5-0.7,0.6c-2.2,1.9-4.3,3.7-6.5,5.6c-0.6,0.5-5.8,4.5-8.7,6.6L170.2,485.7c-27.7,25.6-56.6,50.1-84.5,75.5
							c-14,12.8-28,25.7-41.9,38.7c-7,6.5-13.9,13-20.8,19.6C16.2,626,9.7,633.3,2.2,639c-0.9,0.7-2.1-0.1-2.2-1l-0.1,0
							c0,0.1,0,0.1,0,0.2c2.8,38.8,23,71.9,50.8,101.2c25.4,26.9,58.9,62.2,96.9,59.7c0-0.3,0-0.6,0.3-0.9
							c6.3-8.1,13.9-15.2,20.9-22.6c7-7.5,14.1-15,21.1-22.5c13.5-14.4,27-28.8,40.5-43.2c27-28.7,52.5-58.2,79.6-87.6L449.6,466
							c-0.1-0.1,0-1.7,0.7-1.1c0,0,0.1,0.1,0.1,0.1c23.7-29.2,50.5-55.8,80-79.2c34.8-27.6,71.8-52.3,102.8-84.3
							c31.1-32,57.9-67.9,88.9-100c7.6-7.9,15.6-15.4,23.6-22.8c7.1-6.5,14.4-13.2,18.3-22.3c3.9-8.7,3.4-19.1-2.6-28.1
							c-7-10.5-18.4-11.7-27.2-5.5c-8.4,5.9-15,14.6-22,22c-7.6,8-15.2,16.1-22.7,24.1c-15,16-29.8,32.3-45.5,47.7
							c-3,9.1-10.5,15.2-17.5,21.1c-18.5,15.5-37,30.9-55.6,46.3c-9.1,7.6-18,15.5-27.4,22.8c-6.4,4.9-13.8,7.9-22.5,4.9
							c-16.3-5.7-21.7-23.6-18-37.7c-3.1,1.4-6.5,2.2-10,2.1c0,0-0.1,0-0.1,0.1c-0.3,0.2-0.7,0.1-1-0.1c-2.4-0.2-4.9-0.7-7.4-1.8
							c-5.7-2.5-11.8-8.9-14.8-15.6c-0.2-0.1-0.4-0.4-0.4-0.8c0-0.1,0-0.1,0-0.2c-1.5-3.8-2-7.7-0.9-11c2.4-6.8,7.8-12.9,12.2-18.2
							c5-6,10.6-11.6,17.2-16c0.1,0,0.1-0.1,0.2-0.1c-0.2-0.7,0.2-1.6,1.2-1.3c18.8,6,38.3,10.5,57.5,11c9.5,0.2,19.3-1,26-7.4
							c4.3-4.1,6.2-9.5,5.6-15c-0.9,8.5-7.3,15.2-15.8,17.3c-9.3,2.4-26.9,0.7-32.6-9.9c-2.9-5.3-2.4-11.5-1.7-16.9
							c0.7-5.8,1.9-12.8,7.1-15.9c4.3-2.7,9.9-1.4,14.9-0.4c1.4,0.3,2.8,0.6,4.2,0.9c-9.6-4-20.3-6.3-29.2-9.1
							c-0.7-0.2-1.3-0.4-2-0.6c-0.1,0.1-0.2,0.2-0.2,0.3c-0.6,0.7-1.7-0.1-1.7-0.9c-15.7-4.9-31-8.9-46.9-6.2
							c-3.9,0.6-7.7,1.5-11.4,2.6L469.5,162.1z M487.2,187.7c-1.1-6.7-1.4-13.4-1-20c0.1-1.9-0.5-9.2,2.8-8.8c0.3,0,0.4,0.2,0.5,0.5
							l0.1,0.4c0.1,0.4-0.6,0.5-0.7,0.2c-0.1-0.1-0.9,3.7-1,4.3c-0.1,1.4-0.2,2.9-0.3,4.3c-0.1,2-0.1,4.1-0.1,6.1
							c0.1,4.3,0.5,8.7,1,13C488.8,188.7,487.3,188.6,487.2,187.7z M496.4,181.5c-3.1-6.1-3.4-12.8-1.2-18.6
							c0.3-0.7,1.5-0.1,1.3,0.6c-1.9,5.6-1.4,11.7,1,17.6C497.8,181.8,496.8,182.1,496.4,181.5z M720,151.9
							c6,3.8,11.2,8.8,14.5,15.2c0.3,0.7-0.5,1.1-1,0.5c-3.8-5.9-8.2-10.8-14.1-14.6C718.6,152.5,719.2,151.4,720,151.9z
							 M726.3,171.1c-3.6-3.8-7.2-7.1-11.7-9.7c-0.7-0.4-0.2-1.3,0.5-1c4.6,2.4,9,5.7,12.1,9.9C727.8,171,726.9,171.6,726.3,171.1z
							 M667.8,206.6c6.4,3.8,12.8,8.6,17.5,14.6c0.4,0.6-0.4,1.1-0.9,0.7c-5.4-5.3-10.6-10.3-17.1-14.4
							C666.8,207.1,667.2,206.3,667.8,206.6z M680.5,229.6c-6.2-5.7-11.9-10.7-19.6-14.1c-0.8-0.3-0.5-1.5,0.2-1.2
							c7.5,3.1,15.3,7.9,20.3,14.6C681.9,229.5,681,230.1,680.5,229.6z"/>
					</g>
					<g class="st4">
						<g class="st5">
							<g>
								<path class="st1" d="M489,490.9c-0.7-4.2-7.8-21.7-12.4-10.9c-2,4.7,0.1,10.9,1.9,15.3c1.9,4.6,4.6,10.6,9.7,12.3
									c2.2,0.7,3.1-2.7,0.9-3.5c-6.2-2.1-9.5-14.3-9.8-20c0-0.7,0.6-4.1,1.1-3.9c1.1,0.5,1.8,2.4,2.3,3.4c1.3,2.5,2.2,5.4,2.7,8.2
									C486,494,489.4,493.1,489,490.9L489,490.9z"/>
							</g>
							<g>
								<path class="st1" d="M482.7,496.7c1.8-0.4,3.4-1.3,5-2.3c1.5-0.9,2.9-2.2,4.5-2.8c2.1-0.8,1.2-4.3-0.9-3.5
									c-3.4,1.3-5.9,4.2-9.5,5.1C479.5,493.7,480.4,497.2,482.7,496.7L482.7,496.7z"/>
							</g>
							<g>
								<path class="st1" d="M489.2,489.6c0.9,2.8,3.3,14.8-1.9,14.5c-2.3-0.1-2.3,3.5,0,3.6c8.8,0.5,7-13.8,5.4-19
									C492,486.5,488.5,487.4,489.2,489.6L489.2,489.6z"/>
							</g>
							<g>
								<path class="st1" d="M478.4,486.3c2.9,1.8,4.8,3.7,6.6,6.6c1.2,2,4.3,0.2,3.1-1.8c-2.1-3.4-4.5-5.9-7.9-7.9
									C478.2,482,476.5,485.1,478.4,486.3L478.4,486.3z"/>
							</g>
							<g>
								<path class="st1" d="M481.8,476.3c-0.5-3.8,1.1-5.2,4.6-4.4c0.9,0.8,1.4,2.3,1.9,3.4c1.2,2.7,1.6,3.6,3.7,5.7
									c2.3,2.4,4.4,5,4.7,8.4c0.2,1.9,0.2,9.6-3.8,8.1c-2.2-0.8-3.1,2.7-0.9,3.5c4.8,1.8,7.1-2.2,7.9-6.4
									c1.3-6.5-1.1-11.3-5.4-16.1c-3.2-3.5-3.8-9.3-8.7-11c-5.4-1.8-8.2,5.8-7.5,9.7C478.7,479.5,482.2,478.6,481.8,476.3
									L481.8,476.3z"/>
							</g>
							<g>
								<path class="st1" d="M481.3,474c-3.2-3.5-5.2-8.6-9.2-11.4c-2.6-1.8-7.7-3.3-9.9-0.1c-2,2.8-1.2,11.7-4.4,12.8
									c-4.5,1.5-4.9,5.3-3.7,9.4c0.6,2.1,2,3.9,3.1,5.7c2.2,3.3,3,6.9,4,10.7c1.2,4.5,3.5,10.2,7.3,13c4.1,3,8.5,3,13.2,1.4
									c4.2-1.5,5.4-7.2,5.9-11.2c0.3-2.3-3.3-2.3-3.6,0c-0.6,5.7-2.8,8.7-8.6,8.8c-5.4,0.1-7.1-5.1-9.1-8.9
									c-2.1-4-2.6-8.5-4.2-12.7c-1.5-3.8-4.6-5.9-5.1-10.3c-0.4-3,4.1-2.4,5.2-4.4c1.4-2.3,1.3-5.5,1.9-8.1
									c0.2-1.1,0.3-2.1,0.5-3.2c2.6-1.5,4.7-1.3,6.4,0.7c0.9,1,1.8,2,2.6,3.1c1.8,2.4,3.2,4.9,5.2,7.1
									C480.3,478.3,482.8,475.8,481.3,474L481.3,474z"/>
							</g>
							<g>
								<path class="st1" d="M476.6,516.6c3.4,3.9,6.7,11.4,12.9,11.5c4.8,0.1,4.7-5.4,8-7.7c3.3-2.2,7-2.1,7.6-6.7
									c0.9-6.3-2.8-12.4-6.1-17.4c-1.3-1.9-4.4-0.2-3.1,1.8c2.8,4.3,5.4,8.6,5.7,13.9c0.2,3.7-4.6,4.5-7.2,6.2
									c-1.8,1.2-2.7,3.7-3.6,5.6c-2.1,4.1-10.3-8.1-11.7-9.6C477.6,512.3,475.1,514.8,476.6,516.6L476.6,516.6z"/>
							</g>
							<g>
								<path class="st1" d="M485.6,465.6c-4.8-1.7-8.7-5-14-2.9c-2.1,0.8-1.2,4.3,0.9,3.5c4.5-1.7,8.1,1.5,12.2,2.9
									C486.8,469.8,487.7,466.4,485.6,465.6L485.6,465.6z"/>
							</g>
							<g>
								<path class="st1" d="M480.3,461.8c-1.1-8.6-11.7-23-21.9-18.7c-3.4,1.5-6,5.3-8.8,7.8c-3.4,3-7,4.8-7.7,9.5
									c-0.4,2.7,0.4,5.3,2.8,6.8c5,3.3,6.7,6.7,9.1,12c1,2.1,4.1,0.3,3.1-1.8c-1.8-3.9-3.1-8.6-6.9-11.1c-0.8-0.5-1.6-1-2.4-1.5
									c-6.1-3.6,0-7.7,1.9-9.2c3.1-2.3,5.6-4.4,8-7.4c7.2-8.9,18.5,8.2,19.3,14.5C477.2,465,480.6,464,480.3,461.8L480.3,461.8z"
									/>
							</g>
							<g>
								<path class="st1" d="M452.6,471.6c-6-3-10.9,1.6-13,7.4c-0.9,2.6,0.3,5.5,1.5,7.8c2.8,5.1,5.8,7.8,6.3,14.1
									c0.7,9,7.8,17.9,15.1,22.9c6.6,4.5,13.9,1.9,18.8-3.5c1.5-1.7-1-4.2-2.5-2.5c-4.8,5.4-10.6,6.2-16.3,1.6
									c-5.3-4.3-11-11.6-11.5-18.5c-0.4-4.6-1.1-8.2-3.9-11.9c-1.6-2.1-3.2-4.1-4-6.7c-1.1-3.6,3.8-9.6,7.8-7.5
									C452.8,475.7,454.6,472.6,452.6,471.6L452.6,471.6z"/>
							</g>
							<g>
								<path class="st1" d="M480.9,454.8c-0.2-0.3-0.3-0.6-0.5-1c-0.1,0.7-0.2,1.4-0.3,2.1c3.7-3.9,9,8.6,10.1,10
									c2.8,3.5,6,6.5,9.1,9.8c6.5,6.8,10.8,21.6,2.7,28.8c-1.7,1.5,0.8,4.1,2.5,2.5c8.4-7.5,6.1-22.9-0.3-31
									c-2.4-3-5.1-5.6-7.7-8.3c-3.6-3.6-5.7-7.7-8-12.1c-2-3.8-7.8-5.7-11-2.3c-0.6,0.6-0.6,1.4-0.3,2.1c0.2,0.3,0.3,0.6,0.5,1
									C478.7,458.7,481.8,456.9,480.9,454.8L480.9,454.8z"/>
							</g>
							<g>
								<path class="st1" d="M467.4,531.9c5.6-2.4,11.6-6.4,18-5.4c2.3,0.4,3.2-3.1,0.9-3.5c-7.5-1.2-14,2.9-20.6,5.7
									C463.6,529.7,465.4,532.8,467.4,531.9L467.4,531.9z"/>
							</g>
						</g>
						<g class="st5">
							<g>
								<g>
									<path class="st1" d="M370.2,474.1c0.5-4.4-2.2-11.9,3.9-12.5c4.5-0.5,10.3-0.3,14.5,1.4c-0.1-0.9-0.3-1.9-0.4-2.8
										c-6.7,8.7-9.1,21.8-18.5,28.2c-5.6,3.8-14,1.9-15.7-4.9c-2.5-9.5,10.3-12,16.1-15.5c2-1.2,0.2-4.3-1.8-3.1
										c-7.3,4.4-16.1,5.3-17.9,14.9c-1.2,6,2.7,11.3,8.1,13.3c6.9,2.6,14.3-1.6,18.5-6.7c5.9-7.1,8.2-16.5,13.8-23.8
										c0.6-0.8,0.8-2.3-0.4-2.8c-5.7-2.4-13-2.5-19.1-1.5c-7,1.1-4.1,11.1-4.7,15.7C366.3,476.4,369.9,476.4,370.2,474.1
										L370.2,474.1z"/>
								</g>
								<g>
									<path class="st1" d="M366.3,476.2c3.2,3,7.5,4.3,11.3,6.2c2.1,1,3.8-2.1,1.8-3.1c-3.5-1.7-7.7-2.9-10.6-5.6
										C367.1,472.1,364.6,474.7,366.3,476.2L366.3,476.2z"/>
								</g>
								<g>
									<path class="st1" d="M368.2,478.2c0,0,4.2-0.8,2.5-2.5C369.1,474,366.5,476.5,368.2,478.2
										C368.2,478.2,366.5,476.5,368.2,478.2z"/>
								</g>
								<g>
									<path class="st1" d="M369.8,476.9c0,0-8,8.4-9,14.4c-0.4,2.3,3.1,3.1,3.5,0.9c0.9-5.4,3.8-8.5,8-12.7
										C374,477.7,371.5,475.2,369.8,476.9C369.8,476.9,371.5,475.2,369.8,476.9z"/>
								</g>
								<g>
									<path class="st1" d="M355.9,474.2c2,4,4.8,10.6,10,11c2.3,0.2,2.3-3.4,0-3.6c-1.8-0.2-3.2-2.8-4.1-4.1
										c-1.1-1.6-1.9-3.4-2.8-5.1C357.9,470.3,354.8,472.1,355.9,474.2L355.9,474.2z"/>
								</g>
								<g>
									<path class="st1" d="M386.5,460.2c2.7-3.1,4.1-7,6.7-10.1c4.2-5,11.8-4,16.9-1.5c5.7,2.7,7.9,5.9,6.9,12.2
										c-0.8,4.7-1.4,9.5-2.2,14.1c-2.3,12.7-13.3,17.8-23.7,22.8c-7.8,3.8-27.1,14-23.6-3.8c0.4-2.2-3-3.2-3.5-0.9
										c-0.8,4.3-1.6,10.8,3.1,13.4c4.7,2.6,10,1.4,14.9-0.2c6.6-2.2,13-6.3,19.2-9.4c7.3-3.8,12.7-9.1,15.8-16.7
										c2.5-6,3-14,3.7-20.4c0.7-5.8-0.9-9.5-6.1-12.4c-5.5-3-10-5-16.4-3.9c-8.1,1.4-9.7,9-14.4,14.3
										C382.4,459.4,385,462,386.5,460.2L386.5,460.2z"/>
								</g>
								<g>
									<path class="st1" d="M397.1,446.7c-1.2-4.5-2.7-12.1-8.6-12.8c-4.7-0.6-8,4.1-11.6,6.2c-6.2,3.8-13.4,2.9-17,10.1
										c-3,6.3-3.6,13.3-2.5,20.1c0.4,2.3,3.8,1.3,3.5-0.9c-0.9-5.7-0.1-10.6,1.7-15.9c2.3-7.1,7.9-6.2,13.4-9
										c3-1.5,5.5-3.3,8.1-5.4c6.1-4.9,8.3,3.9,9.5,8.5C394.2,449.8,397.7,448.9,397.1,446.7L397.1,446.7z"/>
								</g>
								<g>
									<path class="st1" d="M366.3,504c-3.5,3.3-9.4,6.5-13.2,1.3c-1.5-2-1.5-6.2-4.1-7.5c-4-2.1-8.8-2.7-12.3-5.6
										c-2.6-2.2-4.1-6.2-4.7-9.4c-2.9-13.9,13.8-24,25.8-22.2c2.3,0.3,3.2-3.1,0.9-3.5c-14.4-2.2-32.5,9.1-30.3,25.4
										c0.6,4,2.2,7.9,4.9,11c4.6,5.5,13.1,4.3,15.9,11.7c3.6,9.4,13.9,6.4,19.6,1.2C370.5,505,367.9,502.5,366.3,504L366.3,504z"
										/>
								</g>
								<g>
									<path class="st1" d="M357.3,510.4c0,6.8,1.5,18.6,10.3,19.6c7.9,0.9,11.9-7.7,18.6-9.9c5.1-1.7,11.2,1.1,16.6,0.1
										c5.5-1,8.9-3.8,12.1-8.2c3.3-4.5,6.2-9.9,7.3-15.4c1-5.2-3.6-8.9-3.2-13.9c0.2-2.3-3.4-2.3-3.6,0c-0.3,3.4,1.1,6.1,2.5,9.1
										c2.5,5.2-1.7,10.9-4,15.3c-3,5.8-8,9.6-14.6,10c-4.1,0.3-8.1-1-12.2-0.7c-5.4,0.4-9.3,5.4-13.5,8.3
										c-9.6,6.8-12.8-7.1-12.8-14.2C360.9,508,357.3,508,357.3,510.4L357.3,510.4z"/>
								</g>
								<g>
									<path class="st1" d="M418.1,482.4c11.7-8.8,36.1-29,19.6-44.2c-4.7-4.3-11.2-6.7-17.3-7.7c-4.4-0.7-8.5-1.1-12.3-3.5
										c-4.1-2.5-7.9-5.5-12-8.1c-5.9-3.7-12.9-2.6-18,1.9c-5.3,4.7-6.2,13.5-7.2,19.9c-0.4,2.3,3.1,3.2,3.5,0.9
										c1-6.3,1.8-13.3,6.3-18.3c7.1-7.9,16.2,0.6,22.3,4.8c10.2,7.1,23.6,4.5,33.1,13.3c13.3,12.3-10.8,31.2-19.6,37.8
										C414.5,480.7,416.3,483.8,418.1,482.4L418.1,482.4z"/>
								</g>
								<g>
									<path class="st1" d="M373.5,434.7c-10.5-4.7-19.8-6.6-28.3,2.8c-2.7,3.1-2.2,6.1-6,8.9c-2.9,2.1-5,3.4-6.5,6.6
										c-2.3,5.1-2,10.5,1.6,14.8c1.5,1.8,4-0.8,2.5-2.5c-4.6-5.6-0.9-12.4,4.2-15.8c3.6-2.4,4.6-4.8,6.2-8.7
										c1.9-4.6,8.1-7,12.6-6.9c4.1,0.1,8.2,2.2,11.9,3.8C373.8,438.7,375.6,435.6,373.5,434.7L373.5,434.7z"/>
								</g>
								<g>
									<path class="st1" d="M437.1,466.6c12.5-2.1,3.3,10.9,1.1,15.1c-1.6,2.9-0.9,6.3-0.1,9.2c2.8,11.5-7,21.3-15.4,27.2
										c-6.6,4.7-13.4,9.4-20,14c-3.4,2.4-7.5,0.6-10.8-1.2c-3.6-1.9-11.7-2.6-13.2-6.8c-0.8-2.1-4.3-1.2-3.5,0.9
										c1.6,4.2,6,5.5,9.8,7c4.8,1.8,10,5.3,15.3,4.8c3.7-0.3,6.8-3.5,9.5-5.7c5.6-4.5,12.2-7.8,17.9-12.2c5-4,9.3-8.4,12.1-14.3
										c3-6.5,1.7-12,1.1-18.7c-0.3-4.2,4.3-6.9,5.5-10.5c0.9-2.7,1.3-5,0.5-7.8c-1.4-4.6-6.5-5.2-10.5-4.5
										C433.9,463.5,434.8,467,437.1,466.6L437.1,466.6z"/>
								</g>
								<g>
									<path class="st1" d="M328.3,477.9c-3.3,3.2-9.4,7-8.7,12.4c0.4,3.1,2,5.4,4.3,7.4c2.9,2.6,5.4,2.8,7,7.3
										c0.8,2.1,1.3,4.4,1.9,6.6c4.7,15.4,21,19.5,35,17.3c2.3-0.4,1.3-3.8-0.9-3.5c-13.2,2.1-26.8-2-31.1-16.1
										c-1.6-5.3-2.3-9-6.8-12.3c-3.9-2.8-8.1-6.2-4.2-11c1.7-2.1,4-3.8,6-5.6C332.5,478.8,330,476.3,328.3,477.9L328.3,477.9z"/>
								</g>
							</g>
							<g>
								<path class="st1" d="M432.8,513.8c13.5,3.9,24,8.5,33.7,19.1c9.5,10.4,16.5,23,19,37c0.4,2.3,3.9,1.3,3.5-0.9
									c-2.6-14.7-10.1-27.5-19.9-38.6c-9.8-11.1-21.3-16-35.3-20C431.5,509.7,430.6,513.1,432.8,513.8L432.8,513.8z"/>
							</g>
							<g>
								<path class="st1" d="M410.5,528.5c5.8,16.6,16.8,33.4,33.9,39.8c13.2,5,31.3,8.6,44.6,1.7c2-1.1,0.3-4.2-1.8-3.1
									c-11.9,6.3-28.4,2.8-40.4-1.5c-16.5-5.8-27.3-21.9-32.9-37.9C413.2,525.4,409.7,526.3,410.5,528.5L410.5,528.5z"/>
							</g>
							<g>
								<path class="st1" d="M423.9,521.8c3.3,9.8,14.8,15.1,22.7,20.5c5.6,3.9,10.8,7.7,16.8,11.1c7.2,4.1,14.4,8.3,19.9,14.7
									c1.5,1.7,4-0.8,2.5-2.5c-3.9-4.5-8.7-8-13.7-11.1c-6.1-3.8-13.9-6.6-19.2-11.6c-7.6-7.2-22-11.3-25.6-22
									C426.7,518.7,423.2,519.6,423.9,521.8L423.9,521.8z"/>
							</g>
							<g>
								<path class="st1" d="M469.4,540.3c0.8,5.9,0.1,11.8,0.8,17.7c0.3,2.3,3.7,1.3,3.5-0.9c-0.8-5.9-0.1-11.8-0.8-17.7
									C472.6,537.1,469.1,538,469.4,540.3L469.4,540.3z"/>
							</g>
							<g>
								<path class="st1" d="M460.1,527.2c0.7,7.9-0.7,15.7,0,23.6c0.2,2.3,3.8,2.3,3.6,0c-0.7-7.9,0.7-15.7,0-23.6
									C463.5,524.9,459.9,524.9,460.1,527.2L460.1,527.2z"/>
							</g>
							<g>
								<path class="st1" d="M448.3,520.5c0,6.9-0.4,14-2.5,20.6c-0.7,2.2,2.8,3.1,3.5,0.9c2.1-6.8,2.5-14.4,2.6-21.5
									C451.9,518.2,448.3,518.2,448.3,520.5L448.3,520.5z"/>
							</g>
							<g>
								<path class="st1" d="M437.4,514.1c-0.9,6.2-2.4,12.3-3.4,18.5c-0.3,2.3,3.1,3.2,3.5,0.9c0.9-6.2,2.4-12.3,3.4-18.5
									C441.2,512.8,437.8,511.8,437.4,514.1L437.4,514.1z"/>
							</g>
							<g>
								<path class="st1" d="M434.5,530.2c-4.1,3.8-10.2,4-14.3,7.6c-1.7,1.5,0.8,4,2.5,2.5c1.9-1.7,4.7-2.3,7-3.2
									c2.7-1.1,5.2-2.4,7.3-4.4C438.7,531.1,436.2,528.6,434.5,530.2L434.5,530.2z"/>
							</g>
							<g>
								<path class="st1" d="M446.7,540c-6.6,2.8-13.4,5.2-19.4,9.3c-1.9,1.3-0.1,4.4,1.8,3.1c6-4.1,12.8-6.5,19.4-9.3
									C450.6,542.2,448.8,539.1,446.7,540L446.7,540z"/>
							</g>
							<g>
								<path class="st1" d="M458.1,548.7c-5.9,5.5-13.5,8.8-20.7,12.3c-2.1,1-0.3,4.1,1.8,3.1c7.4-3.7,15.3-7.1,21.4-12.9
									C462.3,549.6,459.8,547.1,458.1,548.7L458.1,548.7z"/>
							</g>
							<g>
								<path class="st1" d="M469.1,556.3c-4.3,5.5-11,7.9-16,12.6c-1.7,1.6,0.8,4.1,2.5,2.5c5-4.7,11.7-7.1,16-12.6
									C473,557,470.5,554.5,469.1,556.3L469.1,556.3z"/>
							</g>
							<g>
								<path class="st1" d="M361.8,527.2c-3.1,6.7-6.5,13.3-8.5,20.5c-1.9,7-1.5,14.9-0.8,22c1.5,14.7,7.9,28.4,15.2,41.1
									c1.1,2,4.3,0.2,3.1-1.8c-6.5-11.3-11.8-23.1-14.2-36c-1.3-7.3-1.4-15.2-0.2-22.5c1.2-7.6,5.3-14.6,8.5-21.5
									C365.8,526.9,362.7,525.1,361.8,527.2L361.8,527.2z"/>
							</g>
							<g>
								<path class="st1" d="M412.1,538.6c2.3,6.8-1,14.1-3.9,20.3c-2.7,5.7-5.7,12-9.2,17.3c-4.1,6.1-8.4,12.1-13.1,17.8
									c-4.8,5.8-10.7,12.5-18,14.9c-2.2,0.7-1.3,4.2,0.9,3.5c14.8-4.9,25.1-22.2,33.3-34.4c4.1-6.1,7.4-13.3,10.4-19.9
									c2.8-6.2,5.3-13.5,3-20.3C414.9,535.5,411.4,536.4,412.1,538.6L412.1,538.6z"/>
							</g>
							<g>
								<path class="st1" d="M388.5,534.3c-4.6,25.1-17.3,48.2-19.4,73.8c-0.2,2.3,3.4,2.3,3.6,0c2.1-25.2,14.8-48.1,19.3-72.8
									C392.4,533,389,532.1,388.5,534.3L388.5,534.3z"/>
							</g>
							<g>
								<path class="st1" d="M390.7,536.1c7.8,6.3,12.8,15.8,16.6,24.9c0.9,2.1,4,0.3,3.1-1.8c-3.9-9.3-9.1-19.2-17.1-25.7
									C391.4,532.1,388.9,534.6,390.7,536.1L390.7,536.1z"/>
							</g>
							<g>
								<path class="st1" d="M386.9,547c1.4,9.7,12.8,15.2,13.4,24.8c0.2,2.3,3.7,2.3,3.6,0c-0.7-10.3-12.1-15.7-13.5-25.7
									C390,543.8,386.5,544.8,386.9,547L386.9,547z"/>
							</g>
							<g>
								<path class="st1" d="M379.3,566.4c1.3,8.2,7.3,14.3,10.1,21.9c0.8,2.2,4.2,1.3,3.5-0.9c-2.8-7.6-8.9-13.8-10.1-21.9
									C382.4,563.2,378.9,564.2,379.3,566.4L379.3,566.4z"/>
							</g>
							<g>
								<path class="st1" d="M373,591.3c0,0,5.1,5.1,8.4,8.4c1.7,1.7,4.2-0.8,2.5-2.5c-3.4-3.4-5.9-5.9-8.4-8.4
									C373.9,587.1,371.4,589.6,373,591.3C373,591.3,371.4,589.6,373,591.3z"/>
							</g>
							<g>
								<path class="st1" d="M372.2,587.4c-2.7,2.6-6.5,6-10.5,6.2c-2.3,0.1-2.3,3.7,0,3.6c5-0.3,9.6-3.9,13.1-7.3
									C376.3,588.4,373.8,585.8,372.2,587.4L372.2,587.4z"/>
							</g>
							<g>
								<path class="st1" d="M381.4,566.8c-9.5,1.4-18.1,6.9-26.5,11.1c-2.1,1-0.3,4.1,1.8,3.1c8.2-4.1,16.5-9.4,25.7-10.8
									C384.6,569.9,383.6,566.4,381.4,566.8L381.4,566.8z"/>
							</g>
							<g>
								<path class="st1" d="M387.3,545.7c-11.2,4.1-23,5-34.5,7.6c-2.3,0.5-1.3,4,0.9,3.5c11.5-2.5,23.4-3.5,34.5-7.6
									C390.4,548.4,389.5,544.9,387.3,545.7L387.3,545.7z"/>
							</g>
							<g>
								<path class="st1" d="M359.1,539.1c11.2-0.3,22-5.7,33.2-3.4c2.2,0.4,3.2-3,0.9-3.5c-11.7-2.3-22.6,3-34.2,3.3
									C356.8,535.6,356.8,539.2,359.1,539.1L359.1,539.1z"/>
							</g>
							<g>
								<path class="st1" d="M360,431.5c-1.7-7.9-9.1-15.3-15.1-20.3c-3.2-2.6-6.6-4.9-9.9-7.3c-2.2-1.6-8.1-4.8-8.7-7.8
									c-0.4-2.3-3.9-1.3-3.5,0.9c1,5.5,10.9,10.4,14.9,13.4c7.2,5.2,16.8,13,18.8,22C357,434.7,360.5,433.8,360,431.5L360,431.5z"
									/>
							</g>
							<g>
								<path class="st1" d="M322.2,396.6c-4.1,7.2-4.6,18.8-3.3,26.8c1.7,10.8,7.7,19.3,16.7,25.3c1.9,1.3,3.7-1.8,1.8-3.1
									c-8.6-5.8-14-14.2-15.1-24.6c-0.7-6.9-0.3-16.7,3.1-22.7C326.4,396.3,323.3,394.6,322.2,396.6L322.2,396.6z"/>
							</g>
							<g>
								<path class="st1" d="M356.7,423.6c0.1-8,2-16,6.5-22.7c1.3-1.9-1.8-3.7-3.1-1.8c-4.8,7.2-6.8,15.9-7,24.5
									C353.1,425.9,356.6,425.9,356.7,423.6L356.7,423.6z"/>
							</g>
							<g>
								<path class="st1" d="M360.4,399.6c8.8,7.8,10.3,19.6,9.6,30.8c-0.1,2.3,3.4,2.3,3.6,0c0.8-12.1-1.2-24.9-10.6-33.3
									C361.2,395.5,358.6,398,360.4,399.6L360.4,399.6z"/>
							</g>
							<g>
								<path class="st1" d="M333.4,465.7c-22.1-6.1-47.7-9.5-68.7,1.9c-2,1.1-0.3,4.2,1.8,3.1c20.2-10.9,44.9-7.3,66.1-1.5
									C334.8,469.7,335.7,466.3,333.4,465.7L333.4,465.7z"/>
							</g>
							<g>
								<path class="st1" d="M262.1,470.8c-0.9,7.1,3.9,12.9,8.5,17.7c5.5,5.8,11.4,11.4,18.3,15.6c14,8.6,31,9,46.2,3.8
									c2.2-0.7,1.3-4.2-0.9-3.5c-14.2,4.9-28.8,4.5-42.2-2.6c-6-3.2-10.8-7.8-15.6-12.5c-5-4.9-11.7-10.9-10.8-18.5
									C266,468.5,262.4,468.5,262.1,470.8L262.1,470.8z"/>
							</g>
							<g>
								<path class="st1" d="M371.3,431.6c-0.6,0.7-0.8,1.3-0.9,2.2c0,0.2,0,0.4,0,0.6c0,0.4,0.1-0.4,0,0c0-0.1,0.1-0.1,0.1-0.2
									c-0.1,0.2-0.1,0.2,0,0c-0.7,0.7-0.7,1.8,0,2.5c0.7,0.7,1.9,0.7,2.5,0c0.6-0.7,0.8-1.3,0.9-2.2c0-0.2,0-0.4,0-0.6
									c0-0.4-0.1,0.4,0,0c0,0.1-0.1,0.1-0.1,0.2c0.1-0.2,0.1-0.2,0,0c0.7-0.7,0.7-1.8,0-2.5C373.2,430.9,372,430.9,371.3,431.6
									L371.3,431.6z"/>
							</g>
							<g>
								<path class="st1" d="M323.7,506.3c-9.6,4.4-18.8,9-26.5,16.3c-1.7,1.6,0.9,4.1,2.5,2.5c7.5-7.1,16.5-11.5,25.7-15.7
									C327.5,508.4,325.8,505.3,323.7,506.3L323.7,506.3z"/>
							</g>
							<g>
								<path class="st1" d="M298.6,524.7c4.5,6.1,13.7,5.7,20.4,4.7c6.8-1,17.3-2.8,22-8.6c1.4-1.8-1.1-4.3-2.5-2.5
									c-3.6,4.4-11.1,5.8-16.4,7c-5.5,1.2-16.4,3.1-20.4-2.4C300.3,521.1,297.2,522.9,298.6,524.7L298.6,524.7z"/>
							</g>
							<g>
								<path class="st1" d="M360.7,399.6c2.4,11.7-1.3,23.7,1.7,35.4c0.6,2.2,4,1.3,3.5-0.9c-3-11.7,0.7-23.7-1.7-35.4
									C363.7,396.4,360.3,397.3,360.7,399.6L360.7,399.6z"/>
							</g>
							<g>
								<path class="st1" d="M323.7,401.3c2.1,15.4,11.8,27.2,22.4,37.9c1.6,1.6,4.2-0.9,2.5-2.5c-10.2-10.3-19.4-21.5-21.4-36.3
									C326.8,398.1,323.4,399,323.7,401.3L323.7,401.3z"/>
							</g>
							<g>
								<path class="st1" d="M264.3,472c15,16,39.2,11.7,57.7,20.5c2.1,1,3.9-2.1,1.8-3.1c-18-8.5-42.4-4.5-56.9-19.9
									C265.3,467.8,262.7,470.3,264.3,472L264.3,472z"/>
							</g>
							<g>
								<path class="st1" d="M299.7,525.6c13.6,2.4,24.1-11.4,37.5-10.1c2.3,0.2,2.3-3.4,0-3.6c-13.2-1.3-23.8,12.4-36.6,10.2
									C298.3,521.7,297.4,525.2,299.7,525.6L299.7,525.6z"/>
							</g>
							<g>
								<path class="st1" d="M307.3,518.4c2.3,2.2,5.4,3.1,8.5,2.1c2.2-0.7,1.3-4.1-0.9-3.5c-1.9,0.6-3.6,0.1-5-1.2
									C308.1,514.2,305.6,516.8,307.3,518.4L307.3,518.4z"/>
							</g>
							<g>
								<path class="st1" d="M316.5,513.8c2.5,0.8,5.1,1.7,7.6,2.5c2.2,0.7,3.1-2.7,0.9-3.5c-2.5-0.8-5.1-1.7-7.6-2.5
									C315.2,509.6,314.3,513,316.5,513.8L316.5,513.8z"/>
							</g>
							<g>
								<path class="st1" d="M323.7,515c-0.7,3.9-0.9,7.9-1.7,11.8c-0.4,2.2,3,3.2,3.5,0.9c0.7-3.9,0.9-7.9,1.7-11.8
									C327.6,513.6,324.1,512.7,323.7,515L323.7,515z"/>
							</g>
							<g>
								<path class="st1" d="M315.7,520.9c-2.2,2.3-3.1,5.4-2.1,8.5c0.7,2.2,4.1,1.3,3.5-0.9c-0.6-1.9-0.1-3.6,1.2-5
									C319.8,521.7,317.3,519.2,315.7,520.9L315.7,520.9z"/>
							</g>
							<g>
								<path class="st1" d="M353.3,414.3c1.9,3.4,5.1,5.3,7.9,8c1.7,1.6,4.2-0.9,2.5-2.5c-2.5-2.4-5.6-4.1-7.3-7.2
									C355.3,410.6,352.2,412.3,353.3,414.3L353.3,414.3z"/>
							</g>
							<g>
								<path class="st1" d="M363.7,422.3c2.6-2.5,5.8-4.2,8.4-6.7c1.7-1.6-0.9-4.1-2.5-2.5c-2.6,2.5-5.8,4.2-8.4,6.7
									C359.5,421.4,362.1,423.9,363.7,422.3L363.7,422.3z"/>
							</g>
							<g>
								<path class="st1" d="M364.6,432.9c0,0,5.1-5.1,7.6-7.6c1.7-1.7-0.8-4.2-2.5-2.5c-2.5,2.5-5.1,5.1-7.6,7.6
									C360.4,432.1,362.9,434.6,364.6,432.9C364.6,432.9,362.9,434.6,364.6,432.9z"/>
							</g>
							<g>
								<path class="st1" d="M335.4,409.2c-0.2,4.5-3.2,7.9-4.2,12.2c-0.5,2.2,2.9,3.2,3.5,0.9c1.1-4.6,4.1-8.2,4.3-13.1
									C339.1,406.9,335.5,406.9,335.4,409.2L335.4,409.2z"/>
							</g>
							<g>
								<path class="st1" d="M319.1,418.9c3.7,3.5,8.5,5.3,13.4,6.4c2.2,0.5,3.2-3,0.9-3.5c-4.3-0.9-8.6-2.4-11.8-5.4
									C319.9,414.8,317.4,417.4,319.1,418.9L319.1,418.9z"/>
							</g>
							<g>
								<path class="st1" d="M343.9,415.5c-1,5.9-4.2,11-6.6,16.4c-0.9,2.1,2.2,3.9,3.1,1.8c2.5-5.7,5.9-11.1,6.9-17.3
									C347.7,414.2,344.3,413.3,343.9,415.5L343.9,415.5z"/>
							</g>
							<g>
								<path class="st1" d="M325.4,436.9c2.4-1.1,5.4-1,7.9-1.3c2.5-0.3,5-0.8,7.2-2c2-1.1,0.3-4.2-1.8-3.1
									c-4.7,2.5-10.4,1.2-15.2,3.4C321.6,434.7,323.4,437.8,325.4,436.9L325.4,436.9z"/>
							</g>
							<g>
								<path class="st1" d="M351.5,423.1c-1.5,4.5-3.5,8.9-5.1,13.5c-0.7,2.2,2.7,3.1,3.5,0.9c1.5-4.5,3.5-8.9,5.1-13.5
									C355.7,421.8,352.2,420.9,351.5,423.1L351.5,423.1z"/>
							</g>
							<g>
								<path class="st1" d="M333,445.6c4.4-0.1,8.8-1.7,12.7-3.6c2.1-1,0.3-4.1-1.8-3.1c-3.3,1.6-7.2,3-10.9,3.1
									C330.7,442.1,330.7,445.6,333,445.6L333,445.6z"/>
							</g>
							<g>
								<path class="st1" d="M276.5,465.3c2.1,6,5.3,12.2,9.7,16.8c1.6,1.7,4.1-0.9,2.5-2.5c-4-4.2-6.9-9.8-8.8-15.2
									C279.2,462.2,275.7,463.1,276.5,465.3L276.5,465.3z"/>
							</g>
							<g>
								<path class="st1" d="M290.8,460.6c1.1,8.5,3.8,17.6,9.8,24c1.6,1.7,4.1-0.8,2.5-2.5c-5.3-5.7-7.8-13.9-8.7-21.5
									C294,458.4,290.5,458.4,290.8,460.6L290.8,460.6z"/>
							</g>
							<g>
								<path class="st1" d="M304.8,465.3c5.6,5.9,10,14.1,12.2,21.9c0.6,2.2,4.1,1.3,3.5-0.9c-2.3-8.5-7-17.1-13.1-23.6
									C305.7,461.1,303.2,463.6,304.8,465.3L304.8,465.3z"/>
							</g>
							<g>
								<path class="st1" d="M321.1,466.2c1.8,5.5,3.8,11,6.1,16.4c0.9,2.1,4,0.3,3.1-1.8c-2.2-5.1-4-10.3-5.7-15.6
									C323.9,463.1,320.4,464,321.1,466.2L321.1,466.2z"/>
							</g>
							<g>
								<path class="st1" d="M317.4,487.2c-5.4,5.3-12.1,10.2-15.5,17.2c-1,2.1,2.1,3.9,3.1,1.8c3.2-6.7,9.7-11.4,14.9-16.5
									C321.6,488.1,319,485.6,317.4,487.2L317.4,487.2z"/>
							</g>
							<g>
								<path class="st1" d="M299.4,483.4c-3.5,6.3-9.8,9.9-14.9,14.8c-1.7,1.6,0.9,4.1,2.5,2.5c5.4-5.1,11.8-8.9,15.5-15.5
									C303.6,483.1,300.5,481.3,299.4,483.4L299.4,483.4z"/>
							</g>
							<g>
								<path class="st1" d="M284.6,481c0,0-6.7,6.7-10.1,10.1c-1.7,1.7,0.8,4.2,2.5,2.5c3.4-3.4,6.7-6.7,10.1-10.1
									C288.8,481.8,286.3,479.3,284.6,481C284.6,481,286.3,479.3,284.6,481z"/>
							</g>
							<g>
								<path class="st1" d="M323.9,495.9c-2,3.7-5.5,7.1-8,9.6c-1.7,1.7,0.8,4.2,2.5,2.5c3.4-3.4,6.5-6.4,8.7-10.4
									C328.2,495.6,325,493.9,323.9,495.9L323.9,495.9z"/>
							</g>
						</g>
						<g class="st5">
							<path class="st1" d="M428.1,433.7c8.5-14.4,19.4-25.7,32.6-35.8c1.8-1.4-0.7-3.9-2.5-2.5c-13.4,10.4-24.5,22-33.1,36.6
								C423.8,433.9,426.9,435.7,428.1,433.7L428.1,433.7z"/>
						</g>
						<g class="st5">
							<path class="st1" d="M457.6,397.1c2.8,8.5,5.8,16,5.3,25c-0.4,7-2,13.9-2.9,20.9c-0.3,2.3,3.3,2.3,3.6,0
								c0.9-7,2.3-13.9,2.9-20.9c0.7-9.3-2.5-17.2-5.4-25.9C460.4,394,456.9,394.9,457.6,397.1L457.6,397.1z"/>
						</g>
						<g class="st5">
							<path class="st1" d="M436.7,419.8c1.7-7.7-1.4-15.4-4.4-22.4c-0.9-2.1-4-0.3-3.1,1.8c2.6,6.1,5.5,13,4,19.7
								C432.7,421.2,436.2,422.1,436.7,419.8L436.7,419.8z"/>
						</g>
						<g class="st5">
							<path class="st1" d="M426.6,396.6c-4.9,10.6-13.7,23.8-6.7,35.5c1.2,2,4.3,0.2,3.1-1.8c-6.2-10.3,2.4-22.6,6.7-31.9
								C430.7,396.3,427.6,394.5,426.6,396.6L426.6,396.6z"/>
						</g>
						<g class="st5">
							<path class="st1" d="M397.7,420.2c-5.1-11.9,1-23.5,4.4-34.9c0.7-2.2-2.8-3.1-3.5-0.9c-3.7,12.6-9.6,24.5-4,37.6
								C395.5,424,398.6,422.3,397.7,420.2L397.7,420.2z"/>
						</g>
						<g class="st5">
							<path class="st1" d="M398.3,386.9c9.7,8.3,15.2,18.2,18.9,30.4c0.7,2.2,4.1,1.3,3.5-0.9c-3.9-12.7-9.7-23.3-19.8-32
								C399.1,382.9,396.5,385.4,398.3,386.9L398.3,386.9z"/>
						</g>
						<g class="st5">
							<path class="st1" d="M455.9,398.3c-0.3,11-4.6,21.2-7.5,31.6c-3.1,10.8-4.7,22.3-9.9,32.4c-1.1,2,2,3.8,3.1,1.8
								c5.1-9.7,7.3-21,9.8-31.6c2.8-11.5,7.8-22.2,8.1-34.2C459.5,396,455.9,396,455.9,398.3L455.9,398.3z"/>
						</g>
						<g class="st5">
							<path class="st1" d="M427.5,400.9c5,9.3-4.1,21.3-3.6,31.1c0.1,2.3,3.7,2.3,3.6,0c-0.6-10.9,8.8-22.3,3.1-32.9
								C429.5,397.1,426.4,398.8,427.5,400.9L427.5,400.9z"/>
						</g>
						<g class="st5">
							<path class="st1" d="M398.7,389.4c-2.2,13.7,7.1,25.1,7.5,38.4c0.1,2.3,3.7,2.3,3.6,0c-0.4-12.9-9.7-24.4-7.6-37.5
								C402.5,388.1,399,387.1,398.7,389.4L398.7,389.4z"/>
						</g>
						<g class="st5">
							<path class="st1" d="M442.1,412.2c3.3,3.6,5.1,8.2,8.4,11.8c1.6,1.7,4.1-0.8,2.5-2.5c-3.3-3.6-5.1-8.2-8.4-11.8
								C443,408,440.5,410.5,442.1,412.2L442.1,412.2z"/>
						</g>
						<g class="st5">
							<path class="st1" d="M452.2,424.5c4.6-1.2,7.3-5.6,11.8-6.7c2.2-0.6,1.3-4-0.9-3.5c-4.6,1.2-7.3,5.6-11.8,6.7
								C449.1,421.6,450,425,452.2,424.5L452.2,424.5z"/>
						</g>
						<g class="st5">
							<path class="st1" d="M435.7,422.3c2.4,6.1,7.8,9.9,12.3,14.3c1.6,1.6,4.2-0.9,2.5-2.5c-3.9-3.8-9.3-7.4-11.3-12.7
								C438.4,419.3,434.9,420.2,435.7,422.3L435.7,422.3z"/>
						</g>
						<g class="st5">
							<path class="st1" d="M449.2,436.1c2,0.9,4,0.7,6-0.1c1.9-0.7,3.8-2.1,5.8-2.2c2.3-0.1,2.3-3.7,0-3.6
								c-1.8,0.1-3.5,0.8-5.1,1.6c-1.4,0.6-3.4,1.9-4.9,1.2C448.9,432.1,447.1,435.2,449.2,436.1L449.2,436.1z"/>
						</g>
						<g class="st5">
							<path class="st1" d="M428.1,428.2c3.4,8.8,11.7,13.9,18.2,20.2c1.7,1.6,4.2-0.9,2.5-2.5c-5.9-5.7-14.1-10.6-17.2-18.6
								C430.8,425.2,427.3,426.1,428.1,428.2L428.1,428.2z"/>
						</g>
						<g class="st5">
							<path class="st1" d="M446.7,449.8c3.1,0,6.6-1,9.7-0.1c2.2,0.7,3.1-2.8,0.9-3.5c-3.4-1-7.1-0.1-10.6-0.1
								C444.4,446.2,444.4,449.8,446.7,449.8L446.7,449.8z"/>
						</g>
						<g class="st5">
							<path class="st1" d="M429.9,419c2.6-0.7,4.1-2.8,5.9-4.7c1.6-1.7-0.9-4.2-2.5-2.5c-1.2,1.3-2.4,3.3-4.2,3.7
								C426.8,416.1,427.7,419.6,429.9,419L429.9,419z"/>
						</g>
						<g class="st5">
							<path class="st1" d="M420.7,412.7c1.5,3,4.3,4.5,6.6,6.7c1.7,1.6,4.2-0.9,2.5-2.5c-2.1-2-4.7-3.3-6-5.9
								C422.8,408.8,419.7,410.6,420.7,412.7L420.7,412.7z"/>
						</g>
						<g class="st5">
							<path class="st1" d="M419.3,421.1c1,2.6,2.8,4,4.7,5.9c1.7,1.6,4.2-0.9,2.5-2.5c-1.4-1.3-3.1-2.4-3.7-4.2
								C422,418,418.5,418.9,419.3,421.1L419.3,421.1z"/>
						</g>
						<g class="st5">
							<path class="st1" d="M407.9,398.7c-1.4,3.7-4.2,6.7-6.1,10.1c-1.2,2,2,3.8,3.1,1.8c2.1-3.7,5-6.9,6.5-11
								C412.2,397.4,408.7,396.5,407.9,398.7L407.9,398.7z"/>
						</g>
						<g class="st5">
							<path class="st1" d="M412.6,406.8c0.6,1.8-1.4,4.3-2.3,5.8c-1.1,1.8-2.5,3.6-3.4,5.5c-1,2.1,2.1,3.9,3.1,1.8
								c1.9-4,7.7-9.1,6.1-14C415.3,403.7,411.8,404.6,412.6,406.8L412.6,406.8z"/>
						</g>
						<g class="st5">
							<path class="st1" d="M415.7,418.6c0.5,0.9-2.2,3.6-2.8,4.3c-1.3,1.4-2.7,2.8-4.1,4.1c-1.6,1.6,0.9,4.1,2.5,2.5
								c2.8-2.7,9.9-8.1,7.5-12.7C417.7,414.7,414.6,416.5,415.7,418.6L415.7,418.6z"/>
						</g>
						<g class="st5">
							<path class="st1" d="M394,416.3c4,2.9,9.1,4.2,13.9,5.2c2.2,0.5,3.2-3,0.9-3.5c-4.5-0.9-9.2-2.2-13.1-4.9
								C393.9,411.8,392.2,415,394,416.3L394,416.3z"/>
						</g>
						<g class="st5">
							<path class="st1" d="M394.5,407.6c2.4,2.2,5.7,2.5,8.4,4.1c2,1.1,3.8-2,1.8-3.1c-2.4-1.3-5.6-1.7-7.6-3.5
								C395.3,403.5,392.8,406,394.5,407.6L394.5,407.6z"/>
						</g>
					</g>
					<g class="st4">
						<g class="st5">
							<g>
								<path class="st1" d="M163.5,515.8c7.4,2.3,15.3,3.1,22.8,4.9c7.5,1.8,15.1,3.1,22.7,3.8c2.3,0.2,2.3-3.3,0-3.6
									c-7.3-0.7-14.6-2.1-21.8-3.7c-7.6-1.7-15.4-2.6-22.8-4.9C162.2,511.7,161.3,515.1,163.5,515.8L163.5,515.8z"/>
							</g>
							<g>
								<path class="st1" d="M161.6,514c-5.6,7.8-11.3,15.5-17,23.2c-5.7,7.5-10.9,15.5-17.5,22.3c-1.6,1.7,0.9,4.2,2.5,2.5
									c6.3-6.5,11.4-14,16.8-21.3c6.1-8.3,12.3-16.5,18.3-24.9C166,513.9,162.9,512.1,161.6,514L161.6,514z"/>
							</g>
							<g>
								<path class="st1" d="M207.2,522.8c2,17.7,13.8,32.7,14.2,50.6c0.1,2.3,3.6,2.3,3.6,0c-0.4-18-12.3-32.9-14.2-50.6
									C210.5,520.5,207,520.5,207.2,522.8L207.2,522.8z"/>
							</g>
							<g>
								<path class="st1" d="M124.7,564.4c3.3,3.8,4.3,8.8,5.5,13.6c1.1,4.1,2.6,8.1,3.8,12.2c3.1,10,5.4,20.3,8.4,30.4
									c6.2,21,11.1,42.5,13.4,64.3c0.2,2.3,3.8,2.3,3.6,0c-2.2-22.2-7.2-43.9-13.5-65.3c-3.1-10.8-5.7-21.7-9-32.4
									c-2.6-8.2-3.9-18.7-9.7-25.4C125.7,560.1,123.2,562.7,124.7,564.4L124.7,564.4z"/>
							</g>
							<g>
								<path class="st1" d="M222.3,573.7c-3.9,17.7-5.7,35.6-8.9,53.4c-2.9,16.2-6.1,32.5-6.2,49c0,2.3,3.6,2.3,3.6,0
									c0.1-16.9,3.5-33.5,6.5-50.1c3.1-17.1,4.8-34.4,8.5-51.4C226.2,572.4,222.8,571.5,222.3,573.7L222.3,573.7z"/>
							</g>
							<g>
								<path class="st1" d="M157.3,687.4c17.1-4,34.3-7.7,51.7-9.4c2.3-0.2,2.3-3.8,0-3.6c-17.8,1.7-35.3,5.4-52.6,9.5
									C154.1,684.5,155,688,157.3,687.4L157.3,687.4z"/>
							</g>
							<g>
								<path class="st1" d="M156.3,685.2c-3.4,3.5-6.1,7.6-9.5,11.1c-1.6,1.7,0.9,4.2,2.5,2.5c3.4-3.5,6.1-7.6,9.5-11.1
									C160.5,686.1,157.9,683.6,156.3,685.2L156.3,685.2z"/>
							</g>
							<g>
								<path class="st1" d="M205.7,675.8c-2,5.2-7.5,8.9-11.4,12.6c-1.7,1.6,0.9,4.1,2.5,2.5c4.4-4.3,10-8.3,12.3-14.3
									C210,674.5,206.5,673.6,205.7,675.8L205.7,675.8z"/>
							</g>
							<g>
								<path class="st1" d="M147.3,700.1c7.2,0.6,14.3-2.4,21.4-3.5c9.5-1.6,19-3.1,28.1-6c2.2-0.7,1.3-4.2-0.9-3.5
									c-8.5,2.7-17.3,4.2-26.2,5.7c-7.3,1.2-15,4.4-22.4,3.7C145,696.4,145,699.9,147.3,700.1L147.3,700.1z"/>
							</g>
							<g>
								<path class="st1" d="M125,560.3c-1.9,5.8-9.5,7.9-13.8,11.8c-1.7,1.6,0.8,4.1,2.5,2.5c5-4.6,12.4-6.4,14.7-13.5
									C129.2,559,125.7,558.1,125,560.3L125,560.3z"/>
							</g>
							<g>
								<path class="st1" d="M111,574.3c5,9.9,7.5,20.6,9.9,31.3c2.3,10.2,5.3,20,8.2,30c6,20.6,7.8,42.3,16.6,62.1
									c0.9,2.1,4,0.3,3.1-1.8c-9-20-10.7-42.2-16.8-63.1c-2.9-10-5.8-19.9-8.1-30.1c-2.4-10.3-5-20.6-9.8-30.2
									C113,570.5,109.9,572.2,111,574.3L111,574.3z"/>
							</g>
							<g>
								<path class="st1" d="M161.9,512c-4.8,4.5-11.6,5.6-17,9.2c-1.9,1.3-0.1,4.4,1.8,3.1c5.7-3.8,12.7-5.1,17.8-9.8
									C166.1,513,163.6,510.5,161.9,512L161.9,512z"/>
							</g>
							<g>
								<path class="st1" d="M145,521.1c-3.9,8.8-11.8,15.3-17.7,22.7c-6.5,8.1-12.3,16.8-17.9,25.5c-1.2,1.9,1.9,3.7,3.1,1.8
									c6.1-9.6,12.7-18.8,19.7-27.8c5.4-6.9,12.3-12.3,15.9-20.5C149,520.8,145.9,519,145,521.1L145,521.1z"/>
							</g>
							<g>
								<path class="st1" d="M155.5,521.5c-4.1,3.9-9.7,5.7-15,7.4c-2.2,0.7-1.3,4.2,0.9,3.5c5.9-2,12-4.1,16.6-8.4
									C159.8,522.5,157.2,520,155.5,521.5L155.5,521.5z"/>
							</g>
							<g>
								<path class="st1" d="M147.3,531.4c-3.1,6-12.3,6.4-17.1,10.7c-1.7,1.5,0.8,4.1,2.5,2.5c5.2-4.7,14.2-4.7,17.7-11.5
									C151.5,531.1,148.4,529.4,147.3,531.4L147.3,531.4z"/>
							</g>
							<g>
								<path class="st1" d="M135.8,546c-4.4,5.5-12.1,6.2-17.8,10c-1.9,1.3-0.2,4.4,1.8,3.1c6-4,13.9-4.7,18.6-10.6
									C139.7,546.8,137.2,544.2,135.8,546L135.8,546z"/>
							</g>
							<g>
								<path class="st1" d="M127.1,567.4c-4.1,3.9-9.3,6.4-13.4,10.3c-1.7,1.6,0.9,4.1,2.5,2.5c4.1-3.9,9.3-6.4,13.4-10.3
									C131.3,568.3,128.7,565.8,127.1,567.4L127.1,567.4z"/>
							</g>
							<g>
								<path class="st1" d="M128.2,574.5c-1.1,5.3-8.5,6.9-12.2,10.3c-1.7,1.6,0.8,4.1,2.5,2.5c4.4-4,11.7-5.3,13.1-11.9
									C132.1,573.2,128.7,572.3,128.2,574.5L128.2,574.5z"/>
							</g>
							<g>
								<path class="st1" d="M132.6,582.4c-4.1,3.9-9.3,6.4-13.4,10.3c-1.7,1.6,0.9,4.1,2.5,2.5c4.1-3.9,9.3-6.4,13.4-10.3
									C136.8,583.4,134.3,580.8,132.6,582.4L132.6,582.4z"/>
							</g>
							<g>
								<path class="st1" d="M135.8,591.9c-3.9,3.7-8.8,5.9-12.7,9.5c-1.7,1.6,0.9,4.1,2.5,2.5c3.9-3.6,8.8-5.8,12.7-9.5
									C140,592.9,137.4,590.3,135.8,591.9L135.8,591.9z"/>
							</g>
							<g>
								<path class="st1" d="M136.6,602.2c-3.4,3.3-7.4,5.9-11.5,8.4c-2,1.2-0.2,4.3,1.8,3.1c4.3-2.6,8.6-5.5,12.2-9
									C140.7,603.1,138.2,600.6,136.6,602.2L136.6,602.2z"/>
							</g>
							<g>
								<path class="st1" d="M137.6,609.8c-0.3,4.4-7.6,7.1-10.5,9.8c-1.7,1.6,0.8,4.1,2.5,2.5c4-3.8,11.1-6,11.6-12.3
									C141.4,607.5,137.8,607.5,137.6,609.8L137.6,609.8z"/>
							</g>
							<g>
								<path class="st1" d="M141,620c-2.6,4-7.4,5.9-10.8,9.1c-1.7,1.6,0.9,4.1,2.5,2.5c3.7-3.5,8.5-5.5,11.4-9.9
									C145.4,619.8,142.3,618.1,141,620L141,620z"/>
							</g>
							<g>
								<path class="st1" d="M142.4,628.3c-1.1,5.2-8.6,7-12.2,10.3c-1.7,1.6,0.8,4.1,2.5,2.5c4.3-4,11.7-5.4,13.1-11.9
									C146.4,627,142.9,626,142.4,628.3L142.4,628.3z"/>
							</g>
							<g>
								<path class="st1" d="M145.6,637.8c-1.7,4.3-6.5,6.2-10.2,8.4c-2,1.2-0.2,4.3,1.8,3.1c4.8-2.8,9.8-5.2,11.9-10.6
									C149.9,636.6,146.4,635.7,145.6,637.8L145.6,637.8z"/>
							</g>
							<g>
								<path class="st1" d="M148.9,646.9c-2.1,5.1-8.5,7.1-12.4,10.7c-1.7,1.6,0.8,4.1,2.5,2.5c4.1-3.9,10.7-5.9,12.9-11.5
									C152.9,646.5,149.8,644.7,148.9,646.9L148.9,646.9z"/>
							</g>
							<g>
								<path class="st1" d="M150.8,657.5c-4.1,3.9-9.3,6.4-13.4,10.3c-1.7,1.6,0.9,4.1,2.5,2.5c4.1-3.9,9.3-6.4,13.4-10.3
									C155,658.5,152.5,656,150.8,657.5L150.8,657.5z"/>
							</g>
							<g>
								<path class="st1" d="M151.9,667.8c-1.9,6-8.7,8.6-13,12.6c-1.7,1.6,0.8,4.1,2.5,2.5c5-4.7,11.7-7.3,13.9-14.3
									C156.1,666.6,152.6,665.7,151.9,667.8L151.9,667.8z"/>
							</g>
							<g>
								<path class="st1" d="M151.9,677.3c-1.7,4.4-5.8,7.1-9,10.3c-1.7,1.6,0.9,4.1,2.5,2.5c3.8-3.7,8-6.8,10-11.9
									C156.2,676.1,152.7,675.2,151.9,677.3L151.9,677.3z"/>
							</g>
							<g>
								<path class="st1" d="M168.7,682.4c-2.8,4.5-6.5,8.3-9.5,12.7c-1.3,1.9,1.8,3.7,3.1,1.8c3-4.4,6.7-8.2,9.5-12.7
									C173,682.3,169.9,680.5,168.7,682.4L168.7,682.4z"/>
							</g>
							<g>
								<path class="st1" d="M184.8,678.9c-4.2,4.1-8.8,7.6-11.4,13c-1,2.1,2.1,3.9,3.1,1.8c2.4-5.1,6.8-8.4,10.8-12.3
									C189,679.8,186.4,677.3,184.8,678.9L184.8,678.9z"/>
							</g>
							<g>
								<path class="st1" d="M195.6,676.1c-2.1,3.4-4,7-6.8,9.9c-1.6,1.7,0.9,4.2,2.5,2.5c3-3.1,5.2-7,7.4-10.7
									C199.9,675.9,196.8,674.1,195.6,676.1L195.6,676.1z"/>
							</g>
							<g>
								<path class="st1" d="M182.1,538.8c1.8,0,3.4,0.2,5.1,0.7c2.2,0.7,3.1-2.8,0.9-3.5c-2-0.6-3.9-0.8-6-0.8
									C179.8,535.2,179.8,538.8,182.1,538.8L182.1,538.8z"/>
							</g>
							<g>
								<path class="st1" d="M179.5,537.8c0,2.8,0.1,5.6-0.7,8.2c-0.7,2.2,2.8,3.1,3.5,0.9c0.9-2.9,0.8-6.1,0.8-9.2
									C183.1,535.5,179.5,535.5,179.5,537.8L179.5,537.8z"/>
							</g>
							<g>
								<path class="st1" d="M186.6,538.6c0,3-0.1,5.9-1.3,8.6c-1,2.1,2.1,3.9,3.1,1.8c1.6-3.3,1.8-6.8,1.8-10.4
									C190.2,536.3,186.6,536.3,186.6,538.6L186.6,538.6z"/>
							</g>
							<g>
								<path class="st1" d="M187.3,549.3c3.1,2.7,6.5,2.6,10.9,2c-0.6-0.6-1.2-1.2-1.8-1.8c-0.1,1.6-0.1,3.3-0.1,4.9
									c0,2.3,3.5,2.4,3.5,0.1c0-1.6,0-3.1,0-4.7c0-1-0.8-1.8-1.8-1.8c-2.6,0-6,0.8-8.2-1.1C188,545.3,185.6,547.7,187.3,549.3
									L187.3,549.3z"/>
							</g>
							<g>
								<path class="st1" d="M179.7,545.5c-5,0-10,0.7-15,0.8c-2.3,0-2.3,3.6,0,3.6c5,0,10-0.7,15-0.8
									C182,549.1,182,545.5,179.7,545.5L179.7,545.5z"/>
							</g>
							<g>
								<path class="st1" d="M162.9,548.1c0,2.1,0.7,4.5,2.1,6c1.6,1.7,4.1-0.8,2.5-2.5c-0.1-0.1-0.2-0.2,0,0
									c-0.1-0.1-0.2-0.2-0.2-0.4c-0.2-0.3-0.3-0.6-0.4-1c-0.2-0.7-0.4-1.4-0.4-2.1C166.4,545.8,162.9,545.8,162.9,548.1
									L162.9,548.1z"/>
							</g>
							<g>
								<path class="st1" d="M165.4,554.4c4.1,1.9,8.7,1,13.1,1.8c2.3,0.4,3.2-3.1,0.9-3.5c-3.9-0.7-8.6,0.2-12.2-1.4
									C165.1,550.4,163.3,553.5,165.4,554.4L165.4,554.4z"/>
							</g>
							<g>
								<path class="st1" d="M177.2,554.4c-0.1,7.7-1.5,15.3-2.4,22.9c-0.3,2.3,3.3,2.3,3.6,0c0.9-7.6,2.3-15.2,2.4-22.9
									C180.8,552.1,177.2,552.1,177.2,554.4L177.2,554.4z"/>
							</g>
							<g>
								<path class="st1" d="M187.3,557.7c2.4-0.7,5,0,7.5,0.1c2.3,0,2.3-3.5,0-3.6c-2.8,0-5.6-0.8-8.4,0.1
									C184.2,554.9,185.1,558.4,187.3,557.7L187.3,557.7z"/>
							</g>
							<g>
								<path class="st1" d="M186.1,555.9c-3.4,7.2-3.4,15.2-3.4,23c0,2.3,3.6,2.3,3.6,0c0-7.1-0.2-14.6,2.9-21.3
									C190.2,555.6,187.1,553.8,186.1,555.9L186.1,555.9z"/>
							</g>
							<g>
								<path class="st1" d="M178.2,580.7c1.6,0,3.2,0,4.7,0c2.3,0,2.3-3.6,0-3.6c-1.6,0-3.2,0-4.7,0
									C175.8,577.2,175.8,580.7,178.2,580.7L178.2,580.7z"/>
							</g>
						</g>
						<g class="st5">
							<path class="st1" d="M234.6,508.9c-6.1,6-12.9,11.4-18.2,18.2c-0.6,0.8-0.7,1.8,0,2.5c1.3,1.3,3.1,2.7,3.5,4.7
								c0.4,2.3,3.9,1.3,3.5-0.9c-0.5-2.7-2.6-4.5-4.4-6.3c0,0.8,0,1.7,0,2.5c5.3-6.8,12.1-12.2,18.2-18.2
								C238.8,509.8,236.3,507.3,234.6,508.9L234.6,508.9z"/>
						</g>
						<g class="st5">
							<path class="st1" d="M236.2,530.4c1.4,1.3,2.9,2.4,4.4,3.5c1.2,0.9,3.6,2.2,3.7,3.9c0.2,2.3,3.8,2.3,3.6,0
								c-0.4-4.8-6.1-7-9.2-10C237.1,526.3,234.5,528.8,236.2,530.4L236.2,530.4z"/>
						</g>
						<g class="st5">
							<path class="st1" d="M241.6,534c0,0-11,11-16,16c-1.7,1.7,0.8,4.2,2.5,2.5c5.1-5.1,10.1-10.1,16-16
								C245,535.7,242.5,533.2,241.6,534C241.6,534,242.5,533.2,241.6,534z"/>
						</g>
						<g class="st5">
							<path class="st1" d="M221.6,549c0,0,4.1,4.3,5.4,6.9c1.1,2.1,4.1,0.2,3-1.9c-1.5-2.9-3.4-5.1-5.9-7.6
								C222.4,544.8,219.9,547.3,221.6,549C221.6,549,219.9,547.3,221.6,549z"/>
						</g>
						<g class="st5">
							<path class="st1" d="M241.3,545.3c-2.8,7.6-7.8,14.2-10.9,21.7c-0.9,2.1,2.2,3.9,3.1,1.8c3.3-7.8,8.4-14.6,11.2-22.6
								C245.5,544,242,543.1,241.3,545.3L241.3,545.3z"/>
						</g>
						<g class="st5">
							<path class="st1" d="M232.8,569.4c9.1-4.3,17-10.7,24.9-16.9c1.8-1.4-0.7-3.9-2.5-2.5c-7.7,6-15.3,12.1-24.1,16.3
								C229,567.3,230.7,570.4,232.8,569.4L232.8,569.4z"/>
						</g>
						<g class="st5">
							<path class="st1" d="M245.7,569.6c1,0.4,4.6,1.9,4.3,3.4c-0.6,2.2,2.9,3.1,3.5,0.9c1-4-3.7-6.6-6.8-7.7
								C244.4,565.4,243.5,568.8,245.7,569.6L245.7,569.6z"/>
						</g>
						<g class="st5">
							<path class="st1" d="M244.1,567.4c-4.5,4.3-9.6,7.8-13.3,12.9c-3.6,5.1,1,9,4.6,12.6c1.6,1.6,4.2-0.9,2.5-2.5
								c-1.7-1.7-3.5-3.5-4.8-5.5c-1.1-1.7,2.7-5.1,3.7-6.1c3.1-3.2,6.7-5.8,9.8-8.8C248.3,568.3,245.8,565.8,244.1,567.4
								L244.1,567.4z"/>
						</g>
						<g class="st5">
							<path class="st1" d="M235.8,575.2c0.1,2.1,1.4,3.7,3.1,5.4c1.7,1.7,4.2-0.8,2.5-2.5c-0.8-0.8-1.9-1.8-1.9-2.8
								C239.4,572.9,235.7,572.9,235.8,575.2L235.8,575.2z"/>
						</g>
						<g class="st5">
							<path class="st1" d="M225.3,613.1c8.8-3.5,14.2-12.1,20.6-18.7c-0.9-0.1-1.9-0.3-2.8-0.4c1.8,3.2,4.1,5.7,6.6,8.3
								c1.6,1.6,4.2-0.9,2.5-2.5c-2.3-2.3-4.4-4.7-6-7.5c-0.6-1-2-1.2-2.8-0.4c-5.8,5.9-11,14.6-19,17.7
								C222.2,610.5,223.1,613.9,225.3,613.1L225.3,613.1z"/>
						</g>
						<g class="st5">
							<path class="st1" d="M235.7,601.9c0.1,2.5,1.2,5,2.9,6.8c1.6,1.7,4.1-0.9,2.5-2.5c-1.1-1.1-1.8-2.7-1.8-4.3
								C239.2,599.6,235.6,599.6,235.7,601.9L235.7,601.9z"/>
						</g>
						<g class="st5">
							<path class="st1" d="M223.3,628c7.9-3.4,14-8.9,22.1-12.6c-0.8-0.8-1.6-1.6-2.4-2.4c-5.2,8.3-10.6,15.1-17.1,21.7
								c-1.6,1.6,0.9,4.2,2.5,2.5c6.7-6.8,12.7-14.4,17.7-22.5c1-1.6-0.9-3.1-2.4-2.4c-7.9,3.4-14.3,9.2-22.2,12.7
								C219.4,625.8,221.2,628.9,223.3,628L223.3,628z"/>
						</g>
						<g class="st5">
							<path class="st1" d="M225.6,625.9c0,0,2.5,2.5,4.2,4.2s4.2-0.8,2.5-2.5s-2.5-2.5-4.2-4.2S223.9,624.2,225.6,625.9
								C225.6,625.9,223.9,624.2,225.6,625.9z"/>
						</g>
						<g class="st5">
							<path class="st1" d="M245.6,639.8c-0.7-7-9.2-6.1-12.1-0.9c-1.6,2.7-1.8,5.6-1.9,8.7c-0.1,2.6-0.1,5.3-1.1,7.7
								c-2.6,6.3-7.5-2.1-7.8-5.3c-0.2-2.3-3.8-2.3-3.6,0c0.5,6.6,7.6,16,13.7,8.3c2.1-2.6,2.2-6.4,2.3-9.6c0.1-2.1-0.2-4.6,0.8-6.5
								c0.4-0.8,5.7-7.1,6.1-2.5C242.2,642.1,245.8,642.1,245.6,639.8L245.6,639.8z"/>
						</g>
						<g class="st5">
							<path class="st1" d="M237.5,654.9c1.6,3.1,3.9,5.6,5.5,8.7c1.1,2,4.2,0.3,3.1-1.8c-1.6-3.1-3.9-5.6-5.5-8.7
								C239.5,651.1,236.4,652.9,237.5,654.9L237.5,654.9z"/>
						</g>
						<g class="st5">
							<path class="st1" d="M243.3,658.7c-10.1,2.7-16.8,13.1-23.7,20.2c-1.6,1.6,0.9,4.2,2.5,2.5c6.4-6.5,12.8-16.9,22.1-19.3
								C246.5,661.5,245.6,658.1,243.3,658.7L243.3,658.7z"/>
						</g>
						<g class="st5">
							<path class="st1" d="M240.5,660.8c1,2.6,3,4.6,4,7.1c0.8,2.1,4.3,1.3,3.5-0.9c-1-2.6-3-4.6-4-7.1
								C243.1,657.8,239.7,658.7,240.5,660.8L240.5,660.8z"/>
						</g>
						<g class="st5">
							<path class="st1" d="M95.8,578.5c-1.9,4.9-6.9,8.3-10.6,11.8c-1.6,1.6,0.9,4.1,2.5,2.5c4.2-4.1,9.3-7.8,11.5-13.5
								C100.1,577.2,96.6,576.4,95.8,578.5L95.8,578.5z"/>
						</g>
						<g class="st5">
							<path class="st1" d="M95.1,579.9c3.8-0.2-4.4,21.5-7.8,12c-0.8-2.2-4.2-1.3-3.5,0.9c6.7,18.8,24.1-17.1,11.2-16.5
								C92.8,576.5,92.8,580,95.1,579.9L95.1,579.9z"/>
						</g>
						<g class="st5">
							<path class="st1" d="M103.2,591.3c-0.3,0.9-1.9,0-1,0.8c0.4,0.4,0.7,0.8,1.1,1.2c0.8,0.9,1.6,1.9,2.5,2.8
								c1.6,1.6,4.1-0.9,2.5-2.5c-1.5-1.5-2.6-3.4-4.3-4.6c-1.7-1.2-3.5-0.4-4.2,1.4C98.9,592.5,102.3,593.4,103.2,591.3
								L103.2,591.3z"/>
						</g>
						<g class="st5">
							<path class="st1" d="M102.1,592.7c-1.9,4.9-6.9,8.3-10.6,11.8c-1.6,1.6,0.9,4.1,2.5,2.5c4.2-4.1,9.3-7.8,11.5-13.5
								C106.4,591.5,102.9,590.6,102.1,592.7L102.1,592.7z"/>
						</g>
						<g class="st5">
							<path class="st1" d="M88.3,604.8c0,0,4.2,4.2,5.9,5.9c1.7,1.7,4.2-0.8,2.5-2.5s-4.2-4.2-5.9-5.9
								C89.1,600.6,86.6,603.1,88.3,604.8C88.3,604.8,86.6,603.1,88.3,604.8z"/>
						</g>
						<g class="st5">
							<path class="st1" d="M108.1,603.1c1.5,1.4,4.3,2.7,5.1,4.7c0.8,2.1,4.3,1.2,3.5-0.9c-1.1-2.9-3.8-4.2-6-6.3
								C109,599,106.4,601.5,108.1,603.1L108.1,603.1z"/>
						</g>
						<g class="st5">
							<path class="st1" d="M107.3,603c-3.7,3.6-7.6,6.9-10.5,11.1c-1.1,1.5-2.1,3.7-1.8,5.6c0.5,3.2,3.8,3.4,4.7,6.3
								c0.7,2.2,4.2,1.3,3.5-0.9c-0.5-1.5-1.1-2.8-2.4-3.8c-2.7-2-2-3.8-0.3-6.2c2.5-3.7,6.2-6.5,9.4-9.6
								C111.5,603.9,108.9,601.4,107.3,603L107.3,603z"/>
						</g>
						<g class="st5">
							<path class="st1" d="M101.1,611.2c0.1,2.1,1.9,4.2,2.7,5c1.7,1.7,4.2-0.8,2.5-2.5c0,0-1.7-1.6-1.8-2.6
								C104.5,608.8,101,608.9,101.1,611.2L101.1,611.2z"/>
						</g>
						<g class="st5">
							<path class="st1" d="M109.9,631.1c-0.1,4.8-1.5,9.4-1.6,14.2c0,2.3,3.5,2.3,3.6,0c0.1-4.8,1.5-9.4,1.6-14.2
								C113.6,628.8,110,628.8,109.9,631.1L109.9,631.1z"/>
						</g>
						<g class="st5">
							<path class="st1" d="M114.7,640.2c-0.8,3.5-6.2,5-9.1,6.1c-3.1,1.1-6.3,1.9-9.4,2.9c-2.2,0.7-1.3,4.2,0.9,3.5
								c6.3-2,19.2-3.8,21-11.6C118.7,638.8,115.3,637.9,114.7,640.2L114.7,640.2z"/>
						</g>
						<g class="st5">
							<path class="st1" d="M117.4,650.1c-5-2.9-10.4,1.5-13,5.7c-2,3.1-2.8,10.2,1.9,11.6c3.8,1.1,7.3-2.6,9.2-5.4
								c2.4-3.3,3.7-8.3,0.6-11.6c-1.6-1.7-4.1,0.8-2.5,2.5c2.9,3.2-2.3,9.9-5.4,11c-2.7,0.9-1.5-4.7-1-5.8c1.3-2.7,5.2-6.8,8.4-4.9
								C117.6,654.4,119.4,651.3,117.4,650.1L117.4,650.1z"/>
						</g>
						<g class="st5">
							<path class="st1" d="M114.9,658.7c-2.9,4.9-6.6,11.2-4.9,17.2c0.3,1,1.2,1.5,2.2,1.3c5.9-1.2,8.6-6.3,11.4-11.1
								c1.2-2-1.9-3.8-3.1-1.8c-2.3,3.9-4.3,8.5-9.2,9.4c0.7,0.4,1.5,0.9,2.2,1.3c-1.4-4.9,2.2-10.4,4.6-14.5
								C119.2,658.5,116.1,656.7,114.9,658.7L114.9,658.7z"/>
						</g>
						<g class="st5">
							<path class="st1" d="M109.8,685.8c5.1-2,8.2-6.1,11.9-10c-1-0.6-2-1.1-3-1.7c-1.9,5.4-5.4,10.3-4.8,16.3
								c0.1,1.4,1.4,2.2,2.7,1.6c5.9-2.9,8-9.2,12.2-13.7c1.6-1.7-1-4.2-2.5-2.5c-4,4.3-6.1,10.5-11.5,13.2c0.9,0.5,1.8,1,2.7,1.6
								c-0.5-5.6,2.9-10.3,4.7-15.4c0.6-1.7-1.8-2.9-3-1.7c-3.2,3.3-5.9,7.3-10.3,9C106.8,683.2,107.7,686.7,109.8,685.8
								L109.8,685.8z"/>
						</g>
						<g class="st5">
							<path class="st1" d="M130.4,692.5c1-1,1.8-2.5,0.9-3.9c-1-1.5-2.9-1.4-4.4-1.2c-2.1,0.3-4,1.5-5.6,2.7c-1.8,1.4-2.7,3-3,5.2
								c-0.5,3-0.6,6.9,1.1,9.6c2.3,3.5,6,0.9,7.9-1.4c1.5-1.8-1.1-4.3-2.5-2.5c-0.6,0.8-1.3,1.6-2.2,2.1c-0.2,0.1-0.2,0-0.3-0.3
								c-0.8-1.4-0.7-3.4-0.6-5c0-0.8,0.1-1.7,0.3-2.5c0.3-1.3,1.3-2.2,2.4-2.9c0.9-0.7,2-1.1,3.1-1.4c0.3-0.1,0.8-0.2,1.1-0.1
								c0.8,0.1,0-1.5-0.6-0.9C126.3,691.7,128.8,694.2,130.4,692.5L130.4,692.5z"/>
						</g>
						<g class="st5">
							<path class="st1" d="M123.1,698.8c0.7,0.7,1,0.9,1.1,1.9c0.1,2.3,3.6,2.3,3.6,0c-0.1-1.8-0.8-3.2-2.1-4.4
								C124,694.7,121.5,697.2,123.1,698.8L123.1,698.8z"/>
						</g>
						<g class="st5">
							<path class="st1" d="M222.3,519.3c0.9,2.5,2.5,4.5,4.4,6.3c1.6,1.6,4.2-0.9,2.5-2.5c-1.4-1.4-2.8-2.8-3.5-4.7
								C225,516.2,221.5,517.1,222.3,519.3L222.3,519.3z"/>
						</g>
						<g class="st5">
							<path class="st1" d="M229,541.6c0,0,3.4,3.4,4.2,4.2c1.7,1.7,4.2-0.8,2.5-2.5c-0.8-0.8-2.5-2.5-4.2-4.2
								S227.3,539.9,229,541.6C229,541.6,227.3,539.9,229,541.6z"/>
						</g>
						<g class="st5">
							<path class="st1" d="M235.7,556.8c0,0,0.8,0.8,1.7,1.7s3.4-1.7,2.5-2.5s-1.7-1.7-1.7-1.7C236.6,552.6,234,555.1,235.7,556.8
								C235.7,556.8,234,555.1,235.7,556.8z"/>
						</g>
						<g class="st5">
							<path class="st1" d="M240.8,563.5c0,0,0.8,0.8,1.7,1.7c1.7,1.7,4.2-0.8,2.5-2.5c-0.8-0.8-0.8-0.8-1.7-1.7
								C241.6,559.3,239.1,561.8,240.8,563.5C240.8,563.5,239.1,561.8,240.8,563.5z"/>
						</g>
						<g class="st5">
							<path class="st1" d="M233.3,599.5c0.1,1.8,0.8,3.2,2.1,4.4c1.6,1.6,4.2-0.9,2.5-2.5c-0.7-0.7-1-0.9-1.1-1.9
								C236.8,597.2,233.2,597.2,233.3,599.5L233.3,599.5z"/>
						</g>
						<g class="st5">
							<path class="st1" d="M223.5,622.1c3.1,3.2,5.6,7,8.7,10.3c1.6,1.7,4.1-0.9,2.5-2.5c-3.1-3.2-5.6-7-8.7-10.3
								C224.5,617.9,221.9,620.5,223.5,622.1L223.5,622.1z"/>
						</g>
						<g class="st5">
							<path class="st1" d="M229,647.8c0,0,3.4,3.4,5.1,5.1c1.7,1.7,4.2-0.8,2.5-2.5s-3.4-3.4-5.1-5.1S227.3,646.1,229,647.8
								C229,647.8,227.3,646.1,229,647.8z"/>
						</g>
						<g class="st5">
							<path class="st1" d="M227.7,668.2c0.1,2.2,1.1,3.4,2.8,5.1c1.7,1.7,4.2-0.8,2.5-2.5c0,0-1-1-1.3-1.4
								c-0.3-0.4-0.4-0.7-0.4-1.2C231.2,665.9,227.6,665.9,227.7,668.2L227.7,668.2z"/>
						</g>
						<g class="st5">
							<path class="st1" d="M89.1,585.4c0,0,0,0-0.8-0.8c-1.7-1.7-4.2,0.8-2.5,2.5c1.7,1.7,2.5,2.5,3.4,3.4c1.7,1.7,4.2-0.8,2.5-2.5
								c-0.8-0.8-1.7-1.7-3.4-3.4s-4.2,0.8-2.5,2.5c0.8,0.8,0.8,0.8,0.8,0.8C88.3,589.6,90.8,587.1,89.1,585.4
								C89.1,585.4,90.8,587.1,89.1,585.4z"/>
						</g>
						<g class="st5">
							<path class="st1" d="M94.2,598.4c0.4,1.2,0.9,2.3,1.7,3.3c0.9,1,2.3,1.5,3.5,2c2.2,0.8,3.1-2.7,0.9-3.5
								c-1.5-0.5-2.2-1.2-2.7-2.7C96.9,595.3,93.4,596.2,94.2,598.4L94.2,598.4z"/>
						</g>
						<g class="st5">
							<path class="st1" d="M99.2,609c0,0,1.7,1.7,3.4,3.4s4.2-0.8,2.5-2.5c-1.7-1.7-2.5-2.5-3.4-3.4
								C100.1,604.8,97.5,607.3,99.2,609C99.2,609,97.5,607.3,99.2,609z"/>
						</g>
						<g class="st5">
							<path class="st1" d="M106,644.6c0.1,2.1,1.2,3.6,2.9,5.2c1.7,1.7,4.2-0.8,2.5-2.5c-0.8-0.8-1.8-1.7-1.9-2.7
								C109.5,642.3,105.9,642.3,106,644.6L106,644.6z"/>
						</g>
						<g class="st5">
							<path class="st1" d="M103.3,653.7c1.3,1.4,1.9,3.3,3.2,4.7c1.5,1.7,4.1-0.8,2.5-2.5c-0.4-0.4-0.8-1.3-1.1-1.9
								c-0.6-1-1.3-2-2.1-2.9C104.3,649.5,101.8,652.1,103.3,653.7L103.3,653.7z"/>
						</g>
						<g class="st5">
							<path class="st1" d="M109.7,663.2c1.8,1.9,2.9,4.4,4.7,6.3c1.6,1.7,4.1-0.9,2.5-2.5c-1.8-1.9-2.9-4.4-4.7-6.3
								C110.6,659,108.1,661.6,109.7,663.2L109.7,663.2z"/>
						</g>
						<g class="st5">
							<path class="st1" d="M117.9,683.3c0.1,2.2,1.2,3.5,2.9,5.2c1.7,1.7,4.2-0.8,2.5-2.5c-0.8-0.8-1.2-1.1-1.4-1.5
								c-0.3-0.4-0.4-0.7-0.4-1.2C121.4,681,117.8,681,117.9,683.3L117.9,683.3z"/>
						</g>
						<g class="st5">
							<path class="st1" d="M120.7,691.7C120.6,691.5,120.6,691.5,120.7,691.7c-0.1-0.1-0.2-0.6-0.1-0.3c0,0.2,0,0.4,0,0.6
								c0.1,0.8,0.4,1.5,0.9,2.1c0.7,0.7,1.9,0.7,2.5,0c0.7-0.7,0.7-1.8,0-2.5c0.1,0.2,0.1,0.2,0,0c0,0.1,0.1,0.6,0.1,0.3
								c0-0.2,0-0.4,0-0.6c-0.1-0.8-0.4-1.5-0.9-2.1c-0.7-0.7-1.9-0.7-2.5,0C120,689.9,120.1,691,120.7,691.7L120.7,691.7z"/>
						</g>
					</g>
				</g>
			</g>
		</g>
	</g>
</g>
<g id="Guitar">
	<defs>
		<path id="SVGID_2_" d="M635.3,759c-50.5,18.8-106.5,7.8-142.7-28.2c-29.4-29.2-34.1-68.1-37.9-99.3c-2.2-18.3-4.1-34-10.5-40.3
			c-7.9-7.9-16.2-10.1-26.6-12.9c-13.2-3.5-28.1-7.5-44.5-24.1c-28.4-28.7-25.3-63.5,9.6-106.4L133,192.4
			c-6.7-6.7-15.1-6.8-22.5-6.9c-5.5,0-10.8-0.1-14.6-3.5c-0.5,0.7-1,1.3-1.5,1.7c-1.5,1.5-3.2,2.6-5,3.3c-7.6,2.8-13.5-3.1-16.7-6.2
			c-7.3-7.3-6.5-16.1-2-20.6c1.2-1.2,2.6-2.1,4.2-2.7c0.1,0,0.2-0.1,0.3-0.1c-0.8-0.9-1.5-1.8-2.2-2.7c-0.8,2.1-2.2,3.7-3.1,4.7
			c-1.5,1.5-3.2,2.6-5,3.3c-7.6,2.8-13.5-3.1-16.7-6.3c-3-3-4.9-6.5-5.3-10.2c-0.5-4,0.7-7.8,3.4-10.4c1.2-1.2,2.6-2.1,4.2-2.7
			c0.3-0.1,0.6-0.2,0.9-0.3c-0.9-0.8-1.8-1.6-2.8-2.5c-0.8,2-2.1,3.5-3.2,4.7c-1.5,1.5-3.2,2.6-5,3.3c-7.6,2.8-13.5-3.1-16.7-6.3
			c-7.3-7.3-6.5-16-2-20.6c0.8-0.8,1.7-1.5,2.7-2c-5.7-4.8-9.6-8.2-9.6-8.2l-6-5l12.4-12.5C24,81,25.2,76,26.1,71.9
			c0.9-3.9,1.6-7.3,4-9.7c1.6-1.6,3.2-2.7,5-3.3c0.1,0,0.2-0.1,0.3-0.1c0.6-1.7,1.5-3.4,3.4-5.3c1.1-1.1,2.5-2,4.3-2.6
			c1.6-0.6,3.5-1,5.4-1.5c2.2-0.5,4.6-1,6.8-1.9c2.3-0.8,3.9-1.8,5.1-3L72.8,32l5,5.9c0,0,3.4,3.9,8.2,9.6c0.5-1,1.2-1.9,1.9-2.6
			c1.2-1.2,2.6-2.1,4.3-2.7c5.3-2,11.4-0.3,16.3,4.6c2.4,2.4,4.9,5,6.2,8.2c1.9,4.7,0.7,9.6-3.1,13.4c-1.4,1.4-3,2.5-4.6,3.2
			c0.9,1,1.7,1.9,2.5,2.8c0.6-2,1.6-3.8,3-5.1c1.2-1.2,2.6-2.1,4.3-2.7c5.3-2,11.4-0.3,16.3,4.6c2.4,2.4,4.9,5,6.2,8.2
			c1.9,4.7,0.7,9.6-3.1,13.4c-1.4,1.4-2.9,2.5-4.6,3.1c0.9,0.7,1.7,1.4,2.6,2.2c0.6-1.7,1.5-3.3,2.8-4.5c1.2-1.2,2.6-2.1,4.3-2.7
			c5.3-2,11.4-0.3,16.3,4.6c3.1,3,12.4,12.3,3.1,21.7c-0.5,0.5-1.1,1-1.7,1.5c3.4,3.8,3.5,9,3.6,14.6c0.1,7.4,0.2,15.7,7,22.5
			L455,432c11.2,2.8,26.5,5.7,37.1,1.7c2.9-1.1,5.3-2.6,7.4-4.7c13.7-13.8,10.4-22.2,7.5-29.7c-1.7-4.3-4.2-10.9,0.9-16
			c1.2-1.2,2.7-2.2,4.4-2.8c11.1-4.2,25.2,8.7,29.3,12.7c10.5,10.4,14.3,23.3,18,35.7c3.3,11,6.4,21.3,14,28.8
			c9.2,9.1,24.6,9.8,44.1,10.5c30.7,1.2,68.9,2.8,105.1,38.8c27.2,27.1,39.6,60.8,35.8,97.5c-3.9,37.8-25.1,77.1-61.5,113.6
			C678.5,736.9,657.7,750.6,635.3,759"/>
	</defs>
	
		<linearGradient id="SVGID_4_" gradientUnits="userSpaceOnUse" x1="227.4482" y1="379.0403" x2="548.2991" y2="379.0403" gradientTransform="matrix(0.7071 -0.7071 0.7071 0.7071 -171.0285 388.7271)">
		<stop  offset="0" style="stop-color:#00BFB7"/>
		<stop  offset="0.1253" style="stop-color:#00B6B1"/>
		<stop  offset="0.3329" style="stop-color:#009CA0"/>
		<stop  offset="0.4567" style="stop-color:#008A94"/>
		<stop  offset="0.7158" style="stop-color:#0075BE"/>
		<stop  offset="0.9944" style="stop-color:#005B97"/>
	</linearGradient>
	<use xlink:href="#SVGID_2_"  style="overflow:visible;fill:url(#SVGID_4_);"/>
	<clipPath id="SVGID_5_">
		<use xlink:href="#SVGID_2_"  style="overflow:visible;"/>
	</clipPath>
</g>
</svg>
